export default {"glyphs":{"0":{"ha":868,"x_min":0,"x_max":0,"o":"m 56 486 b 103 749 56 586 71 674 b 235 925 134 825 178 883 b 433 988 292 967 358 988 b 633 925 509 988 576 967 b 765 749 690 883 734 825 b 813 486 797 674 813 586 b 765 223 813 386 797 298 b 633 47 734 147 690 89 b 433 -15 576 6 509 -15 b 235 47 358 -15 292 6 b 103 223 178 89 134 147 b 56 486 71 298 56 386 z m 217 486 b 243 302 217 417 225 355 b 318 177 261 249 286 207 b 433 132 350 147 389 132 b 549 177 478 132 516 147 b 624 302 581 207 606 249 b 651 486 642 355 651 417 b 624 670 651 556 642 617 b 549 795 606 723 581 765 b 433 840 516 825 478 840 b 318 795 389 840 350 825 b 243 670 286 765 261 723 b 217 486 225 617 217 556 z "},"1":{"ha":657,"x_min":0,"x_max":0,"o":"m 104 744 l 104 900 l 492 988 l 492 0 l 331 0 l 331 807 z "},"2":{"ha":839,"x_min":0,"x_max":0,"o":"m 28 0 l 478 474 b 559 581 513 512 540 547 b 588 689 578 614 588 650 b 570 762 588 714 582 738 b 518 819 559 785 541 805 b 431 842 495 834 466 842 b 295 784 375 842 330 822 b 243 628 260 746 243 694 l 81 628 b 122 813 81 697 94 759 b 243 942 150 867 190 910 b 433 989 296 973 359 989 b 579 962 490 989 538 980 b 680 890 620 944 653 920 b 739 792 706 859 726 827 b 758 686 752 756 758 721 b 721 544 758 635 746 588 b 624 422 696 501 663 460 l 347 153 l 769 153 l 769 0 z "},"3":{"ha":800,"x_min":0,"x_max":0,"o":"m 413 -17 b 234 24 344 -17 284 -3 b 117 131 184 50 145 86 b 76 278 90 176 76 225 l 242 278 b 292 167 242 231 258 194 b 415 125 325 139 366 125 b 535 165 464 125 504 138 b 581 278 565 192 581 230 b 522 399 581 330 561 370 b 364 442 482 427 430 442 l 364 475 l 364 535 l 364 564 b 503 609 423 564 469 579 b 553 717 536 639 553 675 b 519 812 553 756 542 787 b 421 849 497 836 464 849 b 315 810 379 849 344 836 b 272 714 287 785 272 753 l 118 714 b 156 856 118 768 131 815 b 263 952 182 896 217 928 b 419 988 308 976 360 988 b 581 951 482 988 536 975 b 683 856 625 927 659 896 b 718 725 706 817 718 773 b 674 596 718 676 703 633 b 553 508 644 559 604 530 b 693 420 611 490 658 460 b 746 261 728 380 746 327 b 704 115 746 206 732 157 b 588 18 676 74 638 41 b 413 -17 538 -5 479 -17 z "},"4":{"ha":874,"x_min":0,"x_max":0,"o":"m 25 186 l 574 972 l 672 972 l 672 328 l 825 328 l 825 186 l 672 186 l 672 0 l 504 0 l 504 186 z m 514 317 l 514 678 l 265 317 z "},"5":{"ha":828,"x_min":0,"x_max":0,"o":"m 772 317 b 721 131 772 242 755 180 b 588 21 687 81 642 45 b 411 -15 533 -3 474 -15 b 191 35 321 -15 248 2 b 49 157 134 69 87 110 l 144 275 b 255 178 173 237 210 205 b 392 138 300 151 345 138 b 544 188 457 138 508 154 b 597 326 579 221 597 267 b 569 428 597 366 588 400 b 495 492 551 456 526 477 b 392 514 464 506 430 514 b 267 498 349 514 307 509 b 132 436 226 487 181 467 l 264 972 l 764 972 l 764 828 l 388 828 l 324 604 b 400 632 348 617 373 626 b 481 640 427 638 454 640 b 627 601 534 640 583 627 b 733 488 671 574 706 537 b 772 317 759 440 772 382 z "},"6":{"ha":851,"x_min":0,"x_max":0,"o":"m 460 971 l 668 971 l 389 626 b 436 641 404 634 419 639 b 490 644 453 643 471 644 b 633 604 541 644 589 631 b 742 492 678 577 714 540 b 783 328 769 445 783 390 b 736 143 783 256 768 195 b 608 24 705 91 662 52 b 426 -17 553 -3 493 -17 b 245 24 360 -17 299 -3 b 117 143 191 52 148 91 b 69 328 85 195 69 256 b 93 452 69 372 77 414 b 151 557 109 491 128 525 z m 231 328 b 286 183 231 269 249 220 b 426 128 323 146 370 128 b 567 183 483 128 530 146 b 622 328 604 220 622 269 b 567 475 622 388 604 437 b 426 532 530 513 483 532 b 286 475 370 532 323 513 b 231 328 249 437 231 388 z "},"7":{"ha":772,"x_min":0,"x_max":0,"o":"m 42 818 l 42 972 l 767 972 l 300 0 l 125 0 l 524 818 z "},"8":{"ha":803,"x_min":0,"x_max":0,"o":"m 236 286 b 287 165 236 233 253 193 b 401 122 321 136 359 122 b 483 141 430 122 457 128 b 544 197 508 153 529 172 b 568 286 560 221 568 251 b 544 369 568 317 560 344 b 483 428 529 394 508 414 b 401 450 457 443 430 450 b 321 428 373 450 346 443 b 260 369 296 414 275 394 b 236 286 244 344 236 317 z m 265 719 b 306 622 265 680 279 647 b 401 583 332 596 364 583 b 499 622 439 583 472 596 b 539 719 525 647 539 680 b 501 820 539 760 526 794 b 401 860 475 847 442 860 b 303 820 362 860 329 847 b 265 719 278 794 265 760 z m 110 738 b 149 868 110 787 123 830 b 253 957 175 906 209 936 b 401 989 297 978 347 989 b 550 957 456 989 506 978 b 656 868 594 936 630 906 b 694 738 681 830 694 787 b 655 601 694 684 681 638 b 550 517 628 564 594 536 b 677 424 600 496 642 465 b 729 264 712 382 729 329 b 685 120 729 210 714 162 b 566 20 655 78 616 45 b 401 -17 516 -4 462 -17 b 237 20 341 -17 286 -4 b 119 120 187 45 148 78 b 75 264 90 162 75 210 b 126 424 75 329 92 382 b 253 517 161 465 203 496 b 149 601 210 536 176 564 b 110 738 123 638 110 684 z "},"9":{"ha":851,"x_min":0,"x_max":0,"o":"m 392 1 l 183 1 l 461 346 b 416 332 447 339 432 335 b 363 328 400 329 382 328 b 219 368 312 328 264 341 b 111 480 175 395 139 432 b 69 644 83 528 69 582 b 117 830 69 717 85 778 b 245 948 148 881 191 921 b 426 989 299 975 360 989 b 608 948 493 989 553 975 b 736 830 662 921 705 881 b 783 644 768 778 783 717 b 760 520 783 600 775 559 b 700 415 744 482 724 447 z m 622 644 b 567 790 622 705 604 753 b 426 844 530 826 483 844 b 286 790 370 844 323 826 b 231 644 249 753 231 705 b 286 498 231 585 249 536 b 426 440 323 459 370 440 b 567 498 483 440 530 459 b 622 644 604 536 622 585 z "}," ":{"ha":417,"x_min":0,"x_max":0,"o":""},"!":{"ha":440,"x_min":0,"x_max":0,"o":"m 122 68 b 151 135 122 95 132 117 b 221 161 170 152 193 161 b 291 135 249 161 272 152 b 319 68 310 117 319 95 b 291 1 319 42 310 20 b 221 -26 272 -17 249 -26 b 151 1 193 -26 170 -17 b 122 68 132 20 122 42 z m 126 972 l 314 972 l 279 294 l 161 294 z "},"\"":{"ha":675,"x_min":0,"x_max":0,"o":"m 433 972 l 603 972 l 469 544 l 368 544 z m 167 972 l 335 972 l 201 544 l 100 544 z "},"#":{"ha":875,"x_min":0,"x_max":0,"o":"m 333 972 l 469 972 l 407 717 l 579 717 l 642 972 l 778 972 l 715 717 l 826 717 l 826 596 l 686 596 l 635 383 l 771 383 l 771 263 l 606 263 l 542 0 l 406 0 l 469 263 l 296 263 l 233 0 l 97 0 l 161 263 l 49 263 l 49 383 l 190 383 l 242 596 l 104 596 l 104 717 l 271 717 z m 501 381 l 554 599 l 375 599 l 322 381 z "},"$":{"ha":828,"x_min":0,"x_max":0,"o":"m 617 700 b 541 806 596 741 571 776 b 426 850 511 835 473 850 b 320 819 378 850 343 840 b 286 735 297 798 286 770 b 318 657 286 703 297 677 b 401 604 339 637 367 619 b 511 560 436 589 472 575 b 625 503 549 546 587 527 b 719 410 663 480 694 449 b 757 267 744 372 757 324 b 688 77 757 189 734 126 b 490 -11 641 28 575 -1 l 492 -156 l 361 -156 l 364 -8 b 183 80 296 5 236 34 b 64 246 131 126 91 181 l 190 328 b 294 181 221 265 256 216 b 438 128 333 145 381 128 b 549 163 488 128 525 140 b 585 261 573 187 585 219 b 554 348 585 296 575 325 b 474 406 534 371 507 390 b 368 450 441 421 406 436 b 288 485 344 459 317 471 b 206 540 259 500 231 518 b 142 622 180 563 158 590 b 117 739 125 655 117 694 b 149 851 117 780 127 817 b 236 936 170 884 199 913 b 364 982 273 959 316 975 l 361 1136 l 492 1136 l 490 981 b 652 903 557 969 611 943 b 744 779 693 864 724 823 z "},"%":{"ha":1136,"x_min":0,"x_max":0,"o":"m 831 972 l 981 972 l 306 0 l 157 0 z m 750 217 b 779 135 750 185 760 158 b 858 101 799 113 825 101 b 938 135 892 101 918 113 b 967 217 957 158 967 185 b 938 299 967 248 957 275 b 858 333 918 322 892 333 b 779 299 825 333 799 322 b 750 217 760 275 750 248 z m 622 217 b 652 335 622 260 632 300 b 735 421 672 371 700 400 b 858 453 771 442 812 453 b 981 421 905 453 946 442 b 1065 335 1017 400 1045 371 b 1094 217 1084 300 1094 260 b 1065 98 1094 173 1084 134 b 981 13 1045 62 1017 34 b 858 -19 946 -9 905 -19 b 735 13 812 -19 771 -9 b 652 98 700 34 672 62 b 622 217 632 134 622 173 z m 169 756 b 199 674 169 724 179 697 b 278 639 218 650 244 639 b 357 674 311 639 338 650 b 386 756 376 697 386 724 b 357 837 386 787 376 814 b 278 871 338 859 311 871 b 199 837 244 871 218 859 b 169 756 179 814 169 787 z m 42 756 b 72 874 42 799 52 839 b 155 960 91 910 119 938 b 278 992 191 981 231 992 b 401 960 324 992 365 981 b 485 874 436 938 464 910 b 515 756 505 839 515 799 b 485 637 515 712 505 672 b 401 551 464 601 436 573 b 278 519 365 530 324 519 b 155 551 231 519 191 530 b 72 637 119 573 91 601 b 42 756 52 672 42 712 z "},"&":{"ha":981,"x_min":0,"x_max":0,"o":"m 415 604 b 506 681 454 629 484 655 b 539 758 528 708 539 733 b 510 833 539 788 529 813 b 429 864 490 854 463 864 b 348 834 394 864 367 854 b 319 760 329 814 319 789 b 348 685 319 734 329 709 b 415 604 367 661 389 634 z m 789 185 l 954 0 l 778 0 l 692 97 b 547 15 647 63 599 36 b 378 -15 494 -5 438 -15 b 219 17 321 -15 269 -4 b 101 111 170 39 131 70 b 56 257 71 152 56 200 b 94 394 56 312 68 357 b 188 484 119 430 150 460 b 294 543 225 508 260 527 b 239 606 277 563 258 584 b 189 680 219 629 203 653 b 168 765 175 706 168 735 b 201 881 168 808 179 846 b 292 962 222 915 253 942 b 431 992 332 982 378 992 b 567 960 484 992 530 981 b 652 876 604 938 632 911 b 682 767 672 842 682 806 b 632 635 682 717 665 673 b 492 518 599 597 552 558 l 703 282 b 773 364 727 308 750 335 b 839 453 796 393 818 422 l 947 378 b 873 279 924 345 899 313 b 789 185 847 246 819 214 z m 604 194 l 375 453 b 297 407 348 439 322 424 b 237 349 272 390 252 371 b 214 268 222 326 214 300 b 265 158 214 223 231 186 b 394 117 300 131 343 117 b 502 138 431 117 467 124 b 604 194 537 151 571 170 z "},"'":{"ha":407,"x_min":0,"x_max":0,"o":"m 167 972 l 335 972 l 201 544 l 100 544 z "},"(":{"ha":447,"x_min":0,"x_max":0,"o":"m 276 1083 l 415 1083 b 307 754 367 980 331 870 b 271 403 283 638 271 521 b 307 53 271 285 283 169 b 415 -278 331 -63 367 -173 l 276 -278 b 153 53 221 -173 180 -63 b 113 403 126 169 113 285 b 153 754 113 521 126 638 b 276 1083 180 870 221 980 z "},")":{"ha":447,"x_min":0,"x_max":0,"o":"m 172 -278 l 33 -278 b 142 53 82 -173 119 -63 b 178 403 166 169 178 285 b 142 754 178 521 166 638 b 33 1083 119 870 82 980 l 172 1083 b 295 754 228 980 269 870 b 335 403 322 638 335 521 b 295 53 335 285 322 169 b 172 -278 269 -63 228 -173 z "},"*":{"ha":822,"x_min":0,"x_max":0,"o":"m 343 972 l 479 972 l 458 746 l 669 835 l 711 706 l 488 654 l 639 482 l 528 403 l 411 599 l 294 403 l 183 482 l 335 654 l 111 706 l 153 835 l 364 746 z "},"+":{"ha":886,"x_min":0,"x_max":0,"o":"m 364 717 l 522 717 l 522 436 l 797 436 l 797 289 l 522 289 l 522 7 l 364 7 l 364 289 l 90 289 l 90 436 l 364 436 z "},",":{"ha":436,"x_min":0,"x_max":0,"o":"m 190 153 l 342 110 l 179 -237 l 68 -207 z "},"-":{"ha":299,"x_min":0,"x_max":0,"o":"m 7 263 l 7 397 l 292 397 l 292 263 z "},".":{"ha":429,"x_min":0,"x_max":0,"o":"m 117 71 b 144 140 117 98 126 121 b 214 168 163 159 186 168 b 284 140 242 168 265 159 b 313 71 303 121 313 98 b 284 3 313 45 303 22 b 214 -26 265 -17 242 -26 b 144 3 186 -26 163 -17 b 117 71 126 22 117 45 z "},"/":{"ha":767,"x_min":0,"x_max":0,"o":"m 599 972 l 747 972 l 172 -208 l 21 -208 z "},":":{"ha":429,"x_min":0,"x_max":0,"o":"m 117 596 b 144 665 117 623 126 646 b 214 693 163 684 186 693 b 284 665 242 693 265 684 b 313 596 303 646 313 623 b 284 528 313 570 303 547 b 214 499 265 508 242 499 b 144 528 186 499 163 508 b 117 596 126 547 117 570 z m 117 71 b 144 140 117 98 126 121 b 214 168 163 159 186 168 b 284 140 242 168 265 159 b 313 71 303 121 313 98 b 284 3 313 45 303 22 b 214 -26 265 -17 242 -26 b 144 3 186 -26 163 -17 b 117 71 126 22 117 45 z "},";":{"ha":493,"x_min":0,"x_max":0,"o":"m 203 153 l 353 110 l 192 -237 l 81 -207 z m 169 592 b 198 660 169 619 179 641 b 268 689 217 679 240 689 b 338 660 296 689 319 679 b 367 592 357 641 367 619 b 338 524 367 566 357 543 b 268 494 319 504 296 494 b 198 524 240 494 217 504 b 169 592 179 543 169 566 z "},"<":{"ha":889,"x_min":0,"x_max":0,"o":"m 319 367 l 799 161 l 799 13 l 90 314 l 90 408 l 799 710 l 799 561 z "},"=":{"ha":860,"x_min":0,"x_max":0,"o":"m 85 403 l 85 539 l 775 539 l 775 403 z m 85 164 l 85 299 l 775 299 l 775 164 z "},">":{"ha":889,"x_min":0,"x_max":0,"o":"m 569 356 l 90 561 l 90 710 l 799 408 l 799 314 l 90 13 l 90 161 z "},"?":{"ha":813,"x_min":0,"x_max":0,"o":"m 274 67 b 302 131 274 92 283 113 b 372 158 321 149 344 158 b 442 131 400 158 423 149 b 469 67 460 113 469 92 b 442 1 469 42 460 20 b 372 -26 423 -17 400 -26 b 302 1 344 -26 321 -17 b 274 67 283 20 274 42 z m 581 694 b 531 815 581 746 564 787 b 394 858 497 844 452 858 b 276 826 350 858 310 848 b 188 740 241 805 212 776 l 76 822 b 210 946 115 874 160 915 b 408 992 260 976 326 992 b 571 954 468 992 522 979 b 689 849 620 929 659 894 b 733 694 719 804 733 753 b 690 548 733 639 719 590 b 578 447 660 506 623 472 b 436 399 532 421 485 405 l 428 253 l 311 253 l 283 499 l 322 499 b 463 528 378 499 425 509 b 551 603 502 548 531 573 b 581 694 571 634 581 664 z "},"@":{"ha":1069,"x_min":0,"x_max":0,"o":"m 36 444 b 76 660 36 521 49 593 b 188 837 102 728 140 786 b 360 956 237 887 294 927 b 576 999 425 984 498 999 b 768 960 648 999 712 986 b 913 855 825 934 873 899 b 1003 708 952 811 983 762 b 1035 542 1024 653 1035 598 b 1009 381 1035 481 1026 427 b 943 268 992 335 970 298 b 856 201 916 238 887 216 b 767 179 825 187 795 179 b 670 217 728 179 696 192 b 625 308 645 243 630 273 b 551 242 605 280 580 258 b 456 219 522 227 490 219 b 322 277 403 219 358 239 b 267 438 285 316 267 369 b 306 601 267 502 280 557 b 405 701 333 645 366 678 b 521 736 444 725 483 736 b 608 707 556 736 585 726 b 660 632 630 688 648 663 l 672 722 l 808 722 l 747 388 b 745 370 746 383 746 377 b 744 351 745 363 744 357 b 753 313 744 335 747 322 b 786 300 758 304 769 300 b 835 326 799 300 815 309 b 887 406 854 344 872 371 b 910 542 902 442 910 487 b 873 711 910 602 897 658 b 762 840 848 764 811 807 b 576 889 712 872 650 889 b 356 830 492 889 419 869 b 211 670 294 791 245 737 b 160 444 177 603 160 528 b 247 182 160 335 189 248 b 494 83 304 116 387 83 b 644 94 544 83 593 87 b 785 149 694 101 741 119 l 858 50 b 708 -7 817 26 767 7 b 507 -28 650 -21 583 -28 b 250 33 406 -28 320 -8 b 90 200 180 73 126 129 b 36 444 54 271 36 353 z m 397 444 b 421 362 397 409 405 382 b 490 332 437 342 460 332 b 553 351 511 332 531 338 b 607 409 574 363 592 383 b 629 511 622 435 629 469 b 601 599 629 547 620 576 b 531 632 583 621 559 632 b 467 607 508 632 487 624 b 417 540 446 590 430 568 b 397 444 404 511 397 480 z "},"A":{"ha":958,"x_min":0,"x_max":0,"o":"m 300 250 l 189 0 l 3 0 l 479 1026 l 956 0 l 769 0 l 658 250 z m 347 389 l 611 389 l 479 697 z "},"B":{"ha":833,"x_min":0,"x_max":0,"o":"m 561 526 b 710 443 621 511 671 483 b 768 281 749 403 768 349 b 724 122 768 217 753 164 b 600 30 694 81 653 50 b 418 0 547 10 487 0 l 108 0 l 108 972 l 401 972 b 626 912 493 972 568 952 b 713 728 684 872 713 810 b 672 604 713 680 699 638 b 561 526 644 570 607 544 z m 272 454 l 272 136 l 408 136 b 546 176 464 136 510 150 b 600 297 582 203 600 244 b 546 415 600 350 582 389 b 408 454 510 441 464 454 z m 272 582 l 390 582 b 501 616 436 582 473 593 b 544 710 530 639 544 670 b 501 803 544 750 530 782 b 390 836 473 825 436 836 l 272 836 z "},"C":{"ha":960,"x_min":0,"x_max":0,"o":"m 231 486 b 276 306 231 418 246 357 b 398 185 307 254 347 214 b 563 143 448 157 503 143 b 741 182 631 143 691 156 b 867 281 791 208 833 241 l 867 86 b 735 10 827 53 783 27 b 557 -17 688 -8 628 -17 b 358 20 486 -17 419 -4 b 198 124 297 45 244 79 b 91 283 152 168 116 221 b 53 486 66 344 53 412 b 91 690 53 560 66 628 b 198 849 116 751 152 804 b 358 952 244 893 297 928 b 557 989 419 977 486 989 b 735 963 628 989 688 980 b 867 886 783 945 827 919 l 867 692 b 741 790 833 731 791 764 b 563 829 691 816 631 829 b 398 787 503 829 448 815 b 276 667 347 759 307 719 b 231 486 246 616 231 556 z "},"D":{"ha":974,"x_min":0,"x_max":0,"o":"m 210 0 l 108 0 l 108 972 l 210 972 l 275 972 l 422 972 b 683 912 521 972 608 952 b 859 742 758 872 817 815 b 922 486 901 670 922 584 b 859 230 922 388 901 303 b 683 60 817 157 758 101 b 422 0 608 20 521 0 l 275 0 z m 275 154 l 418 154 b 590 192 482 154 539 167 b 709 303 640 217 680 254 b 753 486 738 352 753 413 b 709 669 753 559 738 620 b 590 781 680 719 640 756 b 418 818 539 806 482 818 l 275 818 z "},"E":{"ha":793,"x_min":0,"x_max":0,"o":"m 269 450 l 269 144 l 700 144 l 700 0 l 269 0 l 210 0 l 108 0 l 108 972 l 210 972 l 269 972 l 700 972 l 700 828 l 269 828 l 269 592 l 672 592 l 672 450 z "},"F":{"ha":724,"x_min":0,"x_max":0,"o":"m 269 439 l 269 0 l 108 0 l 108 972 l 210 972 l 269 972 l 644 972 l 644 825 l 269 825 l 269 582 l 631 582 l 631 439 z "},"G":{"ha":1097,"x_min":0,"x_max":0,"o":"m 571 369 l 571 508 l 1039 508 b 1011 306 1041 437 1031 370 b 919 138 991 243 960 187 b 768 22 879 88 828 50 b 561 -21 708 -7 639 -21 b 358 16 488 -21 420 -9 b 197 121 296 41 242 75 b 90 282 151 166 115 220 b 53 486 65 344 53 412 b 91 690 53 560 66 628 b 198 849 116 751 152 804 b 360 952 244 893 298 928 b 564 989 423 977 491 989 b 812 932 658 989 741 970 b 982 774 883 894 939 841 l 849 683 b 737 794 822 730 784 767 b 564 836 689 822 631 836 b 392 793 501 836 444 822 b 270 672 341 764 300 724 b 225 486 240 619 225 557 b 269 301 225 416 240 354 b 391 176 299 247 340 206 b 564 132 442 147 500 132 b 713 164 622 132 672 143 b 812 249 753 185 786 214 b 868 369 837 285 856 325 z "},"H":{"ha":1032,"x_min":0,"x_max":0,"o":"m 108 972 l 272 972 l 272 597 l 761 597 l 761 972 l 925 972 l 925 0 l 761 0 l 761 446 l 272 446 l 272 0 l 108 0 z "},"I":{"ha":382,"x_min":0,"x_max":0,"o":"m 108 972 l 275 972 l 275 0 l 108 0 z "},"J":{"ha":383,"x_min":0,"x_max":0,"o":"m -96 -108 b 15 -156 -72 -140 -35 -156 b 78 -129 37 -156 57 -147 b 108 -36 98 -112 108 -81 l 108 972 l 276 972 l 276 -81 b 243 -215 276 -135 265 -180 b 151 -292 221 -250 190 -276 b 19 -317 113 -309 69 -317 b -101 -291 -24 -317 -64 -308 b -183 -243 -138 -274 -166 -258 z "},"K":{"ha":860,"x_min":0,"x_max":0,"o":"m 638 972 l 836 972 l 425 517 l 856 0 l 654 0 l 276 454 l 276 0 l 108 0 l 108 972 l 276 972 l 276 567 z "},"L":{"ha":668,"x_min":0,"x_max":0,"o":"m 108 972 l 272 972 l 272 147 l 658 147 l 658 0 l 108 0 z "},"M":{"ha":1169,"x_min":0,"x_max":0,"o":"m 289 592 l 222 0 l 53 0 l 186 1021 l 585 361 l 985 1021 l 1118 0 l 947 0 l 881 590 l 585 90 z "},"N":{"ha":1086,"x_min":0,"x_max":0,"o":"m 818 972 l 979 972 l 979 -49 l 269 643 l 269 0 l 108 0 l 108 1021 l 818 328 z "},"O":{"ha":1114,"x_min":0,"x_max":0,"o":"m 53 486 b 90 687 53 558 65 625 b 197 847 115 748 151 802 b 357 951 242 891 296 926 b 557 989 418 976 485 989 b 758 951 629 989 696 976 b 919 847 819 926 873 891 b 1025 687 965 802 1000 748 b 1063 486 1050 625 1063 558 b 1025 285 1063 414 1050 347 b 919 124 1000 224 965 170 b 759 17 874 78 821 43 b 557 -21 697 -8 630 -21 b 356 17 484 -21 417 -8 b 196 124 294 43 241 78 b 90 285 150 170 115 224 b 53 486 65 347 53 414 z m 226 486 b 269 308 226 419 241 360 b 386 185 297 255 336 214 b 557 140 436 155 493 140 b 728 185 622 140 679 155 b 845 308 778 214 817 255 b 888 486 873 360 888 419 b 845 665 888 553 873 612 b 728 788 817 717 778 758 b 557 832 679 817 622 832 b 386 788 493 832 436 817 b 269 665 336 758 297 717 b 226 486 241 612 226 553 z "},"P":{"ha":803,"x_min":0,"x_max":0,"o":"m 272 368 l 272 0 l 108 0 l 108 972 l 206 972 l 272 972 l 401 972 b 585 935 472 972 533 960 b 707 831 638 911 678 876 b 750 669 736 785 750 731 b 707 509 750 607 736 554 b 585 405 678 464 638 429 b 401 368 533 380 472 368 z m 272 513 l 401 513 b 538 552 458 513 503 526 b 589 669 572 578 589 618 b 538 788 589 721 572 761 b 401 828 503 814 458 828 l 272 828 z "},"Q":{"ha":1138,"x_min":0,"x_max":0,"o":"m 514 417 l 703 417 l 844 279 b 899 475 881 336 899 401 b 856 656 899 542 884 602 b 736 785 827 710 787 753 b 558 832 685 816 626 832 b 388 788 494 832 438 817 b 269 665 338 758 298 717 b 226 486 241 612 226 553 b 272 303 226 418 241 357 b 394 178 302 250 342 209 b 567 133 445 148 503 133 b 751 185 637 133 699 150 z m 53 486 b 91 687 53 558 66 625 b 197 847 116 748 152 802 b 358 951 243 891 296 926 b 558 989 419 976 486 989 b 759 951 631 989 697 976 b 919 847 821 926 874 891 b 1025 687 965 802 1000 748 b 1063 486 1050 625 1063 558 b 1035 314 1063 425 1053 368 b 958 168 1016 260 991 212 l 1140 -7 l 947 -7 l 864 75 b 724 4 822 44 776 21 b 558 -21 673 -12 618 -21 b 356 17 485 -21 418 -8 b 196 124 295 43 241 78 b 90 285 150 170 115 224 b 53 486 65 347 53 414 z "},"R":{"ha":826,"x_min":0,"x_max":0,"o":"m 272 368 l 272 0 l 108 0 l 108 972 l 206 972 l 272 972 l 408 972 b 592 935 479 972 540 960 b 715 829 645 910 685 875 b 758 669 744 784 758 731 b 701 490 758 599 739 539 b 542 386 662 441 609 406 l 817 0 l 618 0 l 372 368 z m 272 503 l 401 503 b 538 546 458 503 503 517 b 589 667 572 575 589 615 b 538 788 589 719 572 759 b 401 831 503 816 458 831 l 272 831 z "},"S":{"ha":804,"x_min":0,"x_max":0,"o":"m 178 328 b 282 181 208 265 243 216 b 425 128 321 145 369 128 b 535 163 474 128 511 139 b 572 260 560 186 572 218 b 541 349 572 296 562 325 b 460 406 520 372 493 391 b 356 450 428 422 393 436 b 276 485 331 459 305 471 b 193 540 247 500 219 518 b 129 622 167 563 146 590 b 104 735 113 653 104 691 b 144 869 104 787 118 831 b 253 958 171 907 208 937 b 410 989 299 978 351 989 b 564 957 469 989 520 978 b 671 877 607 936 643 909 b 732 779 699 845 719 813 l 604 700 b 530 800 584 739 559 772 b 415 842 501 828 463 842 b 313 810 373 842 339 831 b 275 726 288 790 275 762 b 306 656 275 699 285 675 b 389 604 327 636 355 619 b 499 560 423 589 460 575 b 613 503 538 546 576 527 b 707 410 651 480 682 449 b 744 267 732 372 744 324 b 660 56 744 178 716 108 b 419 -21 603 5 523 -21 b 197 53 336 -21 262 4 b 53 246 131 102 83 166 z "},"T":{"ha":699,"x_min":0,"x_max":0,"o":"m 11 821 l 11 972 l 689 972 l 689 821 l 432 821 l 432 0 l 267 0 l 267 821 z "},"U":{"ha":911,"x_min":0,"x_max":0,"o":"m 100 972 l 265 972 l 265 326 b 314 182 265 267 281 219 b 456 126 346 145 394 126 b 598 182 519 126 566 145 b 646 326 630 219 646 267 l 646 972 l 811 972 l 811 319 b 766 135 811 248 796 187 b 640 17 736 84 694 44 b 456 -25 587 -11 525 -25 b 272 17 386 -25 325 -11 b 146 135 218 44 176 84 b 100 319 115 187 100 248 z "},"V":{"ha":958,"x_min":0,"x_max":0,"o":"m 479 289 l 765 972 l 956 972 l 479 -54 l 3 972 l 193 972 z "},"W":{"ha":1417,"x_min":0,"x_max":0,"o":"m 992 310 l 1215 972 l 1406 972 l 1008 -53 l 708 636 l 408 -53 l 11 972 l 201 972 l 425 310 l 708 1021 z "},"X":{"ha":843,"x_min":0,"x_max":0,"o":"m 613 972 l 813 972 l 518 506 l 833 0 l 633 0 l 425 374 l 210 0 l 11 0 l 333 506 l 44 972 l 244 972 l 426 644 z "},"Y":{"ha":833,"x_min":0,"x_max":0,"o":"m 643 972 l 831 972 l 500 410 l 500 0 l 333 0 l 333 410 l 3 972 l 192 972 l 417 556 z "},"Z":{"ha":799,"x_min":0,"x_max":0,"o":"m 61 821 l 61 972 l 775 972 l 279 147 l 738 147 l 738 0 l 17 0 l 510 821 z "},"[":{"ha":451,"x_min":0,"x_max":0,"o":"m 283 947 l 283 -169 l 424 -169 l 424 -306 l 133 -306 l 133 1083 l 424 1083 l 424 947 z "},"\\":{"ha":732,"x_min":0,"x_max":0,"o":"m 21 972 l 174 972 l 711 0 l 558 0 z "},"]":{"ha":451,"x_min":0,"x_max":0,"o":"m 168 -169 l 168 947 l 28 947 l 28 1083 l 318 1083 l 318 -306 l 28 -306 l 28 -169 z "},"^":{"ha":708,"x_min":0,"x_max":0,"o":"m 354 840 l 219 632 l 76 632 l 313 986 l 396 986 l 632 632 l 489 632 z "},"_":{"ha":711,"x_min":0,"x_max":0,"o":"m 0 -196 l 0 -97 l 711 -97 l 711 -196 z "},"`":{"ha":521,"x_min":0,"x_max":0,"o":"m 92 914 l 219 975 l 428 753 l 342 706 z "},"a":{"ha":706,"x_min":0,"x_max":0,"o":"m 158 469 l 97 578 b 208 629 127 595 164 613 b 360 654 252 646 302 654 b 552 603 438 654 503 637 b 626 456 602 569 626 519 l 626 0 l 479 0 l 479 92 b 393 13 461 57 432 31 b 263 -14 354 -5 311 -14 b 102 36 198 -14 144 3 b 39 181 60 69 39 118 b 113 337 39 247 64 299 b 313 393 163 374 229 393 b 408 380 348 393 379 389 b 479 350 436 371 460 361 l 479 439 b 442 508 479 469 467 491 b 353 532 418 524 388 532 b 233 508 307 532 268 524 b 158 469 199 493 174 480 z m 190 189 b 224 122 190 159 202 137 b 308 100 247 107 275 100 b 431 134 357 100 398 111 b 479 253 463 157 479 196 l 479 265 b 335 297 438 287 389 297 b 226 268 287 297 250 288 b 190 189 202 249 190 222 z "},"b":{"ha":817,"x_min":0,"x_max":0,"o":"m 615 319 b 589 428 615 362 606 398 b 519 498 571 459 548 482 b 422 522 490 514 457 522 b 338 499 394 522 365 514 b 269 430 310 483 287 460 b 242 319 251 400 242 363 b 269 209 242 276 251 239 b 338 140 287 179 310 156 b 422 117 365 125 394 117 b 519 141 457 117 490 125 b 589 210 548 157 571 180 b 615 319 606 241 615 277 z m 771 319 b 728 140 771 249 756 189 b 614 26 699 90 661 52 b 460 -14 567 -1 515 -14 b 334 17 413 -14 372 -3 b 242 106 297 38 266 68 l 242 0 l 90 0 l 90 1083 l 242 1083 l 242 533 b 334 622 266 571 297 601 b 460 653 372 642 413 653 b 614 613 515 653 567 640 b 728 499 661 587 699 549 b 771 319 756 450 771 390 z "},"c":{"ha":672,"x_min":0,"x_max":0,"o":"m 196 319 b 222 213 196 280 205 244 b 294 141 240 182 264 158 b 394 115 324 124 357 115 b 521 147 441 115 483 126 b 603 224 559 167 586 193 l 603 58 b 513 5 581 35 551 17 b 388 -14 476 -8 434 -14 b 210 28 322 -14 263 0 b 87 146 158 57 117 96 b 42 319 57 196 42 254 b 87 493 42 385 57 443 b 210 610 117 543 158 582 b 388 653 263 639 322 653 b 513 633 434 653 476 646 b 603 581 551 619 581 602 l 603 415 b 519 492 586 446 558 472 b 394 524 481 513 439 524 b 294 497 357 524 324 515 b 222 425 264 480 240 456 b 196 319 205 394 196 359 z "},"d":{"ha":817,"x_min":0,"x_max":0,"o":"m 203 319 b 260 170 203 256 222 206 b 394 117 298 134 343 117 b 479 140 423 117 451 125 b 549 209 507 156 530 179 b 576 319 567 239 576 276 b 549 430 576 363 567 400 b 479 499 530 460 507 483 b 394 522 451 514 423 522 b 260 469 343 522 298 504 b 203 319 222 433 203 383 z m 47 319 b 90 499 47 390 62 450 b 204 613 119 549 157 587 b 358 653 251 640 303 653 b 484 622 405 653 447 642 b 576 533 522 601 552 571 l 576 1083 l 728 1083 l 728 0 l 576 0 l 576 106 b 484 17 552 68 522 38 b 358 -14 447 -3 405 -14 b 204 26 303 -14 251 -1 b 90 140 157 52 119 90 b 47 319 62 189 47 249 z "},"e":{"ha":747,"x_min":0,"x_max":0,"o":"m 201 285 b 258 153 207 226 226 183 b 381 110 291 124 331 110 b 491 137 424 110 461 119 b 564 211 521 155 545 180 l 694 158 b 570 33 663 106 622 65 b 374 -14 519 2 453 -14 b 201 29 308 -14 250 0 b 88 148 152 58 114 97 b 47 319 61 198 47 256 b 49 354 47 331 48 343 b 53 388 50 365 51 376 b 158 579 66 466 101 530 b 381 653 215 628 289 653 b 615 565 480 653 558 624 b 700 326 672 507 700 427 b 699 307 700 321 700 314 b 697 285 699 300 698 292 z m 204 389 l 538 389 b 490 499 532 435 516 472 b 379 539 464 525 427 539 b 263 499 334 539 295 526 b 204 389 230 473 211 436 z "},"f":{"ha":429,"x_min":0,"x_max":0,"o":"m 394 922 b 363 951 385 937 375 947 b 328 958 352 956 340 958 b 279 933 307 958 291 950 b 261 846 267 916 261 887 l 261 639 l 410 639 l 410 507 l 261 507 l 261 0 l 113 0 l 113 507 l 43 507 l 43 639 l 113 639 l 113 875 b 166 1043 113 949 130 1005 b 319 1100 202 1081 253 1100 b 410 1080 356 1100 387 1093 b 464 1039 434 1066 452 1053 z "},"g":{"ha":814,"x_min":0,"x_max":0,"o":"m 203 322 b 260 175 203 258 222 209 b 394 124 298 141 343 124 b 479 146 423 124 451 131 b 549 213 507 161 530 183 b 576 322 567 242 576 279 b 549 432 576 366 567 402 b 479 499 530 462 507 484 b 394 522 451 515 423 522 b 260 470 343 522 298 505 b 203 322 222 435 203 386 z m 47 322 b 90 501 47 393 62 452 b 204 614 119 550 157 588 b 358 653 251 640 303 653 b 576 535 454 653 526 613 l 576 639 l 724 639 l 724 14 b 677 -176 724 -63 708 -126 b 556 -288 646 -226 606 -264 b 393 -325 506 -313 451 -325 b 151 -247 289 -325 209 -299 b 60 -43 93 -194 63 -126 l 208 -43 b 260 -151 210 -86 227 -122 b 389 -194 292 -180 335 -194 b 479 -172 420 -194 450 -187 b 549 -104 508 -157 531 -135 b 576 14 567 -74 576 -34 l 576 110 b 358 -7 526 32 454 -7 b 204 31 303 -7 251 6 b 90 143 157 57 119 94 b 47 322 62 192 47 252 z "},"h":{"ha":753,"x_min":0,"x_max":0,"o":"m 507 389 b 478 495 507 435 497 471 b 389 532 459 520 430 532 b 286 492 346 532 312 519 b 247 389 260 466 247 431 l 247 0 l 96 0 l 96 1083 l 247 1083 l 247 543 b 324 626 266 578 291 606 b 439 657 357 647 395 657 b 602 594 510 657 565 636 b 658 410 640 552 658 490 l 658 0 l 507 0 z "},"i":{"ha":369,"x_min":0,"x_max":0,"o":"m 111 639 l 258 639 l 258 0 l 111 0 z m 90 893 b 118 958 90 919 100 941 b 185 985 137 976 159 985 b 253 958 212 985 234 976 b 281 893 271 941 281 919 b 253 828 281 867 271 845 b 185 801 234 810 212 801 b 118 828 159 801 137 810 b 90 893 100 845 90 867 z "},"j":{"ha":358,"x_min":0,"x_max":0,"o":"m -33 -137 b -1 -167 -23 -152 -12 -162 b 33 -174 10 -171 21 -174 b 83 -147 55 -174 71 -165 b 100 -61 94 -130 100 -101 l 100 639 l 249 639 l 249 -90 b 195 -258 249 -163 231 -219 b 42 -317 159 -297 108 -317 b -49 -296 5 -317 -25 -310 b -103 -254 -72 -282 -90 -268 z m 81 893 b 108 958 81 919 90 941 b 175 985 127 976 149 985 b 242 958 202 985 224 976 b 269 893 260 941 269 919 b 242 828 269 867 260 845 b 175 801 224 810 202 801 b 108 828 149 801 127 810 b 81 893 90 845 81 867 z "},"k":{"ha":688,"x_min":0,"x_max":0,"o":"m 472 639 l 656 639 l 381 375 l 683 0 l 501 0 l 238 325 l 238 0 l 90 0 l 90 1083 l 238 1083 l 238 414 z "},"l":{"ha":342,"x_min":0,"x_max":0,"o":"m 96 1083 l 247 1083 l 247 0 l 96 0 z "},"m":{"ha":1106,"x_min":0,"x_max":0,"o":"m 1011 406 l 1011 0 l 860 0 l 860 389 b 835 495 860 435 852 471 b 753 532 819 520 792 532 b 659 492 712 532 681 519 b 626 389 637 466 626 431 l 626 0 l 475 0 l 475 389 b 451 495 475 435 467 471 b 369 532 436 520 408 532 b 276 492 329 532 297 519 b 243 389 254 466 243 431 l 243 0 l 96 0 l 96 639 l 243 639 l 243 546 b 315 624 261 578 284 604 b 422 653 345 643 381 653 b 606 540 516 653 577 615 b 690 623 627 575 655 603 b 807 653 725 643 764 653 b 961 590 876 653 928 632 b 1011 406 994 547 1011 486 z "},"n":{"ha":757,"x_min":0,"x_max":0,"o":"m 507 389 b 478 495 507 435 497 471 b 389 532 459 520 430 532 b 286 492 346 532 312 519 b 247 389 260 466 247 431 l 247 0 l 96 0 l 96 639 l 247 639 l 247 540 b 324 623 266 575 291 603 b 439 653 357 643 395 653 b 603 590 510 653 565 632 b 661 406 642 547 661 486 l 661 0 l 507 0 z "},"o":{"ha":782,"x_min":0,"x_max":0,"o":"m 201 319 b 256 174 201 260 220 212 b 392 118 293 137 338 118 b 528 174 446 118 492 137 b 582 319 564 212 582 260 b 528 465 582 380 564 428 b 392 521 492 502 446 521 b 256 465 338 521 293 502 b 201 319 220 428 201 380 z m 47 319 b 92 493 47 385 62 443 b 216 610 122 543 164 582 b 392 653 268 639 327 653 b 568 610 457 653 516 639 b 691 493 620 582 661 543 b 736 319 721 443 736 385 b 691 146 736 254 721 196 b 568 28 661 96 620 57 b 392 -14 516 0 457 -14 b 216 28 327 -14 268 0 b 92 146 164 57 122 96 b 47 319 62 196 47 254 z "},"p":{"ha":817,"x_min":0,"x_max":0,"o":"m 615 319 b 589 428 615 362 606 398 b 519 496 571 457 548 480 b 422 519 490 512 457 519 b 338 497 394 519 365 512 b 269 429 310 481 287 459 b 242 319 251 400 242 363 b 269 210 242 276 251 239 b 338 142 287 180 310 158 b 422 119 365 127 394 119 b 519 143 457 119 490 127 b 589 211 548 159 571 181 b 615 319 606 241 615 277 z m 771 319 b 728 138 771 248 756 188 b 614 23 699 88 661 49 b 460 -17 567 -3 515 -17 b 332 15 412 -17 369 -6 b 242 107 295 37 265 67 l 242 -306 l 90 -306 l 90 639 l 242 639 l 242 532 b 332 624 265 572 295 602 b 460 656 369 645 412 656 b 614 616 515 656 567 642 b 728 501 661 590 699 551 b 771 319 756 451 771 391 z "},"q":{"ha":817,"x_min":0,"x_max":0,"o":"m 203 319 b 260 172 203 256 222 206 b 394 119 298 137 343 119 b 479 142 423 119 451 127 b 549 210 507 158 530 180 b 576 319 567 239 576 276 b 549 429 576 363 567 400 b 479 497 530 459 507 481 b 394 519 451 512 423 519 b 260 467 343 519 298 502 b 203 319 222 433 203 383 z m 47 319 b 90 501 47 391 62 451 b 204 616 119 551 157 590 b 358 656 251 642 303 656 b 486 624 406 656 449 645 b 576 532 523 602 553 572 l 576 639 l 728 639 l 728 -306 l 576 -306 l 576 107 b 486 15 553 67 523 37 b 358 -17 449 -6 406 -17 b 204 23 303 -17 251 -3 b 90 138 157 49 119 88 b 47 319 62 188 47 248 z "},"r":{"ha":514,"x_min":0,"x_max":0,"o":"m 435 478 b 396 503 421 489 408 497 b 350 513 384 509 369 513 b 269 471 313 513 286 499 b 244 360 253 443 244 406 l 244 0 l 96 0 l 96 639 l 244 639 l 244 561 b 311 628 263 590 285 612 b 390 653 337 645 363 653 b 456 642 413 653 435 649 b 508 606 476 634 494 622 z "},"s":{"ha":586,"x_min":0,"x_max":0,"o":"m 119 231 b 217 142 150 194 183 165 b 311 108 252 120 283 108 b 374 124 338 108 359 114 b 397 172 390 135 397 151 b 355 238 397 200 383 222 b 257 282 327 253 294 268 b 171 322 227 294 199 307 b 102 381 143 337 120 357 b 75 478 84 406 75 438 b 106 572 75 515 85 546 b 186 632 126 598 153 618 b 293 653 219 646 255 653 b 437 620 345 653 393 642 b 539 539 481 598 515 571 l 456 453 b 381 510 434 476 409 495 b 300 532 353 525 326 532 b 238 519 274 532 253 528 b 215 476 223 510 215 496 b 239 433 215 459 223 444 b 299 404 255 422 275 413 b 372 376 324 396 348 387 b 458 334 403 364 431 350 b 524 274 485 318 507 298 b 549 181 540 250 549 219 b 484 30 549 113 527 63 b 318 -19 441 -3 386 -19 b 151 28 256 -19 200 -4 b 32 146 101 59 62 99 z "},"t":{"ha":376,"x_min":0,"x_max":0,"o":"m 114 861 l 263 861 l 263 639 l 369 639 l 369 507 l 263 507 l 263 0 l 114 0 l 114 507 l 7 507 l 7 639 l 114 639 z "},"u":{"ha":757,"x_min":0,"x_max":0,"o":"m 250 250 b 369 107 250 155 290 107 b 472 147 412 107 446 120 b 511 250 498 173 511 207 l 511 639 l 661 639 l 661 0 l 511 0 l 511 100 b 433 17 492 66 466 38 b 318 -14 400 -3 362 -14 b 154 49 248 -14 193 7 b 96 233 115 91 96 153 l 96 639 l 250 639 z "},"v":{"ha":660,"x_min":0,"x_max":0,"o":"m -1 639 l 164 639 l 331 226 l 497 639 l 661 639 l 331 -58 z "},"w":{"ha":989,"x_min":0,"x_max":0,"o":"m 0 639 l 164 639 l 313 260 l 489 688 l 676 257 l 826 639 l 989 639 l 692 -44 l 490 388 l 299 -44 z "},"x":{"ha":646,"x_min":0,"x_max":0,"o":"m 464 639 l 632 639 l 403 329 l 646 0 l 478 0 l 325 219 l 172 0 l 0 0 l 244 329 l 14 639 l 186 639 l 325 439 z "},"y":{"ha":656,"x_min":0,"x_max":0,"o":"m 661 639 l 244 -306 l 85 -306 l 253 75 l -6 639 l 167 639 l 335 224 l 500 639 z "},"z":{"ha":674,"x_min":0,"x_max":0,"o":"m 392 500 l 69 500 l 69 639 l 653 639 l 288 139 l 618 139 l 618 0 l 21 0 z "},"{":{"ha":481,"x_min":0,"x_max":0,"o":"m 296 889 l 296 681 b 291 573 296 646 294 610 b 265 471 288 535 279 501 b 196 403 251 440 228 418 b 265 335 228 389 251 366 b 291 233 279 304 288 270 b 296 125 294 195 296 159 l 296 -83 b 314 -131 296 -101 302 -117 b 363 -153 326 -146 342 -153 l 411 -153 l 411 -278 l 311 -278 b 230 -258 284 -278 257 -271 b 163 -194 203 -244 180 -223 b 136 -83 145 -166 136 -129 l 136 194 b 117 306 136 247 130 284 b 63 347 105 327 87 341 l 63 458 b 117 501 87 466 105 480 b 136 611 130 522 136 558 l 136 889 b 163 1001 136 935 145 972 b 230 1063 180 1029 203 1050 b 311 1083 257 1077 284 1083 l 411 1083 l 411 958 l 363 958 b 314 938 342 958 326 951 b 296 889 302 924 296 907 z "},"|":{"ha":424,"x_min":0,"x_max":0,"o":"m 139 1090 l 286 1090 l 286 -299 l 139 -299 z "},"}":{"ha":481,"x_min":0,"x_max":0,"o":"m 194 -83 l 194 125 b 199 233 194 159 196 195 b 225 335 203 270 211 304 b 294 403 239 366 262 389 b 225 471 262 418 239 440 b 199 573 211 501 203 535 b 194 681 196 610 194 646 l 194 889 b 177 938 194 907 189 924 b 128 958 166 951 149 958 l 79 958 l 79 1083 l 179 1083 b 261 1063 207 1083 234 1077 b 328 1001 288 1050 310 1029 b 354 889 345 972 354 935 l 354 611 b 373 501 354 558 360 522 b 428 458 385 480 404 466 l 428 347 b 373 306 404 341 385 327 b 354 194 360 284 354 247 l 354 -83 b 328 -194 354 -129 345 -166 b 261 -258 310 -223 288 -244 b 179 -278 234 -271 207 -278 l 79 -278 l 79 -153 l 128 -153 b 177 -131 149 -153 166 -146 b 194 -83 189 -117 194 -101 z "},"~":{"ha":799,"x_min":0,"x_max":0,"o":"m 206 238 l 78 244 b 74 260 77 249 76 254 b 72 278 73 265 72 271 b 81 334 72 296 75 315 b 111 389 87 353 97 371 b 177 444 130 413 152 431 b 269 464 203 457 233 464 b 355 447 299 464 328 458 b 442 397 382 436 411 419 b 542 351 483 367 517 351 b 594 414 577 351 594 372 b 586 456 594 428 592 442 l 719 449 b 724 431 721 443 723 437 b 725 410 725 424 725 417 b 719 354 725 392 723 374 b 692 297 715 335 706 316 b 550 228 656 251 609 228 b 474 245 525 228 500 234 b 386 296 448 257 419 274 b 268 343 344 327 304 343 b 216 324 245 343 228 337 b 199 272 204 311 199 294 b 201 254 199 266 199 260 b 206 238 202 249 204 243 z "}," ":{"ha":417,"x_min":0,"x_max":0,"o":""},"¡":{"ha":440,"x_min":0,"x_max":0,"o":"m 319 572 b 291 506 319 546 310 524 b 221 479 272 488 249 479 b 151 506 193 479 170 488 b 122 572 132 524 122 546 b 151 640 122 599 132 622 b 221 667 170 658 193 667 b 291 640 249 667 272 658 b 319 572 310 622 319 599 z m 314 -332 l 126 -332 l 161 346 l 279 346 z "},"¢":{"ha":806,"x_min":0,"x_max":0,"o":"m 360 803 l 485 803 l 481 651 b 582 627 517 648 550 640 b 657 581 613 615 638 599 l 657 414 b 576 491 640 444 613 469 b 449 524 539 513 497 524 b 348 497 412 524 378 515 b 276 425 318 480 294 456 b 249 319 258 394 249 359 b 276 213 249 279 258 243 b 348 141 294 182 318 158 b 449 115 378 124 412 115 b 576 149 497 115 539 126 b 657 225 613 171 640 196 l 657 58 b 582 11 638 39 613 23 b 481 -12 550 -1 517 -9 l 485 -156 l 360 -156 l 363 -7 b 224 53 311 3 264 23 b 128 167 183 84 151 121 b 94 319 106 212 94 263 b 128 472 94 376 106 427 b 224 585 151 518 183 555 b 363 646 264 616 311 636 z "},"£":{"ha":822,"x_min":0,"x_max":0,"o":"m 617 658 b 597 747 615 689 608 718 b 544 815 585 775 568 798 b 453 842 521 833 491 842 b 350 810 415 842 381 831 b 304 708 319 790 304 756 b 333 601 304 665 314 629 b 389 514 352 572 370 544 l 603 514 l 603 396 l 433 396 b 435 383 434 392 435 388 l 435 369 b 404 244 435 325 425 283 b 329 144 384 206 359 172 l 731 144 l 731 0 l 82 0 b 195 130 127 47 165 91 b 263 246 225 169 248 208 b 286 367 278 284 286 324 b 285 381 286 371 286 376 b 283 396 285 386 284 391 l 93 396 l 93 514 l 224 514 b 170 601 205 541 187 570 b 144 721 153 633 144 673 b 185 863 144 776 158 824 b 294 954 212 903 248 933 b 450 986 341 975 393 986 b 578 960 499 986 542 977 b 671 892 615 942 646 919 b 728 802 696 864 715 834 b 751 711 742 770 750 740 z "},"¤":{"ha":803,"x_min":0,"x_max":0,"o":"m 215 417 b 269 277 215 360 233 314 b 403 222 304 241 349 222 b 537 277 457 222 502 241 b 589 417 572 314 589 360 b 537 557 589 474 572 521 b 403 611 502 593 457 611 b 269 557 349 611 304 593 b 215 417 233 521 215 474 z m 119 58 l 44 135 l 132 221 b 88 311 113 248 99 278 b 72 417 78 344 72 380 b 88 523 72 455 78 490 b 132 613 99 556 113 586 l 44 699 l 119 775 l 206 689 b 297 734 232 708 263 723 b 403 750 330 745 366 750 b 599 690 478 750 543 730 l 683 775 l 758 699 l 674 614 b 717 524 692 587 707 557 b 733 417 728 490 733 455 b 717 310 733 380 728 344 b 674 219 707 277 692 246 l 758 135 l 683 58 l 599 143 b 403 83 543 103 478 83 b 297 99 366 83 330 89 b 206 144 263 110 232 125 z "},"¥":{"ha":854,"x_min":0,"x_max":0,"o":"m 654 972 l 840 972 l 567 507 l 786 507 l 786 389 l 513 389 l 513 299 l 786 299 l 786 181 l 513 181 l 513 0 l 344 0 l 344 181 l 63 181 l 63 299 l 344 299 l 344 389 l 63 389 l 63 507 l 288 507 l 14 972 l 201 972 l 428 556 z "},"¦":{"ha":424,"x_min":0,"x_max":0,"o":"m 286 354 l 286 7 l 139 7 l 139 354 z m 139 965 l 286 965 l 286 618 l 139 618 z "},"§":{"ha":660,"x_min":0,"x_max":0,"o":"m 151 231 b 231 143 170 194 196 164 b 333 111 265 122 299 111 b 431 178 398 111 431 133 b 389 245 431 207 417 230 b 290 288 361 260 328 275 b 199 330 259 299 228 313 b 125 394 169 347 144 368 b 96 485 106 419 96 450 b 130 585 96 525 107 558 b 224 647 153 613 184 633 b 140 710 192 663 164 684 b 104 813 116 736 104 770 b 138 912 104 851 116 884 b 224 974 161 939 190 960 b 332 994 259 988 295 994 b 435 978 367 994 401 989 b 522 936 468 968 497 954 b 574 876 546 919 563 899 l 481 788 b 415 842 465 812 443 830 b 338 861 388 855 362 861 b 275 848 312 861 291 857 b 251 807 259 839 251 825 b 274 768 251 792 259 779 b 330 738 288 757 307 747 b 400 710 353 728 376 719 b 528 638 449 692 492 668 b 582 518 564 607 582 567 b 549 410 582 474 571 438 b 464 350 528 383 499 363 b 549 281 497 331 526 309 b 585 181 573 254 585 220 b 551 65 585 133 573 95 b 460 0 528 36 498 14 b 333 -21 422 -14 380 -21 b 159 26 268 -21 209 -5 b 56 144 109 58 74 97 z m 317 607 b 262 568 294 596 275 583 b 242 513 248 553 242 535 b 260 453 242 488 248 469 b 309 417 273 438 289 426 b 369 392 329 407 349 399 b 418 435 390 402 406 416 b 436 494 430 454 436 474 b 400 565 436 525 424 548 b 317 607 376 581 348 595 z "},"¨":{"ha":675,"x_min":0,"x_max":0,"o":"m 92 901 b 119 966 92 927 101 949 b 186 992 138 983 160 992 b 254 966 213 992 236 983 b 282 901 273 949 282 927 b 254 836 282 875 273 854 b 186 810 236 819 213 810 b 119 836 160 810 138 819 b 92 901 101 854 92 875 z m 394 901 b 422 966 394 927 404 949 b 489 992 441 983 463 992 b 556 966 516 992 538 983 b 583 901 574 949 583 927 b 556 836 583 875 574 854 b 489 810 538 819 516 810 b 422 836 463 810 441 819 b 394 901 404 854 394 875 z "},"©":{"ha":1111,"x_min":0,"x_max":0,"o":"m 56 486 b 94 686 56 558 68 625 b 199 845 119 747 154 800 b 358 949 244 890 297 925 b 556 986 419 974 485 986 b 753 949 627 986 693 974 b 912 845 814 925 867 890 b 1017 686 957 800 992 747 b 1056 486 1043 625 1056 558 b 1017 286 1056 414 1043 347 b 912 127 992 225 957 172 b 753 23 867 82 814 47 b 556 -14 693 -2 627 -14 b 358 23 485 -14 419 -2 b 199 127 297 47 244 82 b 94 286 154 172 119 225 b 56 486 68 347 56 414 z m 132 486 b 188 265 132 404 150 330 b 340 112 225 200 275 149 b 556 56 404 74 476 56 b 772 112 636 56 708 74 b 924 265 836 149 887 200 b 979 486 961 330 979 404 b 924 707 979 569 961 642 b 772 860 887 772 836 823 b 556 917 708 898 636 917 b 340 860 476 917 404 898 b 188 707 275 823 225 772 b 132 486 150 642 132 569 z m 360 486 b 417 337 360 424 379 374 b 560 281 456 299 503 281 b 667 304 600 281 636 288 b 742 363 697 320 722 339 l 742 246 b 663 199 719 225 692 210 b 556 183 634 189 598 183 b 401 222 498 183 447 196 b 292 330 355 248 319 284 b 253 486 266 376 253 428 b 292 643 253 545 266 598 b 401 750 319 688 355 724 b 556 789 447 776 498 789 b 663 773 598 789 634 784 b 742 726 692 762 719 747 l 742 610 b 667 669 722 634 697 653 b 560 692 636 684 600 692 b 417 636 503 692 456 673 b 360 486 379 599 360 549 z "},"ª":{"ha":349,"x_min":0,"x_max":0,"o":"m 86 886 l 56 942 b 112 967 70 950 89 958 b 189 979 134 975 160 979 b 284 953 228 979 259 971 b 321 879 309 936 321 912 l 321 639 l 247 639 l 247 685 b 139 632 227 650 191 632 b 60 659 108 632 82 641 b 26 736 38 677 26 703 b 68 815 26 769 40 795 b 164 846 96 836 128 846 b 213 840 182 846 199 844 b 247 825 226 835 238 831 l 247 868 b 229 904 247 884 241 896 b 185 917 217 913 202 917 b 124 906 162 917 141 913 b 86 886 106 898 94 892 z m 103 738 b 117 703 103 724 107 712 b 163 689 126 694 141 689 b 221 706 184 689 203 695 b 247 765 238 718 247 738 l 247 781 b 215 794 237 786 226 791 b 175 799 203 797 190 799 b 123 781 154 799 136 793 b 103 738 109 769 103 754 z "},"«":{"ha":725,"x_min":0,"x_max":0,"o":"m 190 360 l 400 90 l 306 17 l 49 354 l 306 692 l 400 618 z m 438 360 l 646 90 l 553 17 l 294 354 l 553 692 l 646 618 z "},"¬":{"ha":878,"x_min":0,"x_max":0,"o":"m 90 401 l 90 536 l 788 536 l 788 243 l 667 243 l 667 401 z "},"­":{"ha":292,"x_min":0,"x_max":0,"o":"m 7 278 l 7 382 l 285 382 l 285 278 z "},"®":{"ha":1111,"x_min":0,"x_max":0,"o":"m 56 486 b 94 686 56 558 68 625 b 199 845 119 747 154 800 b 358 949 244 890 297 925 b 556 986 419 974 485 986 b 753 949 627 986 693 974 b 912 845 814 925 867 890 b 1017 686 957 800 992 747 b 1056 486 1043 625 1056 558 b 1017 286 1056 414 1043 347 b 912 127 992 225 957 172 b 753 23 867 82 814 47 b 556 -14 693 -2 627 -14 b 358 23 485 -14 419 -2 b 199 127 297 47 244 82 b 94 286 154 172 119 225 b 56 486 68 347 56 414 z m 132 486 b 188 265 132 404 150 330 b 340 112 225 200 275 149 b 556 56 404 74 476 56 b 772 112 636 56 708 74 b 924 265 836 149 887 200 b 979 486 961 330 979 404 b 924 707 979 569 961 642 b 772 860 887 772 836 823 b 556 917 708 898 636 917 b 340 860 476 917 404 898 b 188 707 275 823 225 772 b 132 486 150 642 132 569 z m 468 433 l 468 208 l 369 208 l 369 792 l 428 792 l 468 792 l 550 792 b 703 742 614 792 665 775 b 760 614 741 709 760 667 b 724 506 760 571 748 535 b 625 443 700 476 667 455 l 790 208 l 672 208 l 529 433 z m 468 514 l 544 514 b 627 539 579 514 606 522 b 658 611 648 556 658 580 b 627 683 658 643 648 666 b 544 707 606 699 579 707 l 468 706 z "},"¯":{"ha":719,"x_min":0,"x_max":0,"o":"m 111 818 l 111 953 l 610 953 l 610 818 z "},"°":{"ha":396,"x_min":0,"x_max":0,"o":"m 100 832 b 128 759 100 802 109 778 b 197 731 146 740 169 731 b 267 759 225 731 248 740 b 296 832 286 778 296 802 b 267 905 296 862 286 886 b 197 933 248 924 225 933 b 128 905 169 933 146 924 b 100 832 109 886 100 862 z m 26 832 b 75 953 26 881 43 921 b 197 1000 107 984 148 1000 b 321 953 246 1000 288 984 b 371 832 354 921 371 881 b 321 711 371 783 354 743 b 197 664 288 680 246 664 b 75 711 148 664 107 680 b 26 832 43 743 26 783 z "},"±":{"ha":864,"x_min":0,"x_max":0,"o":"m 354 861 l 511 861 l 511 614 l 775 614 l 775 472 l 511 472 l 511 225 l 354 225 l 354 472 l 90 472 l 90 614 l 354 614 z m 90 3 l 90 142 l 775 142 l 775 3 z "},"²":{"ha":515,"x_min":0,"x_max":0,"o":"m 35 392 l 304 676 b 353 740 325 699 342 720 b 371 806 365 761 371 782 b 348 869 371 829 363 850 b 276 897 333 888 309 897 b 195 863 243 897 216 886 b 164 769 174 839 164 808 l 67 769 b 122 924 67 831 85 883 b 278 986 159 966 211 986 b 388 958 323 986 360 977 b 451 888 416 939 438 915 b 472 804 465 860 472 832 b 450 719 472 774 465 745 b 392 644 435 692 416 668 l 226 483 l 479 483 l 479 392 z "},"³":{"ha":463,"x_min":0,"x_max":0,"o":"m 232 378 b 125 402 191 378 156 386 b 55 467 94 418 71 440 b 31 556 39 495 31 524 l 131 556 b 160 488 131 527 141 504 b 235 464 180 472 205 464 b 306 488 264 464 288 472 b 333 556 324 504 333 527 b 298 628 333 587 322 611 b 203 653 274 644 243 653 l 203 675 l 203 710 l 203 728 b 286 755 238 728 266 737 b 317 819 306 773 317 794 b 297 877 317 844 310 863 b 238 899 284 891 264 899 b 174 876 213 899 191 891 b 149 817 157 860 149 841 l 56 817 b 106 935 56 865 72 904 b 238 982 140 966 184 982 b 369 935 294 982 338 966 b 417 824 401 903 417 866 b 389 747 417 795 407 769 b 314 694 370 725 345 707 b 400 641 349 683 378 666 b 433 544 422 616 433 584 b 378 424 433 494 415 454 b 232 378 341 393 292 378 z "},"´":{"ha":521,"x_min":0,"x_max":0,"o":"m 428 914 l 178 706 l 92 753 l 300 975 z "},"µ":{"ha":757,"x_min":0,"x_max":0,"o":"m 250 250 b 369 107 250 155 290 107 b 472 147 412 107 446 120 b 511 250 498 173 511 207 l 511 639 l 661 639 l 661 0 l 511 0 l 511 89 b 431 14 491 57 464 32 b 318 -14 397 -5 360 -14 b 243 -4 288 -14 263 -11 l 243 -444 l 96 -444 l 96 233 l 96 639 l 243 639 l 250 639 z "},"¶":{"ha":854,"x_min":0,"x_max":0,"o":"m 400 375 b 242 410 343 375 290 387 b 126 511 194 433 155 467 b 83 674 98 556 83 610 b 126 837 83 738 98 793 b 242 938 155 881 194 914 b 400 972 290 961 343 972 l 532 972 l 639 972 l 694 972 l 772 972 l 772 -306 l 639 -306 l 639 867 l 532 867 l 532 -306 l 400 -306 z "},"·":{"ha":429,"x_min":0,"x_max":0,"o":"m 117 349 b 144 417 117 375 126 398 b 214 446 163 436 186 446 b 284 417 242 446 265 436 b 313 349 303 398 313 375 b 284 281 313 323 303 300 b 214 251 265 261 242 251 b 144 281 186 251 163 261 b 117 349 126 300 117 323 z "},"¸":{"ha":510,"x_min":0,"x_max":0,"o":"m 265 89 l 378 88 l 276 -74 b 290 -72 281 -73 286 -72 l 304 -72 b 378 -101 329 -72 354 -82 b 415 -187 403 -120 415 -149 b 392 -264 415 -218 407 -244 b 331 -310 376 -284 356 -300 b 253 -326 306 -321 280 -326 b 172 -315 222 -326 195 -322 b 100 -272 149 -307 125 -293 l 153 -201 b 197 -228 169 -213 183 -222 b 242 -236 210 -233 225 -236 b 314 -183 290 -236 314 -219 b 294 -146 314 -166 307 -153 b 239 -135 280 -138 262 -135 b 201 -139 232 -135 220 -136 b 146 -158 183 -142 164 -148 z "},"¹":{"ha":660,"x_min":0,"x_max":0,"o":"m 200 828 l 200 921 l 433 974 l 433 381 l 336 381 l 336 865 z "},"º":{"ha":386,"x_min":0,"x_max":0,"o":"m 103 806 b 131 733 103 776 112 752 b 199 706 149 715 172 706 b 267 733 225 706 248 715 b 294 806 285 752 294 776 b 267 878 294 835 285 859 b 199 906 248 896 225 906 b 131 878 172 906 149 896 b 103 806 112 859 103 835 z m 28 806 b 76 926 28 855 44 895 b 199 972 109 957 150 972 b 322 926 248 972 289 957 b 372 806 356 895 372 855 b 322 685 372 756 356 716 b 199 639 289 654 248 639 b 76 685 150 639 109 654 b 28 806 44 716 28 756 z "},"»":{"ha":725,"x_min":0,"x_max":0,"o":"m 535 349 l 326 618 l 419 692 l 678 354 l 419 17 l 326 90 z m 289 349 l 81 618 l 174 692 l 431 354 l 174 17 l 81 90 z "},"¼":{"ha":1085,"x_min":0,"x_max":0,"o":"m 39 828 l 39 921 l 271 974 l 271 381 l 174 381 l 174 865 z m 865 972 l 972 972 l 250 0 l 143 0 z m 947 111 l 947 0 l 846 0 l 846 111 l 558 111 l 888 583 l 947 583 l 947 197 l 1039 197 l 1039 111 z m 853 189 l 853 408 l 701 189 z "},"½":{"ha":1179,"x_min":0,"x_max":0,"o":"m 692 3 l 961 288 b 1010 351 982 310 999 331 b 1028 417 1022 372 1028 394 b 1005 480 1028 440 1020 461 b 933 508 990 499 966 508 b 852 474 900 508 873 497 b 821 381 831 450 821 419 l 722 381 b 778 535 722 443 741 494 b 935 597 816 577 868 597 b 1045 569 980 597 1017 588 b 1108 499 1073 550 1094 526 b 1129 415 1122 471 1129 443 b 1107 330 1129 385 1122 356 b 1049 256 1092 303 1073 279 l 883 94 l 1136 94 l 1136 3 z m 39 828 l 39 921 l 271 974 l 271 381 l 174 381 l 174 865 z m 865 972 l 972 972 l 250 0 l 143 0 z "},"¾":{"ha":1171,"x_min":0,"x_max":0,"o":"m 242 378 b 135 402 201 378 165 386 b 64 467 104 418 81 440 b 39 556 47 495 39 524 l 139 556 b 169 488 139 527 149 504 b 243 464 189 472 213 464 b 315 488 273 464 297 472 b 342 556 333 504 342 527 b 306 628 342 587 330 611 b 211 653 283 644 251 653 l 211 675 l 211 710 l 211 728 b 294 755 246 728 274 737 b 325 819 315 773 325 794 b 306 877 325 844 319 863 b 246 899 293 891 273 899 b 183 876 221 899 200 891 b 157 817 166 860 157 841 l 64 817 b 115 935 64 865 81 904 b 246 982 148 966 192 982 b 378 935 302 982 346 966 b 425 824 409 903 425 866 b 397 747 425 795 416 769 b 322 694 379 725 354 707 b 408 641 357 683 386 666 b 442 544 431 616 442 584 b 387 424 442 494 423 454 b 242 378 350 393 302 378 z m 957 972 l 1064 972 l 342 0 l 235 0 z m 1035 111 l 1035 0 l 933 0 l 933 111 l 646 111 l 975 583 l 1035 583 l 1035 197 l 1126 197 l 1126 111 z m 940 189 l 940 408 l 789 189 z "},"¿":{"ha":813,"x_min":0,"x_max":0,"o":"m 539 906 b 511 841 539 881 530 859 b 442 814 493 823 469 814 b 372 841 414 814 391 823 b 343 906 353 859 343 881 b 372 971 343 931 353 952 b 442 999 391 989 414 999 b 511 971 469 999 493 989 b 539 906 530 952 539 931 z m 232 278 b 282 157 232 226 249 186 b 417 114 315 128 360 114 b 537 146 461 114 501 125 b 625 232 572 167 602 196 l 736 150 b 602 26 697 98 653 57 b 403 -19 552 -4 485 -19 b 241 19 344 -19 290 -7 b 124 124 192 44 153 79 b 81 278 95 168 81 219 b 123 424 81 332 95 381 b 233 526 151 466 188 500 b 375 572 278 552 325 568 l 383 719 l 503 719 l 531 474 l 490 474 b 349 444 435 474 388 464 b 262 369 311 424 282 399 b 232 278 242 339 232 308 z "},"À":{"ha":958,"x_min":0,"x_max":0,"o":"m 281 1318 l 408 1381 l 617 1158 l 531 1110 z m 300 250 l 189 0 l 3 0 l 479 1026 l 956 0 l 769 0 l 658 250 z m 347 389 l 611 389 l 479 697 z "},"Á":{"ha":958,"x_min":0,"x_max":0,"o":"m 675 1318 l 425 1110 l 340 1158 l 549 1381 z m 300 250 l 189 0 l 3 0 l 479 1026 l 956 0 l 769 0 l 658 250 z m 347 389 l 611 389 l 479 697 z "},"Â":{"ha":958,"x_min":0,"x_max":0,"o":"m 479 1194 l 336 1068 l 236 1140 l 479 1335 l 722 1140 l 622 1068 z m 300 250 l 189 0 l 3 0 l 479 1026 l 956 0 l 769 0 l 658 250 z m 347 389 l 611 389 l 479 697 z "},"Ã":{"ha":958,"x_min":0,"x_max":0,"o":"m 233 1156 b 288 1242 241 1190 259 1219 b 386 1276 317 1265 350 1276 b 442 1266 409 1276 428 1273 b 481 1242 457 1259 470 1251 b 517 1219 493 1234 505 1226 b 565 1208 530 1212 546 1208 b 608 1226 581 1208 595 1214 b 647 1278 620 1238 633 1256 l 725 1201 b 664 1128 714 1175 694 1151 b 563 1093 634 1105 600 1093 b 497 1110 538 1093 516 1099 b 444 1144 479 1122 461 1133 b 385 1161 427 1156 407 1161 b 342 1148 366 1161 352 1157 b 322 1118 333 1139 326 1129 b 317 1090 319 1107 317 1098 z m 300 250 l 189 0 l 3 0 l 479 1026 l 956 0 l 769 0 l 658 250 z m 347 389 l 611 389 l 479 697 z "},"Ä":{"ha":958,"x_min":0,"x_max":0,"o":"m 219 1172 b 247 1238 219 1198 229 1220 b 314 1264 266 1255 288 1264 b 381 1238 341 1264 363 1255 b 408 1172 399 1220 408 1198 b 381 1108 408 1146 399 1125 b 314 1082 363 1091 341 1082 b 247 1108 288 1082 266 1091 b 219 1172 229 1125 219 1146 z m 546 1169 b 574 1235 546 1195 555 1217 b 640 1261 592 1252 614 1261 b 708 1235 667 1261 690 1252 b 736 1169 727 1217 736 1195 b 708 1104 736 1144 727 1122 b 640 1078 690 1087 667 1078 b 574 1104 614 1078 592 1087 b 546 1169 555 1122 546 1144 z m 300 250 l 189 0 l 3 0 l 479 1026 l 956 0 l 769 0 l 658 250 z m 347 389 l 611 389 l 479 697 z "},"Å":{"ha":958,"x_min":0,"x_max":0,"o":"m 411 1110 b 432 1058 411 1088 418 1070 b 479 1039 446 1045 462 1039 b 526 1058 497 1039 513 1045 b 547 1110 540 1070 547 1088 b 526 1162 547 1132 540 1149 b 479 1181 513 1174 497 1181 b 432 1162 462 1181 446 1174 b 411 1110 418 1149 411 1132 z m 325 1110 b 372 1217 325 1154 341 1190 b 479 1257 403 1244 438 1257 b 587 1217 520 1257 556 1244 b 633 1110 618 1190 633 1154 b 597 1013 633 1071 621 1039 b 508 965 573 988 544 972 l 956 0 l 769 0 l 658 250 l 300 250 l 189 0 l 3 0 l 450 965 b 362 1013 416 972 386 988 b 325 1110 337 1039 325 1071 z m 347 389 l 611 389 l 479 697 z "},"Æ":{"ha":1403,"x_min":0,"x_max":0,"o":"m 886 450 l 886 144 l 1306 144 l 1306 0 l 886 0 l 797 0 l 714 0 l 714 258 l 363 258 l 210 0 l 13 0 l 606 972 l 714 972 l 886 972 l 1306 972 l 1306 828 l 886 828 l 886 592 l 1278 592 l 1278 450 z m 714 849 l 454 411 l 714 411 z "},"Ç":{"ha":960,"x_min":0,"x_max":0,"o":"m 231 486 b 276 306 231 418 246 357 b 398 185 307 254 347 214 b 563 143 448 157 503 143 b 741 182 631 143 691 156 b 867 281 791 208 833 241 l 867 86 b 740 13 828 55 785 30 b 571 -17 694 -5 638 -15 l 526 -87 b 540 -85 531 -87 536 -86 b 554 -85 545 -85 550 -85 b 628 -114 579 -85 604 -94 b 665 -201 653 -133 665 -162 b 642 -278 665 -232 657 -257 b 581 -324 626 -298 606 -314 b 504 -340 557 -335 531 -340 b 422 -328 474 -340 446 -336 b 349 -286 398 -321 374 -306 l 403 -215 b 493 -249 431 -237 462 -249 b 564 -196 540 -249 564 -231 b 544 -159 564 -178 557 -166 b 489 -149 530 -152 512 -149 b 451 -153 482 -149 470 -150 b 394 -172 432 -156 413 -162 l 474 -11 b 256 74 392 1 320 29 b 107 247 193 119 143 177 b 53 486 71 318 53 397 b 91 690 53 560 66 628 b 198 849 116 751 152 804 b 358 952 244 893 297 928 b 557 989 419 977 486 989 b 735 963 628 989 688 980 b 867 886 783 945 827 919 l 867 692 b 741 790 833 731 791 764 b 563 829 691 816 631 829 b 398 787 503 829 448 815 b 276 667 347 759 307 719 b 231 486 246 616 231 556 z "},"È":{"ha":793,"x_min":0,"x_max":0,"o":"m 206 1285 l 332 1347 l 540 1125 l 456 1076 z m 269 450 l 269 144 l 700 144 l 700 0 l 269 0 l 210 0 l 108 0 l 108 972 l 210 972 l 269 972 l 700 972 l 700 828 l 269 828 l 269 592 l 672 592 l 672 450 z "},"É":{"ha":793,"x_min":0,"x_max":0,"o":"m 600 1285 l 350 1076 l 265 1125 l 474 1347 z m 269 450 l 269 144 l 700 144 l 700 0 l 269 0 l 210 0 l 108 0 l 108 972 l 210 972 l 269 972 l 700 972 l 700 828 l 269 828 l 269 592 l 672 592 l 672 450 z "},"Ê":{"ha":793,"x_min":0,"x_max":0,"o":"m 414 1211 l 261 1081 l 192 1136 l 414 1331 l 636 1136 l 567 1081 z m 269 450 l 269 144 l 700 144 l 700 0 l 269 0 l 210 0 l 108 0 l 108 972 l 210 972 l 269 972 l 700 972 l 700 828 l 269 828 l 269 592 l 672 592 l 672 450 z "},"Ë":{"ha":793,"x_min":0,"x_max":0,"o":"m 168 1185 b 197 1250 168 1211 178 1232 b 264 1276 216 1268 238 1276 b 331 1250 291 1276 313 1268 b 358 1185 349 1232 358 1211 b 331 1120 358 1159 349 1137 b 264 1094 313 1103 291 1094 b 197 1120 238 1094 216 1103 b 168 1185 178 1137 168 1159 z m 471 1185 b 499 1250 471 1211 480 1232 b 565 1276 517 1268 539 1276 b 633 1250 592 1276 615 1268 b 660 1185 651 1232 660 1211 b 633 1120 660 1159 651 1137 b 565 1094 615 1103 592 1094 b 499 1120 539 1094 517 1103 b 471 1185 480 1137 471 1159 z m 269 450 l 269 144 l 700 144 l 700 0 l 269 0 l 210 0 l 108 0 l 108 972 l 210 972 l 269 972 l 700 972 l 700 828 l 269 828 l 269 592 l 672 592 l 672 450 z "},"Ì":{"ha":382,"x_min":0,"x_max":0,"o":"m -11 1285 l 117 1347 l 325 1125 l 239 1076 z m 108 972 l 275 972 l 275 0 l 108 0 z "},"Í":{"ha":382,"x_min":0,"x_max":0,"o":"m 383 1285 l 133 1076 l 50 1125 l 258 1347 z m 108 972 l 275 972 l 275 0 l 108 0 z "},"Î":{"ha":382,"x_min":0,"x_max":0,"o":"m 186 1211 l 33 1081 l -36 1136 l 186 1331 l 408 1136 l 339 1081 z m 108 972 l 275 972 l 275 0 l 108 0 z "},"Ï":{"ha":382,"x_min":0,"x_max":0,"o":"m -54 1164 b -27 1229 -54 1190 -45 1212 b 39 1256 -9 1247 13 1256 b 108 1229 66 1256 89 1247 b 136 1164 127 1212 136 1190 b 108 1099 136 1138 127 1116 b 39 1072 89 1081 66 1072 b -27 1099 13 1072 -9 1081 b -54 1164 -45 1116 -54 1138 z m 247 1164 b 275 1229 247 1190 256 1212 b 342 1256 294 1247 316 1256 b 410 1229 369 1256 391 1247 b 438 1164 428 1212 438 1190 b 410 1099 438 1138 428 1116 b 342 1072 391 1081 369 1072 b 275 1099 316 1072 294 1081 b 247 1164 256 1116 247 1138 z m 108 972 l 275 972 l 275 0 l 108 0 z "},"Ð":{"ha":974,"x_min":0,"x_max":0,"o":"m 7 426 l 7 544 l 108 544 l 108 972 l 210 972 l 275 972 l 422 972 b 683 912 521 972 608 952 b 859 742 758 872 817 815 b 922 486 901 670 922 584 b 859 230 922 388 901 303 b 683 60 817 157 758 101 b 422 0 608 20 521 0 l 275 0 l 210 0 l 108 0 l 108 426 z m 275 154 l 418 154 b 590 192 482 154 539 167 b 709 303 640 217 680 254 b 753 486 738 352 753 413 b 709 669 753 559 738 620 b 590 781 680 719 640 756 b 418 818 539 806 482 818 l 275 818 l 275 544 l 451 544 l 451 426 l 275 426 z "},"Ñ":{"ha":1086,"x_min":0,"x_max":0,"o":"m 306 1169 b 360 1256 313 1204 331 1232 b 458 1290 390 1279 422 1290 b 515 1280 481 1290 500 1287 b 555 1256 530 1273 543 1265 b 591 1233 566 1247 578 1240 b 639 1222 603 1226 619 1222 b 682 1240 655 1222 669 1228 b 722 1292 695 1252 708 1269 l 800 1214 b 738 1140 789 1188 768 1163 b 636 1106 708 1117 674 1106 b 571 1123 611 1106 589 1111 b 517 1158 552 1134 534 1146 b 458 1175 500 1169 481 1175 b 415 1162 440 1175 425 1171 b 394 1132 405 1153 398 1143 b 389 1104 391 1121 389 1112 z m 818 972 l 979 972 l 979 -49 l 269 643 l 269 0 l 108 0 l 108 1021 l 818 328 z "},"Ò":{"ha":1114,"x_min":0,"x_max":0,"o":"m 375 1285 l 501 1347 l 710 1125 l 625 1076 z m 53 486 b 90 687 53 558 65 625 b 197 847 115 748 151 802 b 357 951 242 891 296 926 b 557 989 418 976 485 989 b 758 951 629 989 696 976 b 919 847 819 926 873 891 b 1025 687 965 802 1000 748 b 1063 486 1050 625 1063 558 b 1025 285 1063 414 1050 347 b 919 124 1000 224 965 170 b 759 17 874 78 821 43 b 557 -21 697 -8 630 -21 b 356 17 484 -21 417 -8 b 196 124 294 43 241 78 b 90 285 150 170 115 224 b 53 486 65 347 53 414 z m 226 486 b 269 308 226 419 241 360 b 386 185 297 255 336 214 b 557 140 436 155 493 140 b 728 185 622 140 679 155 b 845 308 778 214 817 255 b 888 486 873 360 888 419 b 845 665 888 553 873 612 b 728 788 817 717 778 758 b 557 832 679 817 622 832 b 386 788 493 832 436 817 b 269 665 336 758 297 717 b 226 486 241 612 226 553 z "},"Ó":{"ha":1114,"x_min":0,"x_max":0,"o":"m 749 1285 l 499 1076 l 414 1125 l 622 1347 z m 53 486 b 90 687 53 558 65 625 b 197 847 115 748 151 802 b 357 951 242 891 296 926 b 557 989 418 976 485 989 b 758 951 629 989 696 976 b 919 847 819 926 873 891 b 1025 687 965 802 1000 748 b 1063 486 1050 625 1063 558 b 1025 285 1063 414 1050 347 b 919 124 1000 224 965 170 b 759 17 874 78 821 43 b 557 -21 697 -8 630 -21 b 356 17 484 -21 417 -8 b 196 124 294 43 241 78 b 90 285 150 170 115 224 b 53 486 65 347 53 414 z m 226 486 b 269 308 226 419 241 360 b 386 185 297 255 336 214 b 557 140 436 155 493 140 b 728 185 622 140 679 155 b 845 308 778 214 817 255 b 888 486 873 360 888 419 b 845 665 888 553 873 612 b 728 788 817 717 778 758 b 557 832 679 817 622 832 b 386 788 493 832 436 817 b 269 665 336 758 297 717 b 226 486 241 612 226 553 z "},"Ô":{"ha":1114,"x_min":0,"x_max":0,"o":"m 563 1211 l 410 1081 l 340 1136 l 563 1331 l 785 1136 l 715 1081 z m 53 486 b 90 687 53 558 65 625 b 197 847 115 748 151 802 b 357 951 242 891 296 926 b 557 989 418 976 485 989 b 758 951 629 989 696 976 b 919 847 819 926 873 891 b 1025 687 965 802 1000 748 b 1063 486 1050 625 1063 558 b 1025 285 1063 414 1050 347 b 919 124 1000 224 965 170 b 759 17 874 78 821 43 b 557 -21 697 -8 630 -21 b 356 17 484 -21 417 -8 b 196 124 294 43 241 78 b 90 285 150 170 115 224 b 53 486 65 347 53 414 z m 226 486 b 269 308 226 419 241 360 b 386 185 297 255 336 214 b 557 140 436 155 493 140 b 728 185 622 140 679 155 b 845 308 778 214 817 255 b 888 486 873 360 888 419 b 845 665 888 553 873 612 b 728 788 817 717 778 758 b 557 832 679 817 622 832 b 386 788 493 832 436 817 b 269 665 336 758 297 717 b 226 486 241 612 226 553 z "},"Õ":{"ha":1114,"x_min":0,"x_max":0,"o":"m 331 1140 b 385 1223 338 1175 356 1202 b 475 1254 413 1244 444 1254 b 530 1244 497 1254 516 1251 b 567 1222 544 1238 557 1230 b 601 1199 578 1213 589 1205 b 647 1189 613 1192 629 1189 b 725 1256 671 1189 697 1211 l 789 1196 b 733 1126 778 1170 759 1147 b 642 1094 707 1105 677 1094 b 578 1111 617 1094 595 1100 b 528 1144 560 1122 544 1133 b 472 1160 512 1154 494 1160 b 429 1147 454 1160 439 1155 b 408 1117 419 1138 412 1128 b 403 1089 405 1106 403 1096 z m 53 486 b 90 687 53 558 65 625 b 197 847 115 748 151 802 b 357 951 242 891 296 926 b 557 989 418 976 485 989 b 758 951 629 989 696 976 b 919 847 819 926 873 891 b 1025 687 965 802 1000 748 b 1063 486 1050 625 1063 558 b 1025 285 1063 414 1050 347 b 919 124 1000 224 965 170 b 759 17 874 78 821 43 b 557 -21 697 -8 630 -21 b 356 17 484 -21 417 -8 b 196 124 294 43 241 78 b 90 285 150 170 115 224 b 53 486 65 347 53 414 z m 226 486 b 269 308 226 419 241 360 b 386 185 297 255 336 214 b 557 140 436 155 493 140 b 728 185 622 140 679 155 b 845 308 778 214 817 255 b 888 486 873 360 888 419 b 845 665 888 553 873 612 b 728 788 817 717 778 758 b 557 832 679 817 622 832 b 386 788 493 832 436 817 b 269 665 336 758 297 717 b 226 486 241 612 226 553 z "},"Ö":{"ha":1114,"x_min":0,"x_max":0,"o":"m 311 1164 b 339 1229 311 1190 320 1212 b 406 1256 357 1247 380 1256 b 474 1229 432 1256 455 1247 b 501 1164 492 1212 501 1190 b 474 1099 501 1138 492 1116 b 406 1072 455 1081 432 1072 b 339 1099 380 1072 357 1081 b 311 1164 320 1116 311 1138 z m 614 1164 b 642 1229 614 1190 623 1212 b 708 1256 660 1247 682 1256 b 776 1229 735 1256 758 1247 b 803 1164 794 1212 803 1190 b 776 1099 803 1138 794 1116 b 708 1072 758 1081 735 1072 b 642 1099 682 1072 660 1081 b 614 1164 623 1116 614 1138 z m 53 486 b 90 687 53 558 65 625 b 197 847 115 748 151 802 b 357 951 242 891 296 926 b 557 989 418 976 485 989 b 758 951 629 989 696 976 b 919 847 819 926 873 891 b 1025 687 965 802 1000 748 b 1063 486 1050 625 1063 558 b 1025 285 1063 414 1050 347 b 919 124 1000 224 965 170 b 759 17 874 78 821 43 b 557 -21 697 -8 630 -21 b 356 17 484 -21 417 -8 b 196 124 294 43 241 78 b 90 285 150 170 115 224 b 53 486 65 347 53 414 z m 226 486 b 269 308 226 419 241 360 b 386 185 297 255 336 214 b 557 140 436 155 493 140 b 728 185 622 140 679 155 b 845 308 778 214 817 255 b 888 486 873 360 888 419 b 845 665 888 553 873 612 b 728 788 817 717 778 758 b 557 832 679 817 622 832 b 386 788 493 832 436 817 b 269 665 336 758 297 717 b 226 486 241 612 226 553 z "},"×":{"ha":828,"x_min":0,"x_max":0,"o":"m 178 19 l 81 119 l 322 354 l 81 589 l 178 689 l 414 446 l 650 689 l 747 589 l 506 354 l 747 119 l 650 19 l 414 263 z "},"Ø":{"ha":1097,"x_min":0,"x_max":0,"o":"m 961 1044 l 1050 983 l 926 839 b 1027 682 970 794 1003 742 b 1063 486 1051 622 1063 556 b 1025 285 1063 414 1050 347 b 919 124 1000 224 965 170 b 758 17 873 78 819 43 b 557 -21 696 -8 629 -21 b 401 1 501 -21 449 -13 b 267 65 352 16 307 38 l 149 -72 l 61 -11 l 186 135 b 88 292 144 180 112 233 b 53 486 65 352 53 417 b 90 687 53 558 65 625 b 196 847 115 748 150 802 b 356 951 241 891 295 926 b 557 989 418 976 485 989 b 712 968 612 989 663 982 b 844 907 760 954 805 934 z m 817 710 l 374 192 b 557 140 426 157 488 140 b 728 185 622 140 679 155 b 845 307 778 214 817 255 b 888 486 873 359 888 419 b 817 710 888 575 864 650 z m 738 782 b 653 819 712 798 684 810 b 557 832 623 828 591 832 b 386 788 493 832 436 817 b 269 665 336 758 297 717 b 226 486 241 613 226 554 b 296 264 226 399 250 325 z "},"Ù":{"ha":911,"x_min":0,"x_max":0,"o":"m 258 1281 l 385 1344 l 593 1122 l 508 1072 z m 100 972 l 265 972 l 265 326 b 314 182 265 267 281 219 b 456 126 346 145 394 126 b 598 182 519 126 566 145 b 646 326 630 219 646 267 l 646 972 l 811 972 l 811 319 b 766 135 811 248 796 187 b 640 17 736 84 694 44 b 456 -25 587 -11 525 -25 b 272 17 386 -25 325 -11 b 146 135 218 44 176 84 b 100 319 115 187 100 248 z "},"Ú":{"ha":911,"x_min":0,"x_max":0,"o":"m 653 1281 l 403 1072 l 318 1122 l 526 1344 z m 100 972 l 265 972 l 265 326 b 314 182 265 267 281 219 b 456 126 346 145 394 126 b 598 182 519 126 566 145 b 646 326 630 219 646 267 l 646 972 l 811 972 l 811 319 b 766 135 811 248 796 187 b 640 17 736 84 694 44 b 456 -25 587 -11 525 -25 b 272 17 386 -25 325 -11 b 146 135 218 44 176 84 b 100 319 115 187 100 248 z "},"Û":{"ha":911,"x_min":0,"x_max":0,"o":"m 456 1200 l 314 1072 l 213 1146 l 456 1340 l 699 1146 l 597 1072 z m 100 972 l 265 972 l 265 326 b 314 182 265 267 281 219 b 456 126 346 145 394 126 b 598 182 519 126 566 145 b 646 326 630 219 646 267 l 646 972 l 811 972 l 811 319 b 766 135 811 248 796 187 b 640 17 736 84 694 44 b 456 -25 587 -11 525 -25 b 272 17 386 -25 325 -11 b 146 135 218 44 176 84 b 100 319 115 187 100 248 z "},"Ü":{"ha":911,"x_min":0,"x_max":0,"o":"m 200 1164 b 228 1229 200 1190 209 1212 b 294 1256 246 1247 269 1256 b 362 1229 321 1256 344 1247 b 389 1164 380 1212 389 1190 b 362 1099 389 1138 380 1116 b 294 1072 344 1081 321 1072 b 228 1099 269 1072 246 1081 b 200 1164 209 1116 200 1138 z m 522 1164 b 550 1229 522 1190 531 1212 b 617 1256 569 1247 591 1256 b 684 1229 644 1256 666 1247 b 711 1164 702 1212 711 1190 b 684 1099 711 1138 702 1116 b 617 1072 666 1081 644 1072 b 550 1099 591 1072 569 1081 b 522 1164 531 1116 522 1138 z m 100 972 l 265 972 l 265 326 b 314 182 265 267 281 219 b 456 126 346 145 394 126 b 598 182 519 126 566 145 b 646 326 630 219 646 267 l 646 972 l 811 972 l 811 319 b 766 135 811 248 796 187 b 640 17 736 84 694 44 b 456 -25 587 -11 525 -25 b 272 17 386 -25 325 -11 b 146 135 218 44 176 84 b 100 319 115 187 100 248 z "},"Ý":{"ha":833,"x_min":0,"x_max":0,"o":"m 643 972 l 831 972 l 500 410 l 500 0 l 333 0 l 333 408 l 3 972 l 192 972 l 417 556 z m 614 1281 l 364 1072 l 281 1122 l 489 1344 z "},"Þ":{"ha":799,"x_min":0,"x_max":0,"o":"m 111 972 l 264 972 l 264 789 l 397 789 b 581 752 468 789 529 777 b 703 648 634 728 674 693 b 747 488 733 603 747 550 b 703 327 747 425 733 372 b 581 224 674 282 634 248 b 397 188 529 200 468 188 l 264 188 l 264 0 l 111 0 z m 264 328 l 397 328 b 540 367 456 328 504 341 b 593 488 575 394 593 434 b 540 608 593 542 575 582 b 397 647 504 634 456 647 l 264 647 z "},"ß":{"ha":803,"x_min":0,"x_max":0,"o":"m 383 125 b 489 151 420 125 456 134 b 570 224 522 168 549 192 b 601 336 591 255 601 293 b 572 436 601 371 592 405 b 489 513 553 468 525 493 b 358 542 453 532 409 542 l 358 583 l 358 646 l 358 681 b 469 701 405 681 441 687 b 528 753 496 714 516 732 b 546 821 540 775 546 798 b 509 922 546 862 534 895 b 390 961 484 948 445 961 b 288 929 350 961 316 950 b 244 831 259 908 244 875 l 244 0 l 97 0 l 97 842 b 138 979 97 894 111 940 b 246 1069 166 1018 201 1048 b 390 1100 290 1090 338 1100 b 617 1028 489 1100 565 1076 b 694 842 669 980 694 918 b 540 613 694 728 643 651 b 694 496 604 587 656 548 b 753 313 733 444 753 383 b 703 139 753 246 736 188 b 571 26 671 90 626 52 b 383 -14 515 -1 453 -14 z "},"à":{"ha":706,"x_min":0,"x_max":0,"o":"m 131 946 l 258 1008 l 467 786 l 381 738 z m 158 469 l 97 578 b 208 629 127 595 164 613 b 360 654 252 646 302 654 b 551 603 438 654 501 637 b 626 456 601 569 626 519 l 626 0 l 479 0 l 479 92 b 393 13 461 57 432 31 b 263 -14 354 -5 311 -14 b 100 36 195 -14 141 3 b 39 175 59 69 39 116 b 117 338 39 246 65 300 b 313 393 169 375 234 393 b 408 380 348 393 379 389 b 479 350 436 371 460 361 l 479 439 b 442 508 479 469 467 491 b 353 532 418 524 388 532 b 233 508 307 532 268 524 b 158 469 199 493 174 480 z m 190 189 b 222 122 190 159 201 137 b 308 100 242 107 271 100 b 431 134 357 100 398 111 b 479 253 463 157 479 196 l 479 265 b 335 297 438 287 389 297 b 226 268 287 297 250 288 b 190 189 202 249 190 222 z "},"á":{"ha":706,"x_min":0,"x_max":0,"o":"m 589 946 l 339 738 l 254 786 l 463 1008 z m 158 469 l 97 578 b 208 629 127 595 164 613 b 360 654 252 646 302 654 b 551 603 438 654 501 637 b 626 456 601 569 626 519 l 626 0 l 479 0 l 479 92 b 393 13 461 57 432 31 b 263 -14 354 -5 311 -14 b 100 36 195 -14 141 3 b 39 175 59 69 39 116 b 117 338 39 246 65 300 b 313 393 169 375 234 393 b 408 380 348 393 379 389 b 479 350 436 371 460 361 l 479 439 b 442 508 479 469 467 491 b 353 532 418 524 388 532 b 233 508 307 532 268 524 b 158 469 199 493 174 480 z m 190 189 b 222 122 190 159 201 137 b 308 100 242 107 271 100 b 431 134 357 100 398 111 b 479 253 463 157 479 196 l 479 265 b 335 297 438 287 389 297 b 226 268 287 297 250 288 b 190 189 202 249 190 222 z "},"â":{"ha":706,"x_min":0,"x_max":0,"o":"m 360 864 l 218 738 l 117 811 l 360 1006 l 603 811 l 503 738 z m 158 469 l 97 578 b 208 629 127 595 164 613 b 360 654 252 646 302 654 b 551 603 438 654 501 637 b 626 456 601 569 626 519 l 626 0 l 479 0 l 479 92 b 393 13 461 57 432 31 b 263 -14 354 -5 311 -14 b 100 36 195 -14 141 3 b 39 175 59 69 39 116 b 117 338 39 246 65 300 b 313 393 169 375 234 393 b 408 380 348 393 379 389 b 479 350 436 371 460 361 l 479 439 b 442 508 479 469 467 491 b 353 532 418 524 388 532 b 233 508 307 532 268 524 b 158 469 199 493 174 480 z m 190 189 b 222 122 190 159 201 137 b 308 100 242 107 271 100 b 431 134 357 100 398 111 b 479 253 463 157 479 196 l 479 265 b 335 297 438 287 389 297 b 226 268 287 297 250 288 b 190 189 202 249 190 222 z "},"ã":{"ha":706,"x_min":0,"x_max":0,"o":"m 114 806 b 169 892 121 840 140 869 b 267 926 198 915 231 926 b 323 916 290 926 309 923 b 362 892 337 909 350 901 b 398 869 373 884 385 876 b 446 858 410 862 426 858 b 489 876 462 858 476 864 b 529 928 502 888 515 906 l 607 850 b 546 776 596 824 575 800 b 444 742 516 753 482 742 b 378 759 419 742 397 747 b 324 794 359 771 341 782 b 265 811 307 805 288 811 b 223 798 247 811 233 807 b 203 768 213 789 206 779 b 197 740 199 757 197 748 z m 158 469 l 97 578 b 208 629 127 595 164 613 b 360 654 252 646 302 654 b 551 603 438 654 501 637 b 626 456 601 569 626 519 l 626 0 l 479 0 l 479 92 b 393 13 461 57 432 31 b 263 -14 354 -5 311 -14 b 100 36 195 -14 141 3 b 39 175 59 69 39 116 b 117 338 39 246 65 300 b 313 393 169 375 234 393 b 408 380 348 393 379 389 b 479 350 436 371 460 361 l 479 439 b 442 508 479 469 467 491 b 353 532 418 524 388 532 b 233 508 307 532 268 524 b 158 469 199 493 174 480 z m 190 189 b 222 122 190 159 201 137 b 308 100 242 107 271 100 b 431 134 357 100 398 111 b 479 253 463 157 479 196 l 479 265 b 335 297 438 287 389 297 b 226 268 287 297 250 288 b 190 189 202 249 190 222 z "},"ä":{"ha":706,"x_min":0,"x_max":0,"o":"m 114 829 b 142 894 114 855 123 877 b 208 921 160 912 182 921 b 276 894 235 921 258 912 b 304 829 295 877 304 855 b 276 764 304 803 295 781 b 208 738 258 746 235 738 b 142 764 182 738 160 746 b 114 829 123 781 114 803 z m 417 829 b 444 894 417 855 426 877 b 511 921 463 912 485 921 b 578 894 538 921 560 912 b 606 829 597 877 606 855 b 578 764 606 803 597 781 b 511 738 560 746 538 738 b 444 764 485 738 463 746 b 417 829 426 781 417 803 z m 158 469 l 97 578 b 208 629 127 595 164 613 b 360 654 252 646 302 654 b 551 603 438 654 501 637 b 626 456 601 569 626 519 l 626 0 l 479 0 l 479 92 b 393 13 461 57 432 31 b 263 -14 354 -5 311 -14 b 100 36 195 -14 141 3 b 39 175 59 69 39 116 b 117 338 39 246 65 300 b 313 393 169 375 234 393 b 408 380 348 393 379 389 b 479 350 436 371 460 361 l 479 439 b 442 508 479 469 467 491 b 353 532 418 524 388 532 b 233 508 307 532 268 524 b 158 469 199 493 174 480 z m 190 189 b 222 122 190 159 201 137 b 308 100 242 107 271 100 b 431 134 357 100 398 111 b 479 253 463 157 479 196 l 479 265 b 335 297 438 287 389 297 b 226 268 287 297 250 288 b 190 189 202 249 190 222 z "},"å":{"ha":706,"x_min":0,"x_max":0,"o":"m 292 886 b 313 834 292 864 299 847 b 360 815 326 822 342 815 b 407 834 377 815 393 822 b 428 886 421 847 428 864 b 407 938 428 908 421 925 b 360 956 393 950 377 956 b 313 938 342 956 326 950 b 292 886 299 925 292 908 z m 206 886 b 252 993 206 931 221 966 b 360 1033 283 1020 319 1033 b 467 993 400 1033 436 1020 b 514 886 498 966 514 931 b 467 778 514 842 498 806 b 360 738 436 751 400 738 b 252 778 319 738 283 751 b 206 886 221 806 206 842 z m 158 469 l 97 578 b 208 629 127 595 164 613 b 360 654 252 646 302 654 b 551 603 438 654 501 637 b 626 456 601 569 626 519 l 626 0 l 479 0 l 479 92 b 393 13 461 57 432 31 b 263 -14 354 -5 311 -14 b 100 36 195 -14 141 3 b 39 175 59 69 39 116 b 117 338 39 246 65 300 b 313 393 169 375 234 393 b 408 380 348 393 379 389 b 479 350 436 371 460 361 l 479 439 b 442 508 479 469 467 491 b 353 532 418 524 388 532 b 233 508 307 532 268 524 b 158 469 199 493 174 480 z m 190 189 b 222 122 190 159 201 137 b 308 100 242 107 271 100 b 431 134 357 100 398 111 b 479 253 463 157 479 196 l 479 265 b 335 297 438 287 389 297 b 226 268 287 297 250 288 b 190 189 202 249 190 222 z "},"æ":{"ha":1185,"x_min":0,"x_max":0,"o":"m 158 469 l 97 578 b 208 629 127 595 164 613 b 360 654 252 646 302 654 b 508 619 424 654 473 643 b 575 518 544 596 566 563 b 682 617 602 560 638 593 b 839 653 726 641 779 653 b 990 613 894 653 945 640 b 1098 501 1036 587 1072 549 b 1138 326 1124 452 1138 394 l 1138 307 b 1136 285 1138 300 1137 292 l 638 285 b 695 153 643 226 662 183 b 818 110 728 124 769 110 b 928 137 862 110 898 119 b 1001 211 959 155 983 180 l 1131 158 b 1057 68 1109 124 1085 94 b 956 8 1029 42 996 22 b 811 -14 917 -7 869 -14 b 651 27 748 -14 695 0 b 551 136 608 54 575 91 b 463 25 539 88 510 51 b 294 -14 416 -1 360 -14 b 106 36 213 -14 150 3 b 39 175 61 69 39 116 b 117 338 39 246 65 300 b 313 393 169 375 234 393 b 408 380 348 393 379 389 b 479 350 436 371 460 361 l 479 428 b 442 502 479 457 467 482 b 353 532 418 522 388 532 b 233 508 307 532 268 524 b 158 469 199 493 174 480 z m 190 189 b 222 122 190 159 201 137 b 308 100 242 107 271 100 b 431 134 357 100 398 111 b 479 253 463 157 479 196 l 479 265 b 335 297 438 287 389 297 b 226 268 287 297 250 288 b 190 189 202 249 190 222 z m 975 389 b 928 499 969 435 954 472 b 817 539 902 525 865 539 b 699 499 771 539 732 526 b 640 389 666 473 647 436 z "},"ç":{"ha":672,"x_min":0,"x_max":0,"o":"m 196 319 b 222 213 196 280 205 244 b 294 141 240 182 264 158 b 394 115 324 124 357 115 b 521 147 441 115 483 126 b 603 224 559 167 586 193 l 603 58 b 518 7 581 36 553 19 b 400 -14 483 -5 444 -12 l 358 -81 b 372 -78 363 -80 368 -79 b 386 -78 377 -78 381 -78 b 460 -107 411 -78 436 -87 b 496 -194 484 -126 496 -156 b 472 -271 496 -225 488 -250 b 412 -317 456 -291 436 -307 b 335 -333 387 -328 362 -333 b 253 -322 304 -333 277 -329 b 181 -279 230 -314 206 -300 l 233 -208 b 324 -242 262 -231 292 -242 b 396 -189 372 -242 396 -224 b 376 -152 396 -171 389 -159 b 321 -142 362 -145 344 -142 b 283 -146 314 -142 302 -143 b 226 -165 264 -149 245 -155 l 304 -6 b 168 56 253 6 208 26 b 75 169 128 86 97 124 b 42 319 53 214 42 264 b 87 493 42 385 57 443 b 210 610 117 543 158 582 b 388 653 263 639 322 653 b 513 633 434 653 476 646 b 603 581 551 619 581 602 l 603 415 b 519 492 586 446 558 472 b 394 524 481 513 439 524 b 294 497 357 524 324 515 b 222 425 264 480 240 456 b 196 319 205 394 196 359 z "},"è":{"ha":747,"x_min":0,"x_max":0,"o":"m 172 956 l 300 1018 l 508 796 l 422 747 z m 201 285 b 258 153 207 226 226 183 b 381 110 291 124 331 110 b 491 137 424 110 461 119 b 564 211 521 155 545 180 l 694 158 b 575 33 663 106 623 65 b 374 -14 527 2 460 -14 b 201 29 308 -14 250 0 b 88 148 152 58 114 97 b 47 319 61 198 47 256 b 49 354 47 331 48 343 b 53 388 50 365 51 376 b 158 579 66 466 101 530 b 381 653 215 628 289 653 b 615 565 480 653 558 624 b 700 326 672 507 700 427 b 699 307 700 321 700 314 b 697 285 699 300 698 292 z m 204 389 l 538 389 b 491 498 532 434 516 471 b 379 539 466 525 428 539 b 263 499 334 539 295 526 b 204 389 230 473 211 436 z "},"é":{"ha":747,"x_min":0,"x_max":0,"o":"m 610 956 l 360 747 l 275 796 l 483 1018 z m 201 285 b 258 153 207 226 226 183 b 381 110 291 124 331 110 b 491 137 424 110 461 119 b 564 211 521 155 545 180 l 694 158 b 575 33 663 106 623 65 b 374 -14 527 2 460 -14 b 201 29 308 -14 250 0 b 88 148 152 58 114 97 b 47 319 61 198 47 256 b 49 354 47 331 48 343 b 53 388 50 365 51 376 b 158 579 66 466 101 530 b 381 653 215 628 289 653 b 615 565 480 653 558 624 b 700 326 672 507 700 427 b 699 307 700 321 700 314 b 697 285 699 300 698 292 z m 204 389 l 538 389 b 491 498 532 434 516 471 b 379 539 466 525 428 539 b 263 499 334 539 295 526 b 204 389 230 473 211 436 z "},"ê":{"ha":747,"x_min":0,"x_max":0,"o":"m 381 864 l 239 736 l 138 810 l 381 1004 l 624 810 l 524 736 z m 201 285 b 258 153 207 226 226 183 b 381 110 291 124 331 110 b 491 137 424 110 461 119 b 564 211 521 155 545 180 l 694 158 b 575 33 663 106 623 65 b 374 -14 527 2 460 -14 b 201 29 308 -14 250 0 b 88 148 152 58 114 97 b 47 319 61 198 47 256 b 49 354 47 331 48 343 b 53 388 50 365 51 376 b 158 579 66 466 101 530 b 381 653 215 628 289 653 b 615 565 480 653 558 624 b 700 326 672 507 700 427 b 699 307 700 321 700 314 b 697 285 699 300 698 292 z m 204 389 l 538 389 b 491 498 532 434 516 471 b 379 539 466 525 428 539 b 263 499 334 539 295 526 b 204 389 230 473 211 436 z "},"ë":{"ha":747,"x_min":0,"x_max":0,"o":"m 135 828 b 163 893 135 854 144 875 b 231 919 182 911 205 919 b 298 893 257 919 280 911 b 325 828 316 875 325 854 b 298 763 325 802 316 780 b 231 736 280 745 257 736 b 163 763 205 736 182 745 b 135 828 144 780 135 802 z m 438 828 b 465 893 438 854 447 875 b 532 919 484 911 506 919 b 599 893 559 919 581 911 b 626 828 617 875 626 854 b 599 763 626 802 617 780 b 532 736 581 745 559 736 b 465 763 506 736 484 745 b 438 828 447 780 438 802 z m 201 285 b 258 153 207 226 226 183 b 381 110 291 124 331 110 b 491 137 424 110 461 119 b 564 211 521 155 545 180 l 694 158 b 575 33 663 106 623 65 b 374 -14 527 2 460 -14 b 201 29 308 -14 250 0 b 88 148 152 58 114 97 b 47 319 61 198 47 256 b 49 354 47 331 48 343 b 53 388 50 365 51 376 b 158 579 66 466 101 530 b 381 653 215 628 289 653 b 615 565 480 653 558 624 b 700 326 672 507 700 427 b 699 307 700 321 700 314 b 697 285 699 300 698 292 z m 204 389 l 538 389 b 491 498 532 434 516 471 b 379 539 466 525 428 539 b 263 499 334 539 295 526 b 204 389 230 473 211 436 z "},"ì":{"ha":369,"x_min":0,"x_max":0,"o":"m -49 965 l 78 1028 l 286 806 l 201 757 z m 111 639 l 258 639 l 258 0 l 111 0 z "},"í":{"ha":369,"x_min":0,"x_max":0,"o":"m 414 965 l 164 757 l 79 806 l 288 1028 z m 111 639 l 258 639 l 258 0 l 111 0 z "},"î":{"ha":369,"x_min":0,"x_max":0,"o":"m 185 874 l 42 747 l -58 819 l 185 1014 l 428 819 l 328 747 z m 111 639 l 258 639 l 258 0 l 111 0 z "},"ï":{"ha":369,"x_min":0,"x_max":0,"o":"m -61 858 b -33 924 -61 884 -52 906 b 33 950 -15 941 7 950 b 101 924 60 950 83 941 b 129 858 120 906 129 884 b 101 794 129 832 120 811 b 33 768 83 777 60 768 b -33 794 7 768 -15 777 b -61 858 -52 811 -61 832 z m 242 858 b 269 924 242 884 251 906 b 336 950 288 941 310 950 b 403 924 363 950 385 941 b 431 858 422 906 431 884 b 403 794 431 832 422 811 b 336 768 385 777 363 768 b 269 794 310 768 288 777 b 242 858 251 811 242 832 z m 111 639 l 258 639 l 258 0 l 111 0 z "},"ð":{"ha":851,"x_min":0,"x_max":0,"o":"m 206 722 l 206 819 l 306 819 l 183 971 l 392 971 l 504 819 l 697 819 l 697 722 l 576 722 l 700 557 b 760 452 724 525 744 491 b 783 328 775 414 783 372 b 736 143 783 256 768 195 b 608 24 705 91 662 52 b 426 -17 553 -3 493 -17 b 245 24 360 -17 299 -3 b 117 143 191 52 148 91 b 69 328 85 195 69 256 b 111 492 69 390 83 445 b 219 604 139 540 175 577 b 363 644 264 631 312 644 b 416 641 382 644 400 643 b 461 626 432 639 447 634 l 385 722 z m 622 328 b 567 475 622 388 604 437 b 426 532 530 513 483 532 b 286 475 370 532 323 513 b 231 328 249 437 231 388 b 286 183 231 269 249 220 b 426 128 323 146 370 128 b 567 183 483 128 530 146 b 622 328 604 220 622 269 z "},"ñ":{"ha":757,"x_min":0,"x_max":0,"o":"m 133 804 b 188 890 141 838 159 867 b 286 925 217 913 250 925 b 342 915 309 925 328 922 b 381 891 357 908 369 900 b 416 867 392 882 403 874 b 464 857 428 860 444 857 b 507 875 480 857 494 863 b 547 926 520 887 533 904 l 625 849 b 564 775 614 823 594 798 b 463 740 534 752 500 740 b 397 758 438 740 416 746 b 344 792 379 769 361 781 b 285 810 327 804 307 810 b 242 797 266 810 252 805 b 222 767 233 788 226 778 b 217 739 219 756 217 746 z m 507 389 b 478 495 507 435 497 471 b 389 532 459 520 430 532 b 286 492 346 532 312 519 b 247 389 260 466 247 431 l 247 0 l 96 0 l 96 639 l 247 639 l 247 551 b 328 626 269 583 296 608 b 439 653 361 644 398 653 b 603 590 510 653 565 632 b 661 406 642 547 661 486 l 661 0 l 507 0 z "},"ò":{"ha":782,"x_min":0,"x_max":0,"o":"m 169 965 l 296 1028 l 504 806 l 419 757 z m 201 319 b 256 174 201 260 220 212 b 392 118 293 137 338 118 b 528 174 446 118 492 137 b 582 319 564 212 582 260 b 528 465 582 380 564 428 b 392 521 492 502 446 521 b 256 465 338 521 293 502 b 201 319 220 428 201 380 z m 47 319 b 92 493 47 385 62 443 b 216 610 122 543 164 582 b 392 653 268 639 327 653 b 568 610 457 653 516 639 b 691 493 620 582 661 543 b 736 319 721 443 736 385 b 691 146 736 254 721 196 b 568 28 661 96 620 57 b 392 -14 516 0 457 -14 b 216 28 327 -14 268 0 b 92 146 164 57 122 96 b 47 319 62 196 47 254 z "},"ó":{"ha":782,"x_min":0,"x_max":0,"o":"m 614 965 l 364 757 l 278 806 l 486 1028 z m 201 319 b 256 174 201 260 220 212 b 392 118 293 137 338 118 b 528 174 446 118 492 137 b 582 319 564 212 582 260 b 528 465 582 380 564 428 b 392 521 492 502 446 521 b 256 465 338 521 293 502 b 201 319 220 428 201 380 z m 47 319 b 92 493 47 385 62 443 b 216 610 122 543 164 582 b 392 653 268 639 327 653 b 568 610 457 653 516 639 b 691 493 620 582 661 543 b 736 319 721 443 736 385 b 691 146 736 254 721 196 b 568 28 661 96 620 57 b 392 -14 516 0 457 -14 b 216 28 327 -14 268 0 b 92 146 164 57 122 96 b 47 319 62 196 47 254 z "},"ô":{"ha":782,"x_min":0,"x_max":0,"o":"m 392 883 l 249 757 l 149 831 l 392 1025 l 635 831 l 533 757 z m 201 319 b 256 174 201 260 220 212 b 392 118 293 137 338 118 b 528 174 446 118 492 137 b 582 319 564 212 582 260 b 528 465 582 380 564 428 b 392 521 492 502 446 521 b 256 465 338 521 293 502 b 201 319 220 428 201 380 z m 47 319 b 92 493 47 385 62 443 b 216 610 122 543 164 582 b 392 653 268 639 327 653 b 568 610 457 653 516 639 b 691 493 620 582 661 543 b 736 319 721 443 736 385 b 691 146 736 254 721 196 b 568 28 661 96 620 57 b 392 -14 516 0 457 -14 b 216 28 327 -14 268 0 b 92 146 164 57 122 96 b 47 319 62 196 47 254 z "},"õ":{"ha":782,"x_min":0,"x_max":0,"o":"m 144 804 b 199 890 152 838 170 867 b 297 925 228 913 261 925 b 354 915 320 925 339 922 b 394 891 369 908 382 900 b 430 867 405 882 417 874 b 478 857 442 860 458 857 b 520 875 494 857 508 863 b 560 926 533 887 546 904 l 638 849 b 576 775 626 823 606 798 b 475 740 547 752 513 740 b 410 758 450 740 428 746 b 356 792 391 769 373 781 b 297 810 339 804 319 810 b 255 797 279 810 265 805 b 235 767 245 788 238 778 b 229 739 231 756 229 746 z m 201 319 b 256 174 201 260 220 212 b 392 118 293 137 338 118 b 528 174 446 118 492 137 b 582 319 564 212 582 260 b 528 465 582 380 564 428 b 392 521 492 502 446 521 b 256 465 338 521 293 502 b 201 319 220 428 201 380 z m 47 319 b 92 493 47 385 62 443 b 216 610 122 543 164 582 b 392 653 268 639 327 653 b 568 610 457 653 516 639 b 691 493 620 582 661 543 b 736 319 721 443 736 385 b 691 146 736 254 721 196 b 568 28 661 96 620 57 b 392 -14 516 0 457 -14 b 216 28 327 -14 268 0 b 92 146 164 57 122 96 b 47 319 62 196 47 254 z "},"ö":{"ha":782,"x_min":0,"x_max":0,"o":"m 146 858 b 174 924 146 884 155 906 b 240 950 192 941 214 950 b 308 924 267 950 290 941 b 335 858 326 906 335 884 b 308 794 335 832 326 811 b 240 768 290 777 267 768 b 174 794 214 768 192 777 b 146 858 155 811 146 832 z m 447 858 b 475 924 447 884 456 906 b 542 950 494 941 516 950 b 610 924 569 950 591 941 b 638 858 628 906 638 884 b 610 794 638 832 628 811 b 542 768 591 777 569 768 b 475 794 516 768 494 777 b 447 858 456 811 447 832 z m 201 319 b 256 174 201 260 220 212 b 392 118 293 137 338 118 b 528 174 446 118 492 137 b 582 319 564 212 582 260 b 528 465 582 380 564 428 b 392 521 492 502 446 521 b 256 465 338 521 293 502 b 201 319 220 428 201 380 z m 47 319 b 92 493 47 385 62 443 b 216 610 122 543 164 582 b 392 653 268 639 327 653 b 568 610 457 653 516 639 b 691 493 620 582 661 543 b 736 319 721 443 736 385 b 691 146 736 254 721 196 b 568 28 661 96 620 57 b 392 -14 516 0 457 -14 b 216 28 327 -14 268 0 b 92 146 164 57 122 96 b 47 319 62 196 47 254 z "},"÷":{"ha":874,"x_min":0,"x_max":0,"o":"m 64 332 l 64 474 l 807 474 l 807 332 z m 338 113 b 366 181 338 139 347 162 b 436 210 385 200 408 210 b 506 181 464 210 487 200 b 533 113 524 162 533 139 b 506 44 533 87 524 64 b 436 15 487 25 464 15 b 366 44 408 15 385 25 b 338 113 347 64 338 87 z m 338 682 b 366 751 338 709 347 732 b 436 779 385 770 408 779 b 506 751 464 779 487 770 b 533 682 524 732 533 709 b 506 614 533 656 524 633 b 436 585 487 594 464 585 b 366 614 408 585 385 594 b 338 682 347 633 338 656 z "},"ø":{"ha":758,"x_min":0,"x_max":0,"o":"m 619 697 l 689 664 l 622 574 b 706 466 657 545 685 509 b 736 319 726 423 736 374 b 690 144 736 253 721 194 b 567 28 660 94 619 56 b 392 -14 515 0 456 -14 b 215 28 326 -14 267 0 l 147 -64 l 78 -31 l 154 71 b 76 178 121 100 95 136 b 47 319 57 221 47 268 b 93 494 47 386 63 444 b 217 611 124 544 165 583 b 392 653 269 639 327 653 b 480 643 422 653 452 650 b 558 615 508 637 534 627 z m 538 461 l 297 138 b 392 114 326 122 357 114 b 492 140 429 114 462 122 b 563 212 521 157 545 181 b 589 319 580 243 589 279 b 575 399 589 348 584 375 b 538 461 566 423 553 444 z m 478 506 b 392 525 450 519 421 525 b 292 499 355 525 321 516 b 221 426 262 481 238 457 b 194 319 203 395 194 359 b 239 185 194 267 209 222 z "},"ù":{"ha":757,"x_min":0,"x_max":0,"o":"m 197 965 l 325 1028 l 533 806 l 447 757 z m 250 250 b 369 107 250 155 290 107 b 472 147 412 107 446 120 b 511 250 498 173 511 207 l 511 639 l 661 639 l 661 0 l 511 0 l 511 89 b 431 14 491 57 464 32 b 318 -14 397 -5 360 -14 b 154 49 248 -14 193 7 b 96 233 115 91 96 153 l 96 639 l 250 639 z "},"ú":{"ha":757,"x_min":0,"x_max":0,"o":"m 558 965 l 308 757 l 225 806 l 433 1028 z m 250 250 b 369 107 250 155 290 107 b 472 147 412 107 446 120 b 511 250 498 173 511 207 l 511 639 l 661 639 l 661 0 l 511 0 l 511 89 b 431 14 491 57 464 32 b 318 -14 397 -5 360 -14 b 154 49 248 -14 193 7 b 96 233 115 91 96 153 l 96 639 l 250 639 z "},"û":{"ha":757,"x_min":0,"x_max":0,"o":"m 378 883 l 236 757 l 135 831 l 378 1025 l 621 831 l 519 757 z m 250 250 b 369 107 250 155 290 107 b 472 147 412 107 446 120 b 511 250 498 173 511 207 l 511 639 l 661 639 l 661 0 l 511 0 l 511 89 b 431 14 491 57 464 32 b 318 -14 397 -5 360 -14 b 154 49 248 -14 193 7 b 96 233 115 91 96 153 l 96 639 l 250 639 z "},"ü":{"ha":757,"x_min":0,"x_max":0,"o":"m 133 849 b 161 914 133 875 143 896 b 228 940 180 931 202 940 b 295 914 255 940 277 931 b 322 849 313 896 322 875 b 295 783 322 823 313 801 b 228 757 277 766 255 757 b 161 783 202 757 180 766 b 133 849 143 801 133 823 z m 436 849 b 463 914 436 875 445 896 b 529 940 481 931 503 940 b 597 914 556 940 579 931 b 625 849 616 896 625 875 b 597 783 625 823 616 801 b 529 757 579 766 556 757 b 463 783 503 757 481 766 b 436 849 445 801 436 823 z m 250 250 b 369 107 250 155 290 107 b 472 147 412 107 446 120 b 511 250 498 173 511 207 l 511 639 l 661 639 l 661 0 l 511 0 l 511 89 b 431 14 491 57 464 32 b 318 -14 397 -5 360 -14 b 154 49 248 -14 193 7 b 96 233 115 91 96 153 l 96 639 l 250 639 z "},"ý":{"ha":656,"x_min":0,"x_max":0,"o":"m 526 965 l 276 757 l 192 806 l 400 1028 z m 661 639 l 244 -306 l 85 -306 l 253 75 l -6 639 l 167 639 l 335 224 l 500 639 z "},"þ":{"ha":817,"x_min":0,"x_max":0,"o":"m 615 319 b 589 428 615 362 606 398 b 519 498 571 459 548 482 b 422 522 490 514 457 522 b 338 499 394 522 365 514 b 269 430 310 483 287 460 b 242 319 251 400 242 363 b 269 209 242 276 251 239 b 338 140 287 179 310 156 b 422 117 365 125 394 117 b 519 141 457 117 490 125 b 589 210 548 157 571 180 b 615 319 606 241 615 277 z m 771 319 b 728 140 771 249 756 189 b 614 26 699 90 661 52 b 460 -14 567 -1 515 -14 b 334 17 413 -14 372 -3 b 242 106 297 38 266 68 l 242 -306 l 90 -306 l 90 1083 l 242 1083 l 242 533 b 334 622 266 571 297 601 b 460 653 372 642 413 653 b 614 613 515 653 567 640 b 728 499 661 587 699 549 b 771 319 756 450 771 390 z "},"ÿ":{"ha":656,"x_min":0,"x_max":0,"o":"m 82 828 b 110 893 82 854 91 875 b 178 919 129 911 152 919 b 245 893 205 919 227 911 b 272 828 263 875 272 854 b 245 763 272 802 263 780 b 178 736 227 745 205 736 b 110 763 152 736 129 745 b 82 828 91 780 82 802 z m 385 828 b 413 893 385 854 394 875 b 479 919 431 911 453 919 b 547 893 506 919 528 911 b 574 828 565 875 574 854 b 547 763 574 802 565 780 b 479 736 528 745 506 736 b 413 763 453 736 431 745 b 385 828 394 780 385 802 z m 661 639 l 244 -306 l 85 -306 l 253 75 l -6 639 l 167 639 l 335 224 l 500 639 z "},"Ā":{"ha":958,"x_min":0,"x_max":0,"o":"m 231 1110 l 231 1244 l 728 1244 l 728 1110 z m 300 250 l 189 0 l 3 0 l 479 1026 l 956 0 l 769 0 l 658 250 z m 347 389 l 611 389 l 479 697 z "},"ā":{"ha":706,"x_min":0,"x_max":0,"o":"m 111 758 l 111 894 l 610 894 l 610 758 z m 158 469 l 97 578 b 208 629 127 595 164 613 b 360 654 252 646 302 654 b 551 603 438 654 501 637 b 626 456 601 569 626 519 l 626 0 l 479 0 l 479 92 b 393 13 461 57 432 31 b 263 -14 354 -5 311 -14 b 100 36 195 -14 141 3 b 39 175 59 69 39 116 b 117 338 39 246 65 300 b 313 393 169 375 234 393 b 408 380 348 393 379 389 b 479 350 436 371 460 361 l 479 439 b 442 508 479 469 467 491 b 353 532 418 524 388 532 b 233 508 307 532 268 524 b 158 469 199 493 174 480 z m 190 189 b 222 122 190 159 201 137 b 308 100 242 107 271 100 b 431 134 357 100 398 111 b 479 253 463 157 479 196 l 479 265 b 335 297 438 287 389 297 b 226 268 287 297 250 288 b 190 189 202 249 190 222 z "},"Ă":{"ha":958,"x_min":0,"x_max":0,"o":"m 256 1307 l 371 1307 b 395 1244 371 1287 379 1266 b 479 1211 411 1222 439 1211 b 564 1244 520 1211 548 1222 b 588 1307 580 1266 588 1287 l 703 1307 b 677 1210 703 1273 694 1241 b 602 1138 660 1180 635 1156 b 479 1110 569 1119 528 1110 b 357 1138 431 1110 390 1119 b 281 1210 324 1156 298 1180 b 256 1307 264 1241 256 1273 z m 300 250 l 189 0 l 3 0 l 479 1026 l 956 0 l 769 0 l 658 250 z m 347 389 l 611 389 l 479 697 z "},"ă":{"ha":706,"x_min":0,"x_max":0,"o":"m 138 936 l 251 936 b 276 873 251 916 259 895 b 360 840 292 851 320 840 b 445 873 400 840 429 851 b 469 936 461 895 469 916 l 583 936 b 558 840 583 902 575 870 b 483 766 541 809 516 785 b 360 738 450 747 409 738 b 238 766 312 738 271 747 b 163 840 204 785 179 809 b 138 936 146 870 138 902 z m 158 469 l 97 578 b 208 629 127 595 164 613 b 360 654 252 646 302 654 b 551 603 438 654 501 637 b 626 456 601 569 626 519 l 626 0 l 479 0 l 479 92 b 393 13 461 57 432 31 b 263 -14 354 -5 311 -14 b 100 36 195 -14 141 3 b 39 175 59 69 39 116 b 117 338 39 246 65 300 b 313 393 169 375 234 393 b 408 380 348 393 379 389 b 479 350 436 371 460 361 l 479 439 b 442 508 479 469 467 491 b 353 532 418 524 388 532 b 233 508 307 532 268 524 b 158 469 199 493 174 480 z m 190 189 b 222 122 190 159 201 137 b 308 100 242 107 271 100 b 431 134 357 100 398 111 b 479 253 463 157 479 196 l 479 265 b 335 297 438 287 389 297 b 226 268 287 297 250 288 b 190 189 202 249 190 222 z "},"Ą":{"ha":958,"x_min":0,"x_max":0,"o":"m 933 -169 l 981 -250 b 933 -288 970 -264 954 -277 b 850 -306 911 -300 883 -306 b 727 -268 797 -306 756 -293 b 683 -167 698 -243 683 -209 b 719 -74 683 -132 695 -102 b 808 0 744 -47 773 -22 l 769 0 l 658 250 l 300 250 l 189 0 l 3 0 l 479 1026 l 956 0 l 928 0 b 840 -62 892 -17 862 -37 b 806 -136 817 -87 806 -112 b 820 -183 806 -158 810 -174 b 864 -197 830 -193 844 -197 b 904 -190 881 -197 894 -195 b 933 -169 914 -186 924 -179 z m 347 389 l 611 389 l 479 697 z "},"ą":{"ha":706,"x_min":0,"x_max":0,"o":"m 617 -169 l 663 -250 b 615 -288 652 -264 637 -277 b 533 -306 594 -300 567 -306 b 410 -268 481 -306 439 -293 b 365 -167 380 -243 365 -209 b 402 -74 365 -132 378 -102 b 492 0 427 -47 456 -22 l 479 0 l 479 92 b 393 13 461 57 432 31 b 263 -14 354 -5 311 -14 b 103 36 199 -14 145 3 b 39 183 60 69 39 119 b 113 338 39 249 63 300 b 313 393 162 375 228 393 b 408 380 348 393 379 389 b 479 350 436 371 460 361 l 479 439 b 442 508 479 469 467 491 b 353 532 418 524 388 532 b 233 508 307 532 268 524 b 158 469 199 493 174 480 l 97 578 b 208 629 127 595 164 613 b 360 654 252 646 302 654 b 551 603 438 654 501 637 b 626 456 601 569 626 519 l 626 0 l 610 0 b 522 -62 574 -17 544 -37 b 488 -136 499 -87 488 -112 b 503 -183 488 -158 493 -174 b 547 -197 513 -193 528 -197 b 588 -190 564 -197 577 -195 b 617 -169 598 -186 607 -179 z m 190 189 b 225 122 190 159 202 137 b 308 100 248 107 276 100 b 431 134 357 100 398 111 b 479 253 463 157 479 196 l 479 265 b 335 297 438 287 389 297 b 226 268 287 297 250 288 b 190 189 202 249 190 222 z "},"Ć":{"ha":960,"x_min":0,"x_max":0,"o":"m 738 1281 l 488 1072 l 403 1122 l 611 1344 z m 231 486 b 276 306 231 418 246 357 b 398 185 307 254 347 214 b 563 143 448 157 503 143 b 741 182 631 143 691 156 b 867 281 791 208 833 241 l 867 86 b 735 10 827 53 783 27 b 557 -17 688 -8 628 -17 b 358 20 486 -17 419 -4 b 198 124 297 45 244 79 b 91 283 152 168 116 221 b 53 486 66 344 53 412 b 91 690 53 560 66 628 b 198 849 116 751 152 804 b 358 952 244 893 297 928 b 557 989 419 977 486 989 b 735 963 628 989 688 980 b 867 886 783 945 827 919 l 867 692 b 741 790 833 731 791 764 b 563 829 691 816 631 829 b 398 787 503 829 448 815 b 276 667 347 759 307 719 b 231 486 246 616 231 556 z "},"ć":{"ha":672,"x_min":0,"x_max":0,"o":"m 568 944 l 318 736 l 233 785 l 442 1007 z m 196 319 b 222 213 196 280 205 244 b 294 141 240 182 264 158 b 394 115 324 124 357 115 b 521 147 441 115 483 126 b 603 224 559 167 586 193 l 603 58 b 513 5 581 35 551 17 b 388 -14 476 -8 434 -14 b 210 28 322 -14 263 0 b 87 146 158 57 117 96 b 42 319 57 196 42 254 b 87 493 42 385 57 443 b 210 610 117 543 158 582 b 388 653 263 639 322 653 b 513 633 434 653 476 646 b 603 581 551 619 581 602 l 603 415 b 519 492 586 446 558 472 b 394 524 481 513 439 524 b 294 497 357 524 324 515 b 222 425 264 480 240 456 b 196 319 205 394 196 359 z "},"Ĉ":{"ha":960,"x_min":0,"x_max":0,"o":"m 557 1200 l 415 1072 l 314 1146 l 557 1340 l 800 1146 l 700 1072 z m 231 486 b 276 306 231 418 246 357 b 398 185 307 254 347 214 b 563 143 448 157 503 143 b 741 182 631 143 691 156 b 867 281 791 208 833 241 l 867 86 b 735 10 827 53 783 27 b 557 -17 688 -8 628 -17 b 358 20 486 -17 419 -4 b 198 124 297 45 244 79 b 91 283 152 168 116 221 b 53 486 66 344 53 412 b 91 690 53 560 66 628 b 198 849 116 751 152 804 b 358 952 244 893 297 928 b 557 989 419 977 486 989 b 735 963 628 989 688 980 b 867 886 783 945 827 919 l 867 692 b 741 790 833 731 791 764 b 563 829 691 816 631 829 b 398 787 503 829 448 815 b 276 667 347 759 307 719 b 231 486 246 616 231 556 z "},"ĉ":{"ha":672,"x_min":0,"x_max":0,"o":"m 371 864 l 228 736 l 128 810 l 371 1004 l 614 810 l 513 736 z m 196 319 b 222 213 196 280 205 244 b 294 141 240 182 264 158 b 394 115 324 124 357 115 b 521 147 441 115 483 126 b 603 224 559 167 586 193 l 603 58 b 513 5 581 35 551 17 b 388 -14 476 -8 434 -14 b 210 28 322 -14 263 0 b 87 146 158 57 117 96 b 42 319 57 196 42 254 b 87 493 42 385 57 443 b 210 610 117 543 158 582 b 388 653 263 639 322 653 b 513 633 434 653 476 646 b 603 581 551 619 581 602 l 603 415 b 519 492 586 446 558 472 b 394 524 481 513 439 524 b 294 497 357 524 324 515 b 222 425 264 480 240 456 b 196 319 205 394 196 359 z "},"Ċ":{"ha":960,"x_min":0,"x_max":0,"o":"m 449 1164 b 476 1229 449 1190 458 1212 b 543 1256 495 1247 517 1256 b 611 1229 570 1256 593 1247 b 639 1164 630 1212 639 1190 b 611 1099 639 1138 630 1116 b 543 1072 593 1081 570 1072 b 476 1099 517 1072 495 1081 b 449 1164 458 1116 449 1138 z m 231 486 b 276 306 231 418 246 357 b 398 185 307 254 347 214 b 563 143 448 157 503 143 b 741 182 631 143 691 156 b 867 281 791 208 833 241 l 867 86 b 735 10 827 53 783 27 b 557 -17 688 -8 628 -17 b 358 20 486 -17 419 -4 b 198 124 297 45 244 79 b 91 283 152 168 116 221 b 53 486 66 344 53 412 b 91 690 53 560 66 628 b 198 849 116 751 152 804 b 358 952 244 893 297 928 b 557 989 419 977 486 989 b 735 963 628 989 688 980 b 867 886 783 945 827 919 l 867 692 b 741 790 833 731 791 764 b 563 829 691 816 631 829 b 398 787 503 829 448 815 b 276 667 347 759 307 719 b 231 486 246 616 231 556 z "},"ċ":{"ha":672,"x_min":0,"x_max":0,"o":"m 279 831 b 307 896 279 856 288 878 b 374 922 325 913 348 922 b 442 896 400 922 423 913 b 469 831 460 878 469 856 b 442 766 469 805 460 783 b 374 740 423 749 400 740 b 307 766 348 740 325 749 b 279 831 288 783 279 805 z m 196 319 b 222 213 196 280 205 244 b 294 141 240 182 264 158 b 394 115 324 124 357 115 b 521 147 441 115 483 126 b 603 224 559 167 586 193 l 603 58 b 513 5 581 35 551 17 b 388 -14 476 -8 434 -14 b 210 28 322 -14 263 0 b 87 146 158 57 117 96 b 42 319 57 196 42 254 b 87 493 42 385 57 443 b 210 610 117 543 158 582 b 388 653 263 639 322 653 b 513 633 434 653 476 646 b 603 581 551 619 581 602 l 603 415 b 519 492 586 446 558 472 b 394 524 481 513 439 524 b 294 497 357 524 324 515 b 222 425 264 480 240 456 b 196 319 205 394 196 359 z "},"Č":{"ha":960,"x_min":0,"x_max":0,"o":"m 557 1214 l 700 1340 l 800 1267 l 557 1072 l 314 1267 l 415 1340 z m 231 486 b 276 306 231 418 246 357 b 398 185 307 254 347 214 b 563 143 448 157 503 143 b 741 182 631 143 691 156 b 867 281 791 208 833 241 l 867 86 b 735 10 827 53 783 27 b 557 -17 688 -8 628 -17 b 358 20 486 -17 419 -4 b 198 124 297 45 244 79 b 91 283 152 168 116 221 b 53 486 66 344 53 412 b 91 690 53 560 66 628 b 198 849 116 751 152 804 b 358 952 244 893 297 928 b 557 989 419 977 486 989 b 735 963 628 989 688 980 b 867 886 783 945 827 919 l 867 692 b 741 790 833 731 791 764 b 563 829 691 816 631 829 b 398 787 503 829 448 815 b 276 667 347 759 307 719 b 231 486 246 616 231 556 z "},"č":{"ha":672,"x_min":0,"x_max":0,"o":"m 371 878 l 513 1004 l 614 931 l 371 736 l 128 931 l 228 1004 z m 196 319 b 222 213 196 280 205 244 b 294 141 240 182 264 158 b 394 115 324 124 357 115 b 521 147 441 115 483 126 b 603 224 559 167 586 193 l 603 58 b 513 5 581 35 551 17 b 388 -14 476 -8 434 -14 b 210 28 322 -14 263 0 b 87 146 158 57 117 96 b 42 319 57 196 42 254 b 87 493 42 385 57 443 b 210 610 117 543 158 582 b 388 653 263 639 322 653 b 513 633 434 653 476 646 b 603 581 551 619 581 602 l 603 415 b 519 492 586 446 558 472 b 394 524 481 513 439 524 b 294 497 357 524 324 515 b 222 425 264 480 240 456 b 196 319 205 394 196 359 z "},"Ď":{"ha":974,"x_min":0,"x_max":0,"o":"m 483 1214 l 626 1340 l 726 1267 l 483 1072 l 240 1267 l 342 1340 z m 210 0 l 108 0 l 108 972 l 210 972 l 275 972 l 422 972 b 683 912 521 972 608 952 b 859 742 758 872 817 815 b 922 486 901 670 922 584 b 859 230 922 388 901 303 b 683 60 817 157 758 101 b 422 0 608 20 521 0 l 275 0 z m 275 154 l 418 154 b 590 192 482 154 539 167 b 709 303 640 217 680 254 b 753 486 738 352 753 413 b 709 669 753 559 738 620 b 590 781 680 719 640 756 b 418 818 539 806 482 818 l 275 818 z "},"ď":{"ha":817,"x_min":0,"x_max":0,"o":"m 892 1083 l 1042 1040 l 881 693 l 769 724 z m 203 319 b 260 170 203 256 222 206 b 394 117 298 134 343 117 b 479 140 423 117 451 125 b 549 209 507 156 530 179 b 576 319 567 239 576 276 b 549 430 576 363 567 400 b 479 499 530 460 507 483 b 394 522 451 514 423 522 b 260 469 343 522 298 504 b 203 319 222 433 203 383 z m 47 319 b 90 499 47 390 62 450 b 204 613 119 549 157 587 b 358 653 251 640 303 653 b 484 622 405 653 447 642 b 576 533 522 601 552 571 l 576 1083 l 728 1083 l 728 0 l 576 0 l 576 106 b 484 17 552 68 522 38 b 358 -14 447 -3 405 -14 b 204 26 303 -14 251 -1 b 90 140 157 52 119 90 b 47 319 62 189 47 249 z "},"Đ":{"ha":974,"x_min":0,"x_max":0,"o":"m 7 424 l 7 542 l 108 542 l 108 972 l 210 972 l 275 972 l 422 972 b 683 912 521 972 608 952 b 859 742 758 872 817 815 b 922 486 901 670 922 584 b 859 230 922 388 901 303 b 683 60 817 157 758 101 b 422 0 608 20 521 0 l 275 0 l 210 0 l 108 0 l 108 424 z m 275 154 l 418 154 b 590 192 482 154 539 167 b 709 303 640 217 680 254 b 753 486 738 352 753 413 b 709 669 753 559 738 620 b 590 781 680 719 640 756 b 418 818 539 806 482 818 l 275 818 l 275 542 l 447 542 l 447 424 l 275 424 z "},"đ":{"ha":817,"x_min":0,"x_max":0,"o":"m 203 319 b 260 170 203 256 222 206 b 394 117 298 134 343 117 b 479 140 423 117 451 125 b 549 209 507 156 530 179 b 576 319 567 239 576 276 b 549 430 576 363 567 400 b 479 499 530 460 507 483 b 394 522 451 514 423 522 b 260 469 343 522 298 504 b 203 319 222 433 203 383 z m 47 319 b 90 499 47 390 62 450 b 204 613 119 549 157 587 b 358 653 251 640 303 653 b 484 622 405 653 447 642 b 576 533 522 601 552 571 l 576 806 l 410 806 l 410 924 l 576 924 l 576 1083 l 728 1083 l 728 924 l 858 924 l 858 806 l 728 806 l 728 0 l 576 0 l 576 106 b 484 17 552 68 522 38 b 358 -14 447 -3 405 -14 b 204 26 303 -14 251 -1 b 90 140 157 52 119 90 b 47 319 62 189 47 249 z "},"Ē":{"ha":793,"x_min":0,"x_max":0,"o":"m 154 1072 l 154 1208 l 653 1208 l 653 1072 z m 269 450 l 269 144 l 700 144 l 700 0 l 269 0 l 210 0 l 108 0 l 108 972 l 210 972 l 269 972 l 700 972 l 700 828 l 269 828 l 269 592 l 672 592 l 672 450 z "},"ē":{"ha":747,"x_min":0,"x_max":0,"o":"m 132 736 l 132 872 l 631 872 l 631 736 z m 201 285 b 258 153 207 226 226 183 b 381 110 291 124 331 110 b 491 137 424 110 461 119 b 564 211 521 155 545 180 l 694 158 b 575 33 663 106 623 65 b 374 -14 527 2 460 -14 b 201 29 308 -14 250 0 b 88 148 152 58 114 97 b 47 319 61 198 47 256 b 49 354 47 331 48 343 b 53 388 50 365 51 376 b 158 579 66 466 101 530 b 381 653 215 628 289 653 b 615 565 480 653 558 624 b 700 326 672 507 700 427 b 699 307 700 321 700 314 b 697 285 699 300 698 292 z m 204 389 l 538 389 b 491 498 532 434 516 471 b 379 539 466 525 428 539 b 263 499 334 539 295 526 b 204 389 230 473 211 436 z "},"Ĕ":{"ha":793,"x_min":0,"x_max":0,"o":"m 181 1271 l 294 1271 b 319 1208 294 1250 303 1229 b 403 1175 335 1186 363 1175 b 488 1208 444 1175 472 1186 b 513 1271 504 1229 513 1250 l 626 1271 b 601 1174 626 1237 618 1204 b 526 1101 584 1144 559 1120 b 403 1072 493 1082 452 1072 b 281 1101 355 1072 314 1082 b 206 1174 247 1120 222 1144 b 181 1271 189 1204 181 1237 z m 269 450 l 269 144 l 700 144 l 700 0 l 269 0 l 210 0 l 108 0 l 108 972 l 210 972 l 269 972 l 700 972 l 700 828 l 269 828 l 269 592 l 672 592 l 672 450 z "},"ĕ":{"ha":747,"x_min":0,"x_max":0,"o":"m 158 935 l 272 935 b 297 872 272 914 280 893 b 381 839 313 850 341 839 b 465 872 421 839 450 850 b 489 935 481 893 489 914 l 604 935 b 578 838 604 900 596 868 b 503 765 561 808 536 784 b 381 736 471 746 430 736 b 258 765 332 736 292 746 b 183 838 225 784 200 808 b 158 935 167 868 158 900 z m 201 285 b 258 153 207 226 226 183 b 381 110 291 124 331 110 b 491 137 424 110 461 119 b 564 211 521 155 545 180 l 694 158 b 575 33 663 106 623 65 b 374 -14 527 2 460 -14 b 201 29 308 -14 250 0 b 88 148 152 58 114 97 b 47 319 61 198 47 256 b 49 354 47 331 48 343 b 53 388 50 365 51 376 b 158 579 66 466 101 530 b 381 653 215 628 289 653 b 615 565 480 653 558 624 b 700 326 672 507 700 427 b 699 307 700 321 700 314 b 697 285 699 300 698 292 z m 204 389 l 538 389 b 491 498 532 434 516 471 b 379 539 466 525 428 539 b 263 499 334 539 295 526 b 204 389 230 473 211 436 z "},"Ė":{"ha":793,"x_min":0,"x_max":0,"o":"m 308 1164 b 336 1229 308 1190 318 1212 b 403 1256 355 1247 377 1256 b 471 1229 430 1256 452 1247 b 499 1164 489 1212 499 1190 b 471 1099 499 1138 489 1116 b 403 1072 452 1081 430 1072 b 336 1099 377 1072 355 1081 b 308 1164 318 1116 308 1138 z m 269 450 l 269 144 l 700 144 l 700 0 l 269 0 l 210 0 l 108 0 l 108 972 l 210 972 l 269 972 l 700 972 l 700 828 l 269 828 l 269 592 l 672 592 l 672 450 z "},"ė":{"ha":747,"x_min":0,"x_max":0,"o":"m 286 828 b 314 893 286 854 295 875 b 381 919 332 911 355 919 b 448 893 407 919 430 911 b 475 828 466 875 475 854 b 448 763 475 802 466 780 b 381 736 430 745 407 736 b 314 763 355 736 332 745 b 286 828 295 780 286 802 z m 201 285 b 258 153 207 226 226 183 b 381 110 291 124 331 110 b 491 137 424 110 461 119 b 564 211 521 155 545 180 l 694 158 b 575 33 663 106 623 65 b 374 -14 527 2 460 -14 b 201 29 308 -14 250 0 b 88 148 152 58 114 97 b 47 319 61 198 47 256 b 49 354 47 331 48 343 b 53 388 50 365 51 376 b 158 579 66 466 101 530 b 381 653 215 628 289 653 b 615 565 480 653 558 624 b 700 326 672 507 700 427 b 699 307 700 321 700 314 b 697 285 699 300 698 292 z m 204 389 l 538 389 b 491 498 532 434 516 471 b 379 539 466 525 428 539 b 263 499 334 539 295 526 b 204 389 230 473 211 436 z "},"Ę":{"ha":793,"x_min":0,"x_max":0,"o":"m 526 -169 l 572 -250 b 525 -288 562 -264 546 -277 b 443 -306 504 -300 476 -306 b 319 -268 390 -306 349 -293 b 275 -167 290 -243 275 -209 b 312 -74 275 -132 287 -102 b 401 0 336 -47 366 -22 l 269 0 l 210 0 l 108 0 l 108 972 l 210 972 l 269 972 l 700 972 l 700 828 l 269 828 l 269 592 l 672 592 l 672 450 l 269 450 l 269 144 l 700 144 l 700 0 l 519 0 b 431 -62 483 -17 454 -37 b 397 -136 409 -87 397 -112 b 413 -183 397 -158 402 -174 b 457 -197 423 -193 438 -197 b 497 -190 474 -197 487 -195 b 526 -169 507 -186 517 -179 z "},"ę":{"ha":747,"x_min":0,"x_max":0,"o":"m 431 -167 l 476 -246 b 429 -284 466 -260 450 -272 b 347 -301 408 -296 381 -301 b 224 -264 294 -301 253 -289 b 181 -162 195 -239 181 -205 b 213 -76 181 -131 191 -102 b 292 -6 234 -50 260 -27 b 113 108 217 11 157 49 b 47 319 69 166 47 237 b 49 354 47 331 48 343 b 53 388 50 365 51 376 b 158 579 66 466 101 530 b 381 653 215 628 289 653 b 615 565 480 653 558 624 b 700 326 672 507 700 427 b 699 307 700 321 700 314 b 697 285 699 300 698 292 l 201 285 b 258 153 207 226 226 183 b 381 110 291 124 331 110 b 491 137 424 110 461 119 b 564 211 521 155 545 180 l 694 158 b 580 35 664 107 626 66 b 390 -14 534 4 471 -12 b 326 -71 363 -31 342 -50 b 301 -132 309 -92 301 -112 b 361 -194 301 -174 321 -194 b 401 -187 378 -194 391 -192 b 431 -167 412 -183 421 -176 z m 204 389 l 538 389 b 491 498 532 434 516 471 b 379 539 466 525 428 539 b 263 499 334 539 295 526 b 204 389 230 473 211 436 z "},"Ě":{"ha":793,"x_min":0,"x_max":0,"o":"m 403 1214 l 546 1340 l 647 1267 l 403 1072 l 161 1267 l 261 1340 z m 269 450 l 269 144 l 700 144 l 700 0 l 269 0 l 210 0 l 108 0 l 108 972 l 210 972 l 269 972 l 700 972 l 700 828 l 269 828 l 269 592 l 672 592 l 672 450 z "},"ě":{"ha":747,"x_min":0,"x_max":0,"o":"m 381 878 l 524 1004 l 624 931 l 381 736 l 138 931 l 239 1004 z m 201 285 b 258 153 207 226 226 183 b 381 110 291 124 331 110 b 491 137 424 110 461 119 b 564 211 521 155 545 180 l 694 158 b 575 33 663 106 623 65 b 374 -14 527 2 460 -14 b 201 29 308 -14 250 0 b 88 148 152 58 114 97 b 47 319 61 198 47 256 b 49 354 47 331 48 343 b 53 388 50 365 51 376 b 158 579 66 466 101 530 b 381 653 215 628 289 653 b 615 565 480 653 558 624 b 700 326 672 507 700 427 b 699 307 700 321 700 314 b 697 285 699 300 698 292 z m 204 389 l 538 389 b 491 498 532 434 516 471 b 379 539 466 525 428 539 b 263 499 334 539 295 526 b 204 389 230 473 211 436 z "},"Ĝ":{"ha":1097,"x_min":0,"x_max":0,"o":"m 564 1200 l 422 1072 l 321 1146 l 564 1340 l 807 1146 l 707 1072 z m 571 369 l 571 508 l 1039 508 b 1011 306 1041 437 1031 370 b 919 138 991 243 960 187 b 768 22 879 88 828 50 b 561 -21 708 -7 639 -21 b 358 16 488 -21 420 -9 b 197 121 296 41 242 75 b 90 282 151 166 115 220 b 53 486 65 344 53 412 b 91 690 53 560 66 628 b 198 849 116 751 152 804 b 360 952 244 893 298 928 b 564 989 423 977 491 989 b 812 932 658 989 741 970 b 982 774 883 894 939 841 l 849 683 b 737 794 822 730 784 767 b 564 836 689 822 631 836 b 392 793 501 836 444 822 b 270 672 341 764 300 724 b 225 486 240 619 225 557 b 269 301 225 416 240 354 b 391 176 299 247 340 206 b 564 132 442 147 500 132 b 713 164 621 132 671 143 b 814 250 754 185 788 214 b 868 369 840 286 858 326 z "},"ĝ":{"ha":814,"x_min":0,"x_max":0,"o":"m 397 864 l 254 736 l 153 810 l 397 1004 l 639 810 l 539 736 z m 203 322 b 260 175 203 258 222 209 b 394 124 298 141 343 124 b 479 146 423 124 451 131 b 549 213 507 161 530 183 b 576 322 567 242 576 279 b 549 432 576 366 567 402 b 479 499 530 462 507 484 b 394 522 451 515 423 522 b 260 470 343 522 298 505 b 203 322 222 435 203 386 z m 47 322 b 90 501 47 393 62 452 b 204 614 119 550 157 588 b 358 653 251 640 303 653 b 576 535 454 653 526 613 l 576 639 l 724 639 l 724 14 b 677 -176 724 -63 708 -126 b 556 -288 646 -226 606 -264 b 393 -325 506 -313 451 -325 b 151 -247 289 -325 209 -299 b 60 -43 93 -194 63 -126 l 208 -43 b 260 -151 210 -86 227 -122 b 389 -194 292 -180 335 -194 b 479 -172 420 -194 450 -187 b 549 -104 508 -157 531 -135 b 576 14 567 -74 576 -34 l 576 110 b 358 -7 526 32 454 -7 b 204 31 303 -7 251 6 b 90 143 157 57 119 94 b 47 322 62 192 47 252 z "},"Ğ":{"ha":1097,"x_min":0,"x_max":0,"o":"m 342 1271 l 456 1271 b 480 1208 456 1250 464 1229 b 564 1175 496 1186 524 1175 b 649 1208 605 1175 633 1186 b 672 1271 664 1229 672 1250 l 788 1271 b 762 1174 788 1237 779 1204 b 687 1101 745 1144 720 1120 b 564 1072 654 1082 613 1072 b 442 1101 516 1072 475 1082 b 367 1174 408 1120 383 1144 b 342 1271 350 1204 342 1237 z m 571 369 l 571 508 l 1039 508 b 1011 306 1041 437 1031 370 b 919 138 991 243 960 187 b 768 22 879 88 828 50 b 561 -21 708 -7 639 -21 b 358 16 488 -21 420 -9 b 197 121 296 41 242 75 b 90 282 151 166 115 220 b 53 486 65 344 53 412 b 91 690 53 560 66 628 b 198 849 116 751 152 804 b 360 952 244 893 298 928 b 564 989 423 977 491 989 b 812 932 658 989 741 970 b 982 774 883 894 939 841 l 849 683 b 737 794 822 730 784 767 b 564 836 689 822 631 836 b 392 793 501 836 444 822 b 270 672 341 764 300 724 b 225 486 240 619 225 557 b 269 301 225 416 240 354 b 391 176 299 247 340 206 b 564 132 442 147 500 132 b 713 164 621 132 671 143 b 814 250 754 185 788 214 b 868 369 840 286 858 326 z "},"ğ":{"ha":814,"x_min":0,"x_max":0,"o":"m 174 935 l 288 935 b 313 872 288 914 296 893 b 397 839 329 850 357 839 b 482 872 438 839 466 850 b 506 935 498 893 506 914 l 619 935 b 594 838 619 900 611 868 b 520 765 578 808 553 784 b 397 736 487 746 446 736 b 275 765 349 736 308 746 b 199 838 242 784 216 808 b 174 935 182 868 174 900 z m 203 322 b 260 175 203 258 222 209 b 394 124 298 141 343 124 b 479 146 423 124 451 131 b 549 213 507 161 530 183 b 576 322 567 242 576 279 b 549 432 576 366 567 402 b 479 499 530 462 507 484 b 394 522 451 515 423 522 b 260 470 343 522 298 505 b 203 322 222 435 203 386 z m 47 322 b 90 501 47 393 62 452 b 204 614 119 550 157 588 b 358 653 251 640 303 653 b 576 535 454 653 526 613 l 576 639 l 724 639 l 724 14 b 677 -176 724 -63 708 -126 b 556 -288 646 -226 606 -264 b 393 -325 506 -313 451 -325 b 151 -247 289 -325 209 -299 b 60 -43 93 -194 63 -126 l 208 -43 b 260 -151 210 -86 227 -122 b 389 -194 292 -180 335 -194 b 479 -172 420 -194 450 -187 b 549 -104 508 -157 531 -135 b 576 14 567 -74 576 -34 l 576 110 b 358 -7 526 32 454 -7 b 204 31 303 -7 251 6 b 90 143 157 57 119 94 b 47 322 62 192 47 252 z "},"Ġ":{"ha":1097,"x_min":0,"x_max":0,"o":"m 469 1164 b 497 1229 469 1190 479 1212 b 564 1256 516 1247 538 1256 b 631 1229 591 1256 613 1247 b 658 1164 649 1212 658 1190 b 631 1099 658 1138 649 1116 b 564 1072 613 1081 591 1072 b 497 1099 538 1072 516 1081 b 469 1164 479 1116 469 1138 z m 571 369 l 571 508 l 1039 508 b 1011 306 1041 437 1031 370 b 919 138 991 243 960 187 b 768 22 879 88 828 50 b 561 -21 708 -7 639 -21 b 358 16 488 -21 420 -9 b 197 121 296 41 242 75 b 90 282 151 166 115 220 b 53 486 65 344 53 412 b 91 690 53 560 66 628 b 198 849 116 751 152 804 b 360 952 244 893 298 928 b 564 989 423 977 491 989 b 812 932 658 989 741 970 b 982 774 883 894 939 841 l 849 683 b 737 794 822 730 784 767 b 564 836 689 822 631 836 b 392 793 501 836 444 822 b 270 672 341 764 300 724 b 225 486 240 619 225 557 b 269 301 225 416 240 354 b 391 176 299 247 340 206 b 564 132 442 147 500 132 b 713 164 621 132 671 143 b 814 250 754 185 788 214 b 868 369 840 286 858 326 z "},"ġ":{"ha":814,"x_min":0,"x_max":0,"o":"m 313 869 b 340 935 313 895 322 917 b 407 961 359 952 381 961 b 474 935 434 961 456 952 b 501 869 492 917 501 895 b 474 804 501 844 492 822 b 407 778 456 787 434 778 b 340 804 381 778 359 787 b 313 869 322 822 313 844 z m 203 322 b 260 175 203 258 222 209 b 394 124 298 141 343 124 b 479 146 423 124 451 131 b 549 213 507 161 530 183 b 576 322 567 242 576 279 b 549 432 576 366 567 402 b 479 499 530 462 507 484 b 394 522 451 515 423 522 b 260 470 343 522 298 505 b 203 322 222 435 203 386 z m 47 322 b 90 501 47 393 62 452 b 204 614 119 550 157 588 b 358 653 251 640 303 653 b 576 535 454 653 526 613 l 576 639 l 724 639 l 724 14 b 677 -176 724 -63 708 -126 b 556 -288 646 -226 606 -264 b 393 -325 506 -313 451 -325 b 151 -247 289 -325 209 -299 b 60 -43 93 -194 63 -126 l 208 -43 b 260 -151 210 -86 227 -122 b 389 -194 292 -180 335 -194 b 479 -172 420 -194 450 -187 b 549 -104 508 -157 531 -135 b 576 14 567 -74 576 -34 l 576 110 b 358 -7 526 32 454 -7 b 204 31 303 -7 251 6 b 90 143 157 57 119 94 b 47 322 62 192 47 252 z "},"Ģ":{"ha":1097,"x_min":0,"x_max":0,"o":"m 529 -104 l 681 -147 l 518 -494 l 407 -464 z m 571 369 l 571 508 l 1039 508 b 1011 306 1041 437 1031 370 b 919 138 991 243 960 187 b 768 22 879 88 828 50 b 561 -21 708 -7 639 -21 b 358 16 488 -21 420 -9 b 197 121 296 41 242 75 b 90 282 151 166 115 220 b 53 486 65 344 53 412 b 91 690 53 560 66 628 b 198 849 116 751 152 804 b 360 952 244 893 298 928 b 564 989 423 977 491 989 b 812 932 658 989 741 970 b 982 774 883 894 939 841 l 849 683 b 737 794 822 730 784 767 b 564 836 689 822 631 836 b 392 793 501 836 444 822 b 270 672 341 764 300 724 b 225 486 240 619 225 557 b 269 301 225 416 240 354 b 391 176 299 247 340 206 b 564 132 442 147 500 132 b 713 164 621 132 671 143 b 814 250 754 185 788 214 b 868 369 840 286 858 326 z "},"Ĥ":{"ha":1032,"x_min":0,"x_max":0,"o":"m 517 1200 l 375 1072 l 274 1146 l 517 1340 l 760 1146 l 660 1072 z m 108 972 l 272 972 l 272 597 l 761 597 l 761 972 l 925 972 l 925 0 l 761 0 l 761 446 l 272 446 l 272 0 l 108 0 z "},"ĥ":{"ha":753,"x_min":0,"x_max":0,"o":"m 231 1293 l 89 1167 l -12 1239 l 231 1433 l 474 1239 l 372 1167 z m 507 389 b 478 495 507 435 497 471 b 389 532 459 520 430 532 b 286 492 346 532 312 519 b 247 389 260 466 247 431 l 247 0 l 96 0 l 96 1083 l 247 1083 l 247 554 b 328 629 269 586 296 611 b 439 657 361 648 398 657 b 602 594 510 657 565 636 b 658 410 640 552 658 490 l 658 0 l 507 0 z "},"Ĩ":{"ha":382,"x_min":0,"x_max":0,"o":"m -56 1140 b -1 1226 -48 1175 -30 1203 b 97 1261 28 1250 61 1261 b 154 1251 120 1261 139 1258 b 194 1227 169 1244 182 1236 b 230 1203 205 1218 217 1210 b 278 1193 242 1197 258 1193 b 321 1211 294 1193 308 1199 b 361 1263 334 1223 347 1240 l 439 1186 b 377 1113 428 1160 407 1136 b 275 1078 347 1089 313 1078 b 210 1095 250 1078 228 1084 b 156 1129 191 1107 173 1118 b 97 1146 139 1140 119 1146 b 55 1133 79 1146 65 1141 b 35 1103 45 1124 38 1114 b 29 1075 31 1092 29 1082 z m 108 972 l 275 972 l 275 0 l 108 0 z "},"ĩ":{"ha":369,"x_min":0,"x_max":0,"o":"m -61 804 b -6 890 -54 838 -35 867 b 92 925 23 913 56 925 b 148 915 115 925 134 922 b 187 891 162 908 175 900 b 223 867 198 882 210 874 b 271 857 235 860 251 857 b 314 875 287 857 301 863 b 354 926 327 887 340 904 l 432 849 b 370 775 421 823 400 798 b 268 740 340 752 306 740 b 203 758 243 740 221 746 b 149 792 184 769 166 781 b 90 810 132 804 113 810 b 48 797 72 810 58 805 b 28 767 38 788 31 778 b 22 739 24 756 22 746 z m 111 639 l 258 639 l 258 0 l 111 0 z "},"Ī":{"ha":382,"x_min":0,"x_max":0,"o":"m -58 1072 l -58 1208 l 440 1208 l 440 1072 z m 108 972 l 275 972 l 275 0 l 108 0 z "},"ī":{"ha":369,"x_min":0,"x_max":0,"o":"m -64 736 l -64 872 l 433 872 l 433 736 z m 111 639 l 258 639 l 258 0 l 111 0 z "},"Ĭ":{"ha":382,"x_min":0,"x_max":0,"o":"m -32 1271 l 83 1271 b 108 1208 83 1250 91 1229 b 192 1175 124 1186 152 1175 b 276 1208 232 1175 261 1186 b 300 1271 292 1229 300 1250 l 414 1271 b 389 1174 414 1237 406 1204 b 315 1101 372 1144 347 1120 b 192 1072 282 1082 241 1072 b 69 1101 144 1072 103 1082 b -6 1174 36 1120 11 1144 b -32 1271 -23 1204 -32 1237 z m 108 972 l 275 972 l 275 0 l 108 0 z "},"ĭ":{"ha":369,"x_min":0,"x_max":0,"o":"m -39 935 l 76 935 b 101 872 76 914 84 893 b 185 839 117 850 145 839 b 269 872 225 839 254 850 b 293 935 285 893 293 914 l 408 935 b 383 838 408 900 400 868 b 308 765 366 808 341 784 b 185 736 275 746 234 736 b 63 765 137 736 96 746 b -13 838 29 784 4 808 b -39 935 -30 868 -39 900 z m 111 639 l 258 639 l 258 0 l 111 0 z "},"Į":{"ha":382,"x_min":0,"x_max":0,"o":"m 267 -169 l 313 -249 b 265 -287 302 -262 287 -275 b 183 -304 244 -298 217 -304 b 60 -267 131 -304 90 -292 b 17 -165 31 -242 17 -208 b 52 -74 17 -132 28 -102 b 139 0 76 -47 105 -22 l 108 0 l 108 972 l 275 972 l 275 0 l 257 0 b 171 -62 222 -17 193 -37 b 138 -135 149 -86 138 -111 b 197 -197 138 -176 157 -197 b 238 -190 214 -197 227 -195 b 267 -169 248 -186 257 -179 z "},"į":{"ha":369,"x_min":0,"x_max":0,"o":"m 251 -169 l 297 -250 b 250 -288 287 -264 271 -277 b 168 -306 229 -300 201 -306 b 45 -268 115 -306 74 -293 b 1 -167 16 -243 1 -209 b 38 -74 1 -132 13 -102 b 126 0 62 -47 91 -22 l 111 0 l 111 639 l 258 639 l 258 0 l 244 0 b 156 -62 208 -17 179 -37 b 122 -136 134 -87 122 -112 b 138 -183 122 -158 127 -174 b 182 -197 148 -193 163 -197 b 222 -190 199 -197 212 -195 b 251 -169 232 -186 242 -179 z m 90 893 b 118 958 90 919 100 941 b 185 985 137 976 159 985 b 253 958 212 985 234 976 b 281 893 271 941 281 919 b 253 828 281 867 271 845 b 185 801 234 810 212 801 b 118 828 159 801 137 810 b 90 893 100 845 90 867 z "},"İ":{"ha":382,"x_min":0,"x_max":0,"o":"m 96 1164 b 124 1229 96 1190 105 1212 b 190 1256 142 1247 164 1256 b 258 1229 217 1256 240 1247 b 285 1164 276 1212 285 1190 b 258 1099 285 1138 276 1116 b 190 1072 240 1081 217 1072 b 124 1099 164 1072 142 1081 b 96 1164 105 1116 96 1138 z m 108 972 l 275 972 l 275 0 l 108 0 z "},"ı":{"ha":369,"x_min":0,"x_max":0,"o":"m 111 639 l 258 639 l 258 0 l 111 0 z "},"Ĳ":{"ha":754,"x_min":0,"x_max":0,"o":"m 108 972 l 275 972 l 275 0 l 108 0 z m 275 -122 b 386 -169 299 -154 336 -169 b 449 -143 407 -169 428 -161 b 479 -50 469 -125 479 -94 l 479 972 l 647 972 l 647 -81 b 575 -260 647 -163 623 -223 b 392 -317 527 -298 466 -317 b 270 -291 348 -317 308 -308 b 188 -243 233 -274 205 -258 z "},"ĳ":{"ha":728,"x_min":0,"x_max":0,"o":"m 111 639 l 258 639 l 258 0 l 111 0 z m 90 893 b 118 958 90 919 100 941 b 185 985 137 976 159 985 b 253 958 212 985 234 976 b 281 893 271 941 281 919 b 253 828 281 867 271 845 b 185 801 234 810 212 801 b 118 828 159 801 137 810 b 90 893 100 845 90 867 z m 336 -137 b 368 -167 346 -152 357 -162 b 403 -174 379 -171 391 -174 b 452 -147 424 -174 441 -165 b 469 -61 464 -130 469 -101 l 469 639 l 617 639 l 617 -90 b 563 -258 617 -163 599 -219 b 408 -317 526 -297 475 -317 b 319 -296 371 -317 341 -310 b 265 -254 296 -282 278 -268 z m 447 893 b 476 958 447 919 457 941 b 543 985 495 976 517 985 b 610 958 570 985 592 976 b 638 893 628 941 638 919 b 610 828 638 867 628 845 b 543 801 592 810 570 801 b 476 828 517 801 495 810 b 447 893 457 845 447 867 z "},"Ĵ":{"ha":383,"x_min":0,"x_max":0,"o":"m 192 1200 l 50 1072 l -51 1146 l 192 1340 l 435 1146 l 333 1072 z m -96 -122 b 15 -169 -72 -154 -35 -169 b 78 -143 37 -169 57 -161 b 108 -50 98 -125 108 -94 l 108 972 l 276 972 l 276 -81 b 243 -215 276 -135 265 -180 b 151 -292 221 -250 190 -276 b 19 -317 113 -309 69 -317 b -101 -291 -24 -317 -64 -308 b -183 -243 -138 -274 -166 -258 z "},"ĵ":{"ha":358,"x_min":0,"x_max":0,"o":"m 175 864 l 32 736 l -69 810 l 175 1004 l 417 810 l 317 736 z m -33 -137 b -1 -167 -23 -152 -12 -162 b 33 -174 10 -171 21 -174 b 83 -147 55 -174 71 -165 b 100 -61 94 -130 100 -101 l 100 639 l 249 639 l 249 -90 b 195 -258 249 -163 231 -219 b 42 -317 159 -297 108 -317 b -49 -296 5 -317 -25 -310 b -103 -254 -72 -282 -90 -268 z "},"Ķ":{"ha":860,"x_min":0,"x_max":0,"o":"m 453 -83 l 606 -126 l 443 -474 l 331 -443 z m 638 972 l 836 972 l 425 517 l 856 0 l 654 0 l 276 454 l 276 0 l 108 0 l 108 972 l 276 972 l 276 567 z "},"ķ":{"ha":688,"x_min":0,"x_max":0,"o":"m 358 -83 l 510 -126 l 349 -474 l 236 -443 z m 472 639 l 656 639 l 381 375 l 683 0 l 501 0 l 238 325 l 238 0 l 90 0 l 90 1083 l 238 1083 l 238 414 z "},"ĸ":{"ha":688,"x_min":0,"x_max":0,"o":"m 472 639 l 656 639 l 381 375 l 683 0 l 501 0 l 238 325 l 238 0 l 90 0 l 90 639 l 238 639 l 238 414 z "},"Ĺ":{"ha":668,"x_min":0,"x_max":0,"o":"m 581 1281 l 331 1072 l 246 1122 l 454 1344 z m 108 972 l 272 972 l 272 147 l 658 147 l 658 0 l 108 0 z "},"ĺ":{"ha":342,"x_min":0,"x_max":0,"o":"m 369 1375 l 119 1167 l 33 1215 l 242 1438 z m 96 1083 l 247 1083 l 247 0 l 96 0 z "},"Ļ":{"ha":668,"x_min":0,"x_max":0,"o":"m 368 -83 l 519 -126 l 358 -474 l 246 -443 z m 108 972 l 272 972 l 272 147 l 658 147 l 658 0 l 108 0 z "},"ļ":{"ha":342,"x_min":0,"x_max":0,"o":"m 157 -83 l 308 -126 l 146 -474 l 35 -443 z m 96 1083 l 247 1083 l 247 0 l 96 0 z "},"Ľ":{"ha":668,"x_min":0,"x_max":0,"o":"m 503 989 l 653 947 l 492 600 l 381 631 z m 108 972 l 272 972 l 272 147 l 658 147 l 658 0 l 108 0 z "},"ľ":{"ha":342,"x_min":0,"x_max":0,"o":"m 439 1083 l 589 1040 l 428 693 l 317 724 z m 96 1083 l 247 1083 l 247 0 l 96 0 z "},"Ŀ":{"ha":668,"x_min":0,"x_max":0,"o":"m 392 585 b 420 653 392 612 401 634 b 490 682 439 672 463 682 b 560 653 518 682 541 672 b 589 585 579 634 589 612 b 560 517 589 559 579 536 b 490 488 541 497 518 488 b 420 517 463 488 439 497 b 392 585 401 536 392 559 z m 108 972 l 272 972 l 272 147 l 658 147 l 658 0 l 108 0 z "},"ŀ":{"ha":572,"x_min":0,"x_max":0,"o":"m 319 572 b 348 641 319 599 329 622 b 418 669 367 660 390 669 b 488 641 446 669 469 660 b 517 572 507 622 517 599 b 488 504 517 546 507 524 b 418 475 469 485 446 475 b 348 504 390 475 367 485 b 319 572 329 524 319 546 z m 96 1083 l 247 1083 l 247 0 l 96 0 z "},"Ł":{"ha":671,"x_min":0,"x_max":0,"o":"m 108 972 l 272 972 l 272 739 l 396 819 l 433 733 l 272 628 l 272 147 l 658 147 l 658 0 l 108 0 l 108 522 l 7 456 l -31 542 l 108 632 z "},"ł":{"ha":342,"x_min":0,"x_max":0,"o":"m 96 1083 l 247 1083 l 247 722 l 354 789 l 392 701 l 247 611 l 247 0 l 96 0 l 96 515 l 0 456 l -39 542 l 96 626 z "},"Ń":{"ha":1086,"x_min":0,"x_max":0,"o":"m 771 1261 l 521 1053 l 436 1100 l 644 1322 z m 818 972 l 979 972 l 979 -49 l 269 653 l 269 0 l 108 0 l 108 1021 l 818 319 z "},"ń":{"ha":757,"x_min":0,"x_max":0,"o":"m 586 944 l 336 736 l 253 785 l 461 1007 z m 507 389 b 478 495 507 435 497 471 b 389 532 459 520 430 532 b 286 492 346 532 312 519 b 247 389 260 466 247 431 l 247 0 l 96 0 l 96 639 l 247 639 l 247 540 b 324 623 266 575 291 603 b 439 653 357 643 395 653 b 603 590 510 653 565 632 b 661 406 642 547 661 486 l 661 0 l 507 0 z "},"Ņ":{"ha":1086,"x_min":0,"x_max":0,"o":"m 818 972 l 979 972 l 979 -49 l 269 653 l 269 0 l 108 0 l 108 1021 l 818 319 z m 535 -58 l 685 -103 l 524 -450 l 413 -419 z "},"ņ":{"ha":757,"x_min":0,"x_max":0,"o":"m 364 -83 l 514 -126 l 353 -474 l 242 -443 z m 507 389 b 478 495 507 435 497 471 b 389 532 459 520 430 532 b 286 492 346 532 312 519 b 247 389 260 466 247 431 l 247 0 l 96 0 l 96 639 l 247 639 l 247 551 b 328 626 269 583 296 608 b 439 653 361 644 398 653 b 603 590 510 653 565 632 b 661 406 642 547 661 486 l 661 0 l 507 0 z "},"Ň":{"ha":1086,"x_min":0,"x_max":0,"o":"m 818 972 l 979 972 l 979 -49 l 269 653 l 269 0 l 108 0 l 108 1021 l 818 319 z m 542 1235 l 683 1361 l 785 1289 l 542 1094 l 299 1289 l 400 1361 z "},"ň":{"ha":757,"x_min":0,"x_max":0,"o":"m 378 878 l 519 1004 l 621 931 l 378 736 l 135 931 l 236 1004 z m 507 389 b 478 495 507 435 497 471 b 389 532 459 520 430 532 b 286 492 346 532 312 519 b 247 389 260 466 247 431 l 247 0 l 96 0 l 96 639 l 247 639 l 247 551 b 328 626 269 583 296 608 b 439 653 361 644 398 653 b 603 590 510 653 565 632 b 661 406 642 547 661 486 l 661 0 l 507 0 z "},"ŉ":{"ha":944,"x_min":0,"x_max":0,"o":"m 169 972 l 336 972 l 196 639 l 90 639 z m 694 389 b 575 532 694 484 655 532 b 472 492 532 532 498 519 b 433 389 446 466 433 431 l 433 0 l 283 0 l 283 639 l 433 639 l 433 550 b 515 626 455 582 482 608 b 626 653 547 644 585 653 b 791 590 698 653 753 632 b 849 406 829 547 849 486 l 849 0 l 694 0 z "},"Ō":{"ha":1114,"x_min":0,"x_max":0,"o":"m 308 1072 l 308 1208 l 806 1208 l 806 1072 z m 53 486 b 90 687 53 558 65 625 b 197 847 115 748 151 802 b 357 951 242 891 296 926 b 557 989 418 976 485 989 b 758 951 629 989 696 976 b 919 847 819 926 873 891 b 1025 687 965 802 1000 748 b 1063 486 1050 625 1063 558 b 1025 285 1063 414 1050 347 b 919 124 1000 224 965 170 b 759 17 874 78 821 43 b 557 -21 697 -8 630 -21 b 356 17 484 -21 417 -8 b 196 124 294 43 241 78 b 90 285 150 170 115 224 b 53 486 65 347 53 414 z m 226 486 b 269 308 226 419 241 360 b 386 185 297 255 336 214 b 557 140 436 155 493 140 b 728 185 622 140 679 155 b 845 308 778 214 817 255 b 888 486 873 360 888 419 b 845 665 888 553 873 612 b 728 788 817 717 778 758 b 557 832 679 817 622 832 b 386 788 493 832 436 817 b 269 665 336 758 297 717 b 226 486 241 612 226 553 z "},"ō":{"ha":782,"x_min":0,"x_max":0,"o":"m 142 736 l 142 872 l 640 872 l 640 736 z m 201 319 b 256 174 201 260 220 212 b 392 118 293 137 338 118 b 528 174 446 118 492 137 b 582 319 564 212 582 260 b 528 465 582 380 564 428 b 392 521 492 502 446 521 b 256 465 338 521 293 502 b 201 319 220 428 201 380 z m 47 319 b 92 493 47 385 62 443 b 216 610 122 543 164 582 b 392 653 268 639 327 653 b 568 610 457 653 516 639 b 691 493 620 582 661 543 b 736 319 721 443 736 385 b 691 146 736 254 721 196 b 568 28 661 96 620 57 b 392 -14 516 0 457 -14 b 216 28 327 -14 268 0 b 92 146 164 57 122 96 b 47 319 62 196 47 254 z "},"Ŏ":{"ha":1114,"x_min":0,"x_max":0,"o":"m 335 1271 l 449 1271 b 473 1208 449 1250 457 1229 b 557 1175 489 1186 517 1175 b 642 1208 598 1175 626 1186 b 667 1271 659 1229 667 1250 l 781 1271 b 755 1174 781 1237 772 1204 b 680 1101 738 1144 713 1120 b 557 1072 647 1082 606 1072 b 435 1101 509 1072 468 1082 b 360 1174 401 1120 376 1144 b 335 1271 343 1204 335 1237 z m 53 486 b 90 687 53 558 65 625 b 197 847 115 748 151 802 b 357 951 242 891 296 926 b 557 989 418 976 485 989 b 758 951 629 989 696 976 b 919 847 819 926 873 891 b 1025 687 965 802 1000 748 b 1063 486 1050 625 1063 558 b 1025 285 1063 414 1050 347 b 919 124 1000 224 965 170 b 759 17 874 78 821 43 b 557 -21 697 -8 630 -21 b 356 17 484 -21 417 -8 b 196 124 294 43 241 78 b 90 285 150 170 115 224 b 53 486 65 347 53 414 z m 226 486 b 269 308 226 419 241 360 b 386 185 297 255 336 214 b 557 140 436 155 493 140 b 728 185 622 140 679 155 b 845 308 778 214 817 255 b 888 486 873 360 888 419 b 845 665 888 553 873 612 b 728 788 817 717 778 758 b 557 832 679 817 622 832 b 386 788 493 832 436 817 b 269 665 336 758 297 717 b 226 486 241 612 226 553 z "},"ŏ":{"ha":782,"x_min":0,"x_max":0,"o":"m 168 935 l 283 935 b 308 872 283 914 291 893 b 392 839 324 850 352 839 b 476 872 432 839 461 850 b 500 935 492 893 500 914 l 614 935 b 589 838 614 900 606 868 b 515 765 572 808 547 784 b 392 736 482 746 441 736 b 269 765 344 736 303 746 b 194 838 236 784 211 808 b 168 935 177 868 168 900 z m 201 319 b 256 174 201 260 220 212 b 392 118 293 137 338 118 b 528 174 446 118 492 137 b 582 319 564 212 582 260 b 528 465 582 380 564 428 b 392 521 492 502 446 521 b 256 465 338 521 293 502 b 201 319 220 428 201 380 z m 47 319 b 92 493 47 385 62 443 b 216 610 122 543 164 582 b 392 653 268 639 327 653 b 568 610 457 653 516 639 b 691 493 620 582 661 543 b 736 319 721 443 736 385 b 691 146 736 254 721 196 b 568 28 661 96 620 57 b 392 -14 516 0 457 -14 b 216 28 327 -14 268 0 b 92 146 164 57 122 96 b 47 319 62 196 47 254 z "},"Œ":{"ha":1368,"x_min":0,"x_max":0,"o":"m 1292 144 l 1292 0 l 542 0 b 290 61 448 0 364 20 b 116 231 216 102 158 159 b 53 486 74 304 53 389 b 116 741 53 583 74 668 b 290 911 158 814 216 870 b 542 972 363 952 447 972 l 1290 972 l 1290 828 l 860 828 l 860 592 l 1263 592 l 1263 450 l 860 450 l 860 144 z m 697 822 l 558 822 b 312 733 455 822 372 792 b 221 486 251 673 221 591 b 312 240 221 382 251 300 b 558 150 372 180 455 150 l 697 150 z "},"œ":{"ha":1250,"x_min":0,"x_max":0,"o":"m 200 319 b 256 170 200 255 219 205 b 389 118 293 135 337 118 b 508 170 434 118 474 135 b 558 319 541 205 558 255 b 508 469 558 385 541 435 b 389 521 474 504 434 521 b 256 469 337 521 293 504 b 200 319 219 435 200 385 z m 49 319 b 92 498 49 389 63 448 b 207 613 120 547 159 586 b 365 653 255 639 308 653 b 528 603 429 653 483 636 b 625 465 572 571 605 525 b 737 602 649 523 686 568 b 914 653 787 636 846 653 b 1056 613 965 653 1012 639 b 1161 499 1099 586 1134 548 b 1201 325 1188 451 1201 393 l 1201 305 b 1200 285 1201 297 1201 290 l 704 285 b 760 154 710 228 728 185 b 883 108 791 124 832 108 b 992 136 927 108 963 118 b 1067 211 1022 155 1046 180 l 1196 158 b 1075 35 1165 108 1125 67 b 897 -14 1025 2 966 -14 b 732 37 835 -14 780 3 b 625 172 684 71 648 116 b 528 35 605 113 572 67 b 365 -14 483 2 429 -14 b 207 26 308 -14 255 0 b 92 142 159 53 120 92 b 49 319 63 192 49 251 z m 707 388 l 1039 388 b 992 497 1033 433 1018 469 b 883 539 967 525 931 539 b 766 499 839 539 800 526 b 707 388 732 473 713 436 z "},"Ŕ":{"ha":826,"x_min":0,"x_max":0,"o":"m 599 1281 l 349 1072 l 264 1122 l 472 1344 z m 272 368 l 272 0 l 108 0 l 108 972 l 206 972 l 272 972 l 408 972 b 592 935 479 972 540 960 b 715 829 645 910 685 875 b 758 669 744 784 758 731 b 701 490 758 599 739 539 b 542 386 662 441 609 406 l 817 0 l 618 0 l 372 368 z m 272 503 l 401 503 b 538 546 458 503 503 517 b 589 667 572 575 589 615 b 538 788 589 719 572 759 b 401 831 503 816 458 831 l 272 831 z "},"ŕ":{"ha":514,"x_min":0,"x_max":0,"o":"m 499 944 l 249 736 l 165 786 l 374 1008 z m 435 478 b 396 503 421 489 408 497 b 350 513 384 509 369 513 b 269 471 313 513 286 499 b 244 360 253 443 244 406 l 244 0 l 96 0 l 96 639 l 244 639 l 244 561 b 311 628 263 590 285 612 b 390 653 337 645 363 653 b 456 642 413 653 435 649 b 508 606 476 634 494 622 z "},"Ŗ":{"ha":826,"x_min":0,"x_max":0,"o":"m 447 -83 l 599 -126 l 438 -474 l 325 -443 z m 272 368 l 272 0 l 108 0 l 108 972 l 206 972 l 272 972 l 408 972 b 592 935 479 972 540 960 b 715 829 645 910 685 875 b 758 669 744 784 758 731 b 701 490 758 599 739 539 b 542 386 662 441 609 406 l 817 0 l 618 0 l 372 368 z m 272 503 l 401 503 b 538 546 458 503 503 517 b 589 667 572 575 589 615 b 538 788 589 719 572 759 b 401 831 503 816 458 831 l 272 831 z "},"ŗ":{"ha":514,"x_min":0,"x_max":0,"o":"m 156 -83 l 307 -126 l 146 -474 l 33 -443 z m 435 478 b 396 503 421 489 408 497 b 350 513 384 509 369 513 b 269 471 313 513 286 499 b 244 360 253 443 244 406 l 244 0 l 96 0 l 96 639 l 244 639 l 244 561 b 311 628 263 590 285 612 b 390 653 337 645 363 653 b 456 642 413 653 435 649 b 508 606 476 634 494 622 z "},"Ř":{"ha":826,"x_min":0,"x_max":0,"o":"m 386 1214 l 529 1340 l 629 1267 l 386 1072 l 143 1267 l 244 1340 z m 272 368 l 272 0 l 108 0 l 108 972 l 206 972 l 272 972 l 408 972 b 592 935 479 972 540 960 b 715 829 645 910 685 875 b 758 669 744 784 758 731 b 701 490 758 599 739 539 b 542 386 662 441 609 406 l 817 0 l 618 0 l 372 368 z m 272 503 l 401 503 b 538 546 458 503 503 517 b 589 667 572 575 589 615 b 538 788 589 719 572 759 b 401 831 503 816 458 831 l 272 831 z "},"ř":{"ha":514,"x_min":0,"x_max":0,"o":"m 301 878 l 443 1004 l 544 931 l 301 736 l 58 931 l 158 1004 z m 435 478 b 396 503 421 489 408 497 b 350 513 384 509 369 513 b 269 471 313 513 286 499 b 244 360 253 443 244 406 l 244 0 l 96 0 l 96 639 l 244 639 l 244 561 b 311 628 263 590 285 612 b 390 653 337 645 363 653 b 456 642 413 653 435 649 b 508 606 476 634 494 622 z "},"Ś":{"ha":804,"x_min":0,"x_max":0,"o":"m 660 1281 l 410 1072 l 325 1122 l 533 1344 z m 178 328 b 282 181 208 265 243 216 b 425 128 321 145 369 128 b 535 163 474 128 511 139 b 572 260 560 186 572 218 b 541 349 572 296 562 325 b 460 406 520 372 493 391 b 356 450 428 422 393 436 b 276 485 331 459 305 471 b 193 540 247 500 219 518 b 129 622 167 563 146 590 b 104 735 113 653 104 691 b 144 869 104 787 118 831 b 253 958 171 907 208 937 b 410 989 299 978 351 989 b 564 957 469 989 520 978 b 671 877 607 936 643 909 b 732 779 699 845 719 813 l 604 700 b 530 800 584 739 559 772 b 415 842 501 828 463 842 b 313 810 373 842 339 831 b 275 726 288 790 275 762 b 306 656 275 699 285 675 b 389 604 327 636 355 619 b 499 560 423 589 460 575 b 613 503 538 546 576 527 b 707 410 651 480 682 449 b 744 267 732 372 744 324 b 660 56 744 178 716 108 b 419 -21 603 5 523 -21 b 197 53 336 -21 262 4 b 53 246 131 102 83 166 z "},"ś":{"ha":589,"x_min":0,"x_max":0,"o":"m 544 944 l 294 736 l 208 785 l 417 1007 z m 122 231 b 208 140 146 191 175 160 b 306 108 241 119 273 108 b 373 124 334 108 357 113 b 397 174 389 134 397 150 b 374 224 397 194 390 211 b 316 259 359 238 340 249 b 243 289 292 269 268 279 b 160 330 214 301 187 315 b 94 388 133 345 111 365 b 68 478 77 412 68 442 b 100 574 68 516 79 548 b 184 633 121 600 149 619 b 294 653 219 646 256 653 b 442 621 347 653 397 642 b 542 540 488 600 521 573 l 458 451 b 384 507 439 475 414 493 b 300 528 354 521 326 528 b 238 515 274 528 253 524 b 215 471 223 507 215 492 b 240 432 215 456 223 443 b 301 401 256 421 276 410 b 375 371 325 391 350 381 b 461 328 406 359 434 344 b 526 267 488 311 510 291 b 551 181 543 243 551 214 b 486 28 551 110 530 59 b 313 -19 443 -4 385 -19 b 142 27 250 -19 194 -4 b 31 144 90 58 53 97 z "},"Ŝ":{"ha":804,"x_min":0,"x_max":0,"o":"m 410 1200 l 268 1072 l 167 1146 l 410 1340 l 653 1146 l 553 1072 z m 178 328 b 282 181 208 265 243 216 b 425 128 321 145 369 128 b 535 163 474 128 511 139 b 572 260 560 186 572 218 b 541 349 572 296 562 325 b 460 406 520 372 493 391 b 356 450 428 422 393 436 b 276 485 331 459 305 471 b 193 540 247 500 219 518 b 129 622 167 563 146 590 b 104 735 113 653 104 691 b 144 869 104 787 118 831 b 253 958 171 907 208 937 b 410 989 299 978 351 989 b 564 957 469 989 520 978 b 671 877 607 936 643 909 b 732 779 699 845 719 813 l 604 700 b 530 800 584 739 559 772 b 415 842 501 828 463 842 b 313 810 373 842 339 831 b 275 726 288 790 275 762 b 306 656 275 699 285 675 b 389 604 327 636 355 619 b 499 560 423 589 460 575 b 613 503 538 546 576 527 b 707 410 651 480 682 449 b 744 267 732 372 744 324 b 660 56 744 178 716 108 b 419 -21 603 5 523 -21 b 197 53 336 -21 262 4 b 53 246 131 102 83 166 z "},"ŝ":{"ha":589,"x_min":0,"x_max":0,"o":"m 301 864 l 158 736 l 58 810 l 301 1004 l 544 810 l 443 736 z m 122 231 b 208 140 146 191 175 160 b 306 108 241 119 273 108 b 373 124 334 108 357 113 b 397 174 389 134 397 150 b 374 224 397 194 390 211 b 316 259 359 238 340 249 b 243 289 292 269 268 279 b 160 330 214 301 187 315 b 94 388 133 345 111 365 b 68 478 77 412 68 442 b 100 574 68 516 79 548 b 184 633 121 600 149 619 b 294 653 219 646 256 653 b 442 621 347 653 397 642 b 542 540 488 600 521 573 l 458 451 b 384 507 439 475 414 493 b 300 528 354 521 326 528 b 238 515 274 528 253 524 b 215 471 223 507 215 492 b 240 432 215 456 223 443 b 301 401 256 421 276 410 b 375 371 325 391 350 381 b 461 328 406 359 434 344 b 526 267 488 311 510 291 b 551 181 543 243 551 214 b 486 28 551 110 530 59 b 313 -19 443 -4 385 -19 b 142 27 250 -19 194 -4 b 31 144 90 58 53 97 z "},"Ş":{"ha":804,"x_min":0,"x_max":0,"o":"m 178 328 b 282 181 208 265 243 216 b 425 128 321 145 369 128 b 535 163 474 128 511 139 b 572 260 560 186 572 218 b 541 349 572 296 562 325 b 460 406 520 372 493 391 b 356 450 428 422 393 436 b 276 483 331 459 305 470 b 193 533 247 496 219 513 b 129 612 167 554 146 580 b 104 729 113 644 104 683 b 142 865 104 781 117 826 b 248 956 167 904 202 934 b 410 989 294 978 348 989 b 562 959 469 989 520 979 b 667 881 604 939 639 913 b 732 779 694 849 716 815 l 604 700 b 524 800 584 739 557 772 b 404 842 491 828 451 842 b 308 810 362 842 329 831 b 275 726 286 790 275 762 b 306 656 275 699 285 675 b 389 604 327 636 355 619 b 499 560 423 589 460 575 b 613 503 538 546 576 527 b 707 410 651 480 682 449 b 744 267 732 372 744 324 b 667 67 744 184 719 118 b 460 -19 616 17 547 -12 l 422 -81 b 436 -78 427 -80 431 -79 b 450 -78 441 -78 445 -78 b 524 -107 475 -78 500 -87 b 561 -194 549 -126 561 -156 b 538 -271 561 -225 553 -250 b 477 -317 522 -291 502 -307 b 400 -333 453 -328 427 -333 b 318 -322 369 -333 342 -329 b 244 -279 294 -314 269 -300 l 299 -208 b 389 -242 327 -231 357 -242 b 461 -189 437 -242 461 -224 b 441 -152 461 -171 454 -159 b 386 -142 428 -145 409 -142 b 348 -146 380 -142 367 -143 b 292 -165 329 -149 310 -155 l 363 -17 b 175 69 292 -6 230 22 b 53 246 120 117 80 175 z "},"ş":{"ha":586,"x_min":0,"x_max":0,"o":"m 119 231 b 217 142 150 194 183 165 b 311 108 252 120 283 108 b 374 124 338 108 359 114 b 397 172 390 135 397 151 b 355 238 397 200 383 222 b 257 282 327 253 294 268 b 171 322 227 294 199 307 b 102 381 143 337 120 357 b 75 478 84 406 75 438 b 106 572 75 515 85 546 b 186 632 126 598 153 618 b 293 653 219 646 255 653 b 437 620 345 653 393 642 b 539 539 481 598 515 571 l 456 453 b 381 510 434 476 409 495 b 300 532 353 525 326 532 b 238 519 274 532 253 528 b 215 476 223 510 215 496 b 239 433 215 459 223 444 b 299 404 255 422 275 413 b 372 376 324 396 348 387 b 458 334 403 364 431 350 b 524 274 485 318 507 298 b 549 181 540 250 549 219 b 494 38 549 119 530 71 b 351 -18 457 5 410 -13 l 321 -67 b 335 -65 325 -66 330 -65 l 349 -65 b 423 -94 374 -65 398 -75 b 460 -181 447 -113 460 -142 b 436 -257 460 -211 452 -237 b 375 -303 420 -277 400 -293 b 297 -319 350 -314 324 -319 b 217 -308 267 -319 240 -316 b 144 -265 194 -300 169 -286 l 197 -194 b 241 -221 213 -206 228 -215 b 286 -229 254 -226 269 -229 b 358 -176 334 -229 358 -212 b 338 -139 358 -159 352 -146 b 283 -128 325 -131 306 -128 b 246 -132 277 -128 264 -129 b 190 -151 227 -135 209 -141 l 257 -14 b 126 44 209 -4 165 16 b 32 146 88 73 56 107 z "},"Š":{"ha":804,"x_min":0,"x_max":0,"o":"m 410 1214 l 553 1340 l 653 1267 l 410 1072 l 167 1267 l 268 1340 z m 178 328 b 282 181 208 265 243 216 b 425 128 321 145 369 128 b 535 163 474 128 511 139 b 572 260 560 186 572 218 b 541 349 572 296 562 325 b 460 406 520 372 493 391 b 356 450 428 422 393 436 b 276 485 331 459 305 471 b 193 540 247 500 219 518 b 129 622 167 563 146 590 b 104 735 113 653 104 691 b 144 869 104 787 118 831 b 253 958 171 907 208 937 b 410 989 299 978 351 989 b 564 957 469 989 520 978 b 671 877 607 936 643 909 b 732 779 699 845 719 813 l 604 700 b 530 800 584 739 559 772 b 415 842 501 828 463 842 b 313 810 373 842 339 831 b 275 726 288 790 275 762 b 306 656 275 699 285 675 b 389 604 327 636 355 619 b 499 560 423 589 460 575 b 613 503 538 546 576 527 b 707 410 651 480 682 449 b 744 267 732 372 744 324 b 660 56 744 178 716 108 b 419 -21 603 5 523 -21 b 197 53 336 -21 262 4 b 53 246 131 102 83 166 z "},"š":{"ha":589,"x_min":0,"x_max":0,"o":"m 294 869 l 436 997 l 538 924 l 294 729 l 51 924 l 151 997 z m 122 231 b 208 140 146 191 175 160 b 306 108 241 119 273 108 b 373 124 334 108 357 113 b 397 174 389 134 397 150 b 374 224 397 194 390 211 b 316 259 359 238 340 249 b 243 289 292 269 268 279 b 160 330 214 301 187 315 b 94 388 133 345 111 365 b 68 478 77 412 68 442 b 100 574 68 516 79 548 b 184 633 121 600 149 619 b 294 653 219 646 256 653 b 442 621 347 653 397 642 b 542 540 488 600 521 573 l 458 451 b 384 507 439 475 414 493 b 300 528 354 521 326 528 b 238 515 274 528 253 524 b 215 471 223 507 215 492 b 240 432 215 456 223 443 b 301 401 256 421 276 410 b 375 371 325 391 350 381 b 461 328 406 359 434 344 b 526 267 488 311 510 291 b 551 181 543 243 551 214 b 486 28 551 110 530 59 b 313 -19 443 -4 385 -19 b 142 27 250 -19 194 -4 b 31 144 90 58 53 97 z "},"Ť":{"ha":699,"x_min":0,"x_max":0,"o":"m 350 1214 l 492 1340 l 593 1267 l 350 1072 l 107 1267 l 208 1340 z m 11 821 l 11 972 l 689 972 l 689 821 l 432 821 l 432 0 l 267 0 l 267 821 z "},"ť":{"ha":571,"x_min":0,"x_max":0,"o":"m 450 1099 l 601 1056 l 439 708 l 328 739 z m 114 861 l 263 861 l 263 639 l 369 639 l 369 507 l 263 507 l 263 0 l 114 0 l 114 507 l 7 507 l 7 639 l 114 639 z "},"Ů":{"ha":911,"x_min":0,"x_max":0,"o":"m 388 1221 b 408 1169 388 1199 394 1181 b 456 1150 422 1156 438 1150 b 503 1169 473 1150 489 1156 b 524 1221 517 1181 524 1199 b 503 1273 524 1243 517 1260 b 456 1292 489 1285 473 1292 b 408 1273 438 1292 422 1285 b 388 1221 394 1260 388 1243 z m 301 1221 b 348 1328 301 1265 317 1301 b 456 1368 379 1355 415 1368 b 563 1328 496 1368 532 1355 b 610 1221 594 1301 610 1265 b 563 1113 610 1176 594 1141 b 456 1072 532 1086 496 1072 b 348 1113 415 1072 379 1086 b 301 1221 317 1141 301 1176 z m 100 972 l 265 972 l 265 326 b 314 182 265 267 281 219 b 456 126 346 145 394 126 b 598 182 519 126 566 145 b 646 326 630 219 646 267 l 646 972 l 811 972 l 811 319 b 766 135 811 248 796 187 b 640 17 736 84 694 44 b 456 -25 587 -11 525 -25 b 272 17 386 -25 325 -11 b 146 135 218 44 176 84 b 100 319 115 187 100 248 z "},"ů":{"ha":757,"x_min":0,"x_max":0,"o":"m 311 885 b 331 833 311 863 318 845 b 378 814 345 820 360 814 b 426 833 395 814 411 820 b 447 885 440 845 447 863 b 426 937 447 907 440 924 b 378 956 411 949 395 956 b 331 937 360 956 345 949 b 311 885 318 924 311 907 z m 225 885 b 271 992 225 929 240 965 b 378 1032 301 1019 337 1032 b 486 992 419 1032 455 1019 b 533 885 518 965 533 929 b 486 777 533 840 518 804 b 378 736 455 750 419 736 b 271 777 337 736 301 750 b 225 885 240 804 225 840 z m 250 250 b 369 107 250 155 290 107 b 472 147 412 107 446 120 b 511 250 498 173 511 207 l 511 639 l 661 639 l 661 0 l 511 0 l 511 100 b 433 17 492 66 466 38 b 318 -14 400 -3 362 -14 b 154 49 248 -14 193 7 b 96 233 115 91 96 153 l 96 639 l 250 639 z "},"Ÿ":{"ha":833,"x_min":0,"x_max":0,"o":"m 643 972 l 831 972 l 500 410 l 500 0 l 333 0 l 333 408 l 3 972 l 192 972 l 417 556 z m 485 1169 b 512 1235 485 1195 494 1217 b 578 1261 530 1252 552 1261 b 646 1235 605 1261 627 1252 b 674 1169 664 1217 674 1195 b 646 1105 674 1144 664 1122 b 578 1079 627 1088 605 1079 b 512 1105 552 1079 530 1088 b 485 1169 494 1122 485 1144 z m 161 1169 b 189 1235 161 1195 170 1217 b 256 1261 207 1252 230 1261 b 324 1235 282 1261 305 1252 b 351 1169 342 1217 351 1195 b 324 1105 351 1144 342 1122 b 256 1079 305 1088 282 1079 b 189 1105 230 1079 207 1088 b 161 1169 170 1122 161 1144 z "},"Ź":{"ha":799,"x_min":0,"x_max":0,"o":"m 647 1281 l 397 1072 l 311 1122 l 519 1344 z m 61 821 l 61 972 l 775 972 l 283 147 l 738 147 l 738 0 l 17 0 l 506 821 z "},"ź":{"ha":674,"x_min":0,"x_max":0,"o":"m 590 965 l 340 757 l 256 806 l 464 1028 z m 392 500 l 69 500 l 69 639 l 653 639 l 288 139 l 618 139 l 618 0 l 21 0 z "},"Ż":{"ha":799,"x_min":0,"x_max":0,"o":"m 322 1164 b 350 1229 322 1190 331 1212 b 417 1256 369 1247 391 1256 b 485 1229 444 1256 466 1247 b 513 1164 503 1212 513 1190 b 485 1099 513 1138 503 1116 b 417 1072 466 1081 444 1072 b 350 1099 391 1072 369 1081 b 322 1164 331 1116 322 1138 z m 61 821 l 61 972 l 775 972 l 283 147 l 738 147 l 738 0 l 17 0 l 506 821 z "},"ż":{"ha":674,"x_min":0,"x_max":0,"o":"m 267 858 b 294 924 267 884 276 906 b 361 950 313 941 335 950 b 428 924 388 950 410 941 b 456 858 447 906 456 884 b 428 794 456 832 447 811 b 361 768 410 777 388 768 b 294 794 335 768 313 777 b 267 858 276 811 267 832 z m 392 500 l 69 500 l 69 639 l 653 639 l 288 139 l 618 139 l 618 0 l 21 0 z "},"Ž":{"ha":799,"x_min":0,"x_max":0,"o":"m 417 1214 l 560 1340 l 661 1267 l 417 1072 l 175 1267 l 275 1340 z m 61 821 l 61 972 l 775 972 l 283 147 l 738 147 l 738 0 l 17 0 l 506 821 z "},"ž":{"ha":669,"x_min":0,"x_max":0,"o":"m 393 500 l 69 500 l 69 639 l 653 639 l 288 139 l 618 139 l 618 0 l 21 0 z m 361 878 l 503 1003 l 604 931 l 361 736 l 118 931 l 219 1003 z "},"Ȓ":{"ha":826,"x_min":0,"x_max":0,"o":"m 188 1072 b 213 1169 188 1106 196 1139 b 289 1242 230 1199 256 1223 b 411 1271 322 1261 363 1271 b 534 1242 460 1271 501 1261 b 608 1169 567 1223 592 1199 b 633 1072 625 1139 633 1106 l 519 1072 b 496 1136 519 1094 512 1115 b 411 1168 480 1157 452 1168 b 327 1136 371 1168 343 1157 b 303 1072 311 1115 303 1094 z m 272 368 l 272 0 l 108 0 l 108 972 l 206 972 l 272 972 l 408 972 b 592 935 479 972 540 960 b 715 829 645 910 685 875 b 758 669 744 784 758 731 b 701 490 758 599 739 539 b 542 386 662 441 609 406 l 817 0 l 618 0 l 372 368 z m 272 503 l 401 503 b 538 546 458 503 503 517 b 589 667 572 575 589 615 b 538 788 589 719 572 759 b 401 831 503 816 458 831 l 272 831 z "},"ȓ":{"ha":514,"x_min":0,"x_max":0,"o":"m 79 736 b 105 833 79 770 88 803 b 181 906 122 863 147 887 b 303 935 214 925 255 935 b 426 906 352 935 393 925 b 500 833 459 887 483 863 b 525 736 517 803 525 770 l 411 736 b 388 800 411 757 403 779 b 303 832 372 821 344 832 b 218 800 263 832 235 821 b 193 736 201 779 193 757 z m 435 478 b 396 503 421 489 408 497 b 350 513 384 509 369 513 b 269 471 313 513 286 499 b 244 360 253 443 244 406 l 244 0 l 96 0 l 96 639 l 244 639 l 244 561 b 311 628 263 590 285 612 b 390 653 337 645 363 653 b 456 642 413 653 435 649 b 508 606 476 634 494 622 z "},"Ș":{"ha":804,"x_min":0,"x_max":0,"o":"m 390 -97 l 542 -140 l 381 -487 l 268 -457 z m 178 328 b 282 181 208 265 243 216 b 425 128 321 145 369 128 b 535 163 474 128 511 139 b 572 260 560 186 572 218 b 541 349 572 296 562 325 b 460 406 520 372 493 391 b 356 450 428 422 393 436 b 276 485 331 459 305 471 b 193 540 247 500 219 518 b 129 622 167 563 146 590 b 104 735 113 653 104 691 b 144 869 104 787 118 831 b 253 958 171 907 208 937 b 410 989 299 978 351 989 b 564 957 469 989 520 978 b 671 877 607 936 643 909 b 732 779 699 845 719 813 l 604 700 b 530 800 584 739 559 772 b 415 842 501 828 463 842 b 313 810 373 842 339 831 b 275 726 288 790 275 762 b 306 656 275 699 285 675 b 389 604 327 636 355 619 b 499 560 423 589 460 575 b 613 503 538 546 576 527 b 707 410 651 480 682 449 b 744 267 732 372 744 324 b 660 56 744 178 716 108 b 419 -21 603 5 523 -21 b 197 53 336 -21 262 4 b 53 246 131 102 83 166 z "},"ș":{"ha":589,"x_min":0,"x_max":0,"o":"m 285 -96 l 435 -139 l 274 -486 l 163 -456 z m 122 231 b 208 140 146 191 175 160 b 306 108 241 119 273 108 b 373 124 334 108 357 113 b 397 174 389 134 397 150 b 374 224 397 194 390 211 b 316 259 359 238 340 249 b 243 289 292 269 268 279 b 160 330 214 301 187 315 b 94 388 133 345 111 365 b 68 478 77 412 68 442 b 100 574 68 516 79 548 b 184 633 121 600 149 619 b 294 653 219 646 256 653 b 442 621 347 653 397 642 b 542 540 488 600 521 573 l 458 451 b 384 507 439 475 414 493 b 300 528 354 521 326 528 b 238 515 274 528 253 524 b 215 471 223 507 215 492 b 240 432 215 456 223 443 b 301 401 256 421 276 410 b 375 371 325 391 350 381 b 461 328 406 359 434 344 b 526 267 488 311 510 291 b 551 181 543 243 551 214 b 486 28 551 110 530 59 b 313 -19 443 -4 385 -19 b 142 27 250 -19 194 -4 b 31 144 90 58 53 97 z "},"ȷ":{"ha":358,"x_min":0,"x_max":0,"o":"m -33 -137 b -1 -167 -23 -152 -12 -162 b 33 -174 10 -171 21 -174 b 83 -147 55 -174 71 -165 b 100 -61 94 -130 100 -101 l 100 639 l 249 639 l 249 -90 b 195 -258 249 -163 231 -219 b 42 -317 159 -297 108 -317 b -49 -296 5 -317 -25 -310 b -103 -254 -72 -282 -90 -268 z "},"ˆ":{"ha":667,"x_min":0,"x_max":0,"o":"m 333 888 l 192 761 l 90 833 l 333 1028 l 576 833 l 475 761 z "},"ˇ":{"ha":667,"x_min":0,"x_max":0,"o":"m 333 922 l 475 1049 l 576 975 l 333 781 l 90 975 l 192 1049 z "},"˘":{"ha":758,"x_min":0,"x_max":0,"o":"m 156 1181 l 271 1181 b 295 1117 271 1160 279 1139 b 379 1085 311 1096 339 1085 b 464 1117 420 1085 448 1096 b 488 1181 480 1139 488 1160 l 603 1181 b 577 1084 603 1146 594 1114 b 502 1011 560 1054 535 1030 b 379 983 469 993 428 983 b 257 1011 331 983 290 993 b 181 1084 224 1030 198 1054 b 156 1181 164 1114 156 1146 z "},"˙":{"ha":417,"x_min":0,"x_max":0,"o":"m 114 1110 b 142 1175 114 1136 123 1157 b 208 1201 160 1193 182 1201 b 276 1175 235 1201 258 1193 b 303 1110 294 1157 303 1136 b 276 1045 303 1084 294 1062 b 208 1019 258 1028 235 1019 b 142 1045 182 1019 160 1028 b 114 1110 123 1062 114 1084 z "},"˚":{"ha":414,"x_min":0,"x_max":0,"o":"m 139 1082 b 160 1030 139 1060 146 1042 b 207 1011 174 1017 189 1011 b 254 1030 225 1011 240 1017 b 275 1082 268 1042 275 1060 b 254 1134 275 1104 268 1122 b 207 1153 240 1147 225 1153 b 160 1134 189 1153 174 1147 b 139 1082 146 1122 139 1104 z m 53 1082 b 99 1189 53 1126 68 1162 b 207 1229 130 1216 166 1229 b 315 1189 248 1229 284 1216 b 361 1082 346 1162 361 1126 b 315 974 361 1038 346 1002 b 207 933 284 947 248 933 b 99 974 166 933 130 947 b 53 1082 68 1002 53 1038 z "},"˛":{"ha":361,"x_min":0,"x_max":0,"o":"m 269 -169 l 315 -250 b 268 -288 305 -264 289 -277 b 186 -306 247 -300 219 -306 b 63 -268 133 -306 92 -293 b 19 -167 34 -243 19 -209 b 46 -87 19 -138 28 -112 b 115 -21 63 -63 86 -41 b 206 35 143 0 173 18 l 263 0 b 174 -62 226 -17 197 -37 b 140 -136 152 -87 140 -112 b 156 -183 140 -158 145 -174 b 200 -197 166 -193 181 -197 b 240 -190 217 -197 230 -195 b 269 -169 250 -186 260 -179 z "},"˜":{"ha":736,"x_min":0,"x_max":0,"o":"m 125 875 b 180 961 132 909 151 938 b 278 996 209 984 242 996 b 334 985 301 996 320 992 b 373 962 348 978 361 971 b 409 938 384 953 397 945 b 457 928 422 931 438 928 b 500 946 473 928 487 934 b 540 997 513 958 526 975 l 618 919 b 557 846 607 894 587 869 b 456 811 527 823 494 811 b 390 828 431 811 409 817 b 335 863 371 840 353 852 b 276 881 318 875 299 881 b 234 867 258 881 244 876 b 214 838 224 859 218 849 b 208 810 210 826 208 817 z "},"π":{"ha":785,"x_min":0,"x_max":0,"o":"m 42 639 l 729 639 l 729 507 l 618 507 l 618 217 b 628 151 618 186 621 164 b 654 125 634 137 643 129 b 692 119 665 121 678 119 l 692 -12 b 572 -1 644 -12 605 -9 b 498 50 540 7 515 24 b 472 168 481 76 472 115 l 472 507 l 271 507 l 271 0 l 125 0 l 125 507 l 42 507 z "},"ẞ":{"ha":1092,"x_min":0,"x_max":0,"o":"m 689 -17 b 508 26 618 -17 557 -3 b 397 135 459 54 422 91 b 360 278 372 180 360 228 l 514 278 b 563 168 514 233 530 197 b 689 125 596 139 638 125 b 810 166 741 125 781 139 b 853 278 838 193 853 231 b 792 401 853 332 832 373 b 636 442 751 428 699 442 l 636 479 l 636 528 l 636 564 b 774 607 695 564 741 578 b 822 714 806 636 822 671 b 764 813 822 755 803 788 b 601 850 725 838 671 850 b 441 816 544 850 491 839 b 322 707 391 793 352 757 b 276 508 291 657 276 591 l 276 0 l 111 0 l 111 522 b 175 781 111 626 132 712 b 349 935 218 849 275 900 b 597 986 422 969 505 986 b 803 956 675 986 744 976 b 942 870 862 936 908 908 b 992 735 975 833 992 788 b 943 597 992 682 975 636 b 808 507 911 557 866 527 b 961 420 871 489 922 460 b 1019 257 1000 380 1019 325 b 976 113 1019 202 1005 154 b 859 17 948 72 909 40 b 689 -17 809 -5 753 -17 z "},"‐":{"ha":299,"x_min":0,"x_max":0,"o":"m 7 263 l 7 397 l 292 397 l 292 263 z "},"‒":{"ha":840,"x_min":0,"x_max":0,"o":"m 97 263 l 97 397 l 738 397 l 738 263 z "},"–":{"ha":1051,"x_min":0,"x_max":0,"o":"m 97 263 l 97 397 l 951 397 l 951 263 z "},"—":{"ha":1264,"x_min":0,"x_max":0,"o":"m 97 263 l 97 397 l 1165 397 l 1165 263 z "},"‘":{"ha":413,"x_min":0,"x_max":0,"o":"m 264 639 l 97 639 l 238 972 l 344 972 z "},"’":{"ha":413,"x_min":0,"x_max":0,"o":"m 150 972 l 317 972 l 175 639 l 69 639 z "},"‚":{"ha":413,"x_min":0,"x_max":0,"o":"m 164 111 l 331 111 l 189 -222 l 83 -222 z "},"“":{"ha":708,"x_min":0,"x_max":0,"o":"m 558 639 l 392 639 l 533 972 l 639 972 z m 264 639 l 97 639 l 238 972 l 344 972 z "},"”":{"ha":708,"x_min":0,"x_max":0,"o":"m 444 972 l 611 972 l 471 639 l 364 639 z m 150 972 l 317 972 l 175 639 l 69 639 z "},"†":{"ha":826,"x_min":0,"x_max":0,"o":"m 340 972 l 486 972 l 486 750 l 701 750 l 701 618 l 486 618 l 486 -208 l 340 -208 l 340 618 l 125 618 l 125 750 l 340 750 z "},"‡":{"ha":826,"x_min":0,"x_max":0,"o":"m 340 972 l 486 972 l 486 750 l 701 750 l 701 618 l 486 618 l 486 188 l 701 188 l 701 56 l 486 56 l 486 -208 l 340 -208 l 340 56 l 125 56 l 125 188 l 340 188 l 340 618 l 125 618 l 125 750 l 340 750 z "},"…":{"ha":1264,"x_min":0,"x_max":0,"o":"m 950 71 b 978 140 950 98 959 121 b 1047 168 996 159 1019 168 b 1117 140 1075 168 1098 159 b 1146 71 1136 121 1146 98 b 1117 3 1146 45 1136 22 b 1047 -26 1098 -17 1075 -26 b 978 3 1019 -26 996 -17 b 950 71 959 22 950 45 z m 533 71 b 561 140 533 98 543 121 b 631 168 580 159 603 168 b 701 140 658 168 682 159 b 729 71 720 121 729 98 b 701 3 729 45 720 22 b 631 -26 682 -17 658 -26 b 561 3 603 -26 580 -17 b 533 71 543 22 533 45 z m 117 71 b 144 140 117 98 126 121 b 214 168 163 159 186 168 b 284 140 242 168 265 159 b 313 71 303 121 313 98 b 284 3 313 45 303 22 b 214 -26 265 -17 242 -26 b 144 3 186 -26 163 -17 b 117 71 126 22 117 45 z "},"‰":{"ha":1706,"x_min":0,"x_max":0,"o":"m 831 972 l 981 972 l 306 0 l 157 0 z m 750 217 b 779 135 750 185 760 158 b 858 101 799 113 825 101 b 938 135 892 101 918 113 b 967 217 957 158 967 185 b 938 299 967 248 957 275 b 858 333 918 322 892 333 b 779 299 825 333 799 322 b 750 217 760 275 750 248 z m 622 217 b 652 335 622 260 632 300 b 735 421 672 371 700 400 b 858 453 771 442 812 453 b 981 421 905 453 946 442 b 1065 335 1017 400 1045 371 b 1094 217 1084 300 1094 260 b 1065 98 1094 173 1084 134 b 981 13 1045 62 1017 34 b 858 -19 946 -9 905 -19 b 735 13 812 -19 771 -9 b 652 98 700 34 672 62 b 622 217 632 134 622 173 z m 169 756 b 199 674 169 724 179 697 b 278 639 218 650 244 639 b 357 674 311 639 338 650 b 386 756 376 697 386 724 b 357 837 386 787 376 814 b 278 871 338 859 311 871 b 199 837 244 871 218 859 b 169 756 179 814 169 787 z m 42 756 b 72 874 42 799 52 839 b 155 960 91 910 119 938 b 278 992 191 981 231 992 b 401 960 324 992 365 981 b 485 874 436 938 464 910 b 515 756 505 839 515 799 b 485 637 515 712 505 672 b 401 551 464 601 436 573 b 278 519 365 530 324 519 b 155 551 231 519 191 530 b 72 637 119 573 91 601 b 42 756 52 672 42 712 z m 1319 217 b 1349 135 1319 185 1329 158 b 1428 101 1368 113 1394 101 b 1507 135 1461 101 1488 113 b 1536 217 1526 158 1536 185 b 1507 299 1536 248 1526 275 b 1428 333 1488 322 1461 333 b 1349 299 1394 333 1368 322 b 1319 217 1329 275 1319 248 z m 1192 217 b 1222 335 1192 260 1202 300 b 1305 421 1241 371 1269 400 b 1428 453 1341 442 1381 453 b 1551 421 1474 453 1515 442 b 1634 335 1586 400 1614 371 b 1664 217 1654 300 1664 260 b 1634 98 1664 173 1654 134 b 1551 13 1614 62 1586 34 b 1428 -19 1515 -9 1474 -19 b 1305 13 1381 -19 1341 -9 b 1222 98 1269 34 1241 62 b 1192 217 1202 134 1192 173 z "},"‱":{"ha":2275,"x_min":0,"x_max":0,"o":"m 831 972 l 981 972 l 306 0 l 157 0 z m 750 217 b 779 135 750 185 760 158 b 858 101 799 113 825 101 b 938 135 892 101 918 113 b 967 217 957 158 967 185 b 938 299 967 248 957 275 b 858 333 918 322 892 333 b 779 299 825 333 799 322 b 750 217 760 275 750 248 z m 622 217 b 652 335 622 260 632 300 b 735 421 672 371 700 400 b 858 453 771 442 812 453 b 981 421 905 453 946 442 b 1065 335 1017 400 1045 371 b 1094 217 1084 300 1094 260 b 1065 98 1094 173 1084 134 b 981 13 1045 62 1017 34 b 858 -19 946 -9 905 -19 b 735 13 812 -19 771 -9 b 652 98 700 34 672 62 b 622 217 632 134 622 173 z m 169 756 b 199 674 169 724 179 697 b 278 639 218 650 244 639 b 357 674 311 639 338 650 b 386 756 376 697 386 724 b 357 837 386 787 376 814 b 278 871 338 859 311 871 b 199 837 244 871 218 859 b 169 756 179 814 169 787 z m 42 756 b 72 874 42 799 52 839 b 155 960 91 910 119 938 b 278 992 191 981 231 992 b 401 960 324 992 365 981 b 485 874 436 938 464 910 b 515 756 505 839 515 799 b 485 637 515 712 505 672 b 401 551 464 601 436 573 b 278 519 365 530 324 519 b 155 551 231 519 191 530 b 72 637 119 573 91 601 b 42 756 52 672 42 712 z m 1319 217 b 1349 135 1319 185 1329 158 b 1428 101 1368 113 1394 101 b 1507 135 1461 101 1488 113 b 1536 217 1526 158 1536 185 b 1507 299 1536 248 1526 275 b 1428 333 1488 322 1461 333 b 1349 299 1394 333 1368 322 b 1319 217 1329 275 1319 248 z m 1192 217 b 1222 335 1192 260 1202 300 b 1305 421 1241 371 1269 400 b 1428 453 1341 442 1381 453 b 1551 421 1474 453 1515 442 b 1634 335 1586 400 1614 371 b 1664 217 1654 300 1664 260 b 1634 98 1664 173 1654 134 b 1551 13 1614 62 1586 34 b 1428 -19 1515 -9 1474 -19 b 1305 13 1381 -19 1341 -9 b 1222 98 1269 34 1241 62 b 1192 217 1202 134 1192 173 z m 1889 217 b 1918 135 1889 185 1899 158 b 1997 101 1938 113 1964 101 b 2076 135 2031 101 2057 113 b 2106 217 2096 158 2106 185 b 2076 299 2106 248 2096 275 b 1997 333 2057 322 2031 333 b 1918 299 1964 333 1938 322 b 1889 217 1899 275 1889 248 z m 1761 217 b 1791 335 1761 260 1771 300 b 1874 421 1811 371 1839 400 b 1997 453 1910 442 1951 453 b 2120 421 2044 453 2084 442 b 2203 335 2156 400 2184 371 b 2233 217 2223 300 2233 260 b 2203 98 2233 173 2223 134 b 2120 13 2184 62 2156 34 b 1997 -19 2084 -9 2044 -19 b 1874 13 1951 -19 1910 -9 b 1791 98 1839 34 1811 62 b 1761 217 1771 134 1761 173 z "},"‹":{"ha":486,"x_min":0,"x_max":0,"o":"m 190 360 l 400 90 l 306 17 l 49 354 l 306 692 l 400 618 z "},"›":{"ha":486,"x_min":0,"x_max":0,"o":"m 296 349 l 86 618 l 181 692 l 438 354 l 181 17 l 86 90 z "},"‽":{"ha":813,"x_min":0,"x_max":0,"o":"m 272 68 b 301 135 272 95 282 117 b 372 161 321 152 344 161 b 442 135 400 161 423 152 b 471 68 461 117 471 95 b 442 1 471 42 461 20 b 372 -26 423 -17 400 -26 b 301 1 344 -26 321 -17 b 272 68 282 20 272 42 z m 286 706 l 450 706 l 435 496 b 546 572 481 512 518 537 b 588 683 574 606 588 644 b 535 813 588 740 570 783 b 392 858 500 843 452 858 b 188 740 300 858 232 819 l 76 822 b 203 943 109 871 151 912 b 408 990 256 975 324 990 b 571 953 468 990 522 978 b 689 849 620 928 659 893 b 733 694 719 804 733 753 b 688 546 733 638 718 588 b 573 444 658 503 620 469 b 428 397 526 418 478 403 l 418 253 l 318 253 z "},"⁄":{"ha":993,"x_min":0,"x_max":0,"o":"m 806 972 l 928 972 l 206 0 l 83 0 z "},"⁰":{"ha":526,"x_min":0,"x_max":0,"o":"m 36 681 b 65 839 36 741 46 794 b 146 944 85 884 112 919 b 264 982 180 969 219 982 b 383 944 309 982 349 969 b 462 839 416 919 443 884 b 490 681 481 794 490 741 b 462 522 490 620 481 568 b 383 417 443 477 416 442 b 264 379 349 392 309 379 b 146 417 219 379 180 392 b 65 522 112 442 85 477 b 36 681 46 568 36 620 z m 133 681 b 169 528 133 619 145 568 b 264 468 192 488 224 468 b 360 528 305 468 337 488 b 394 681 383 568 394 619 b 360 834 394 744 383 795 b 264 893 337 873 305 893 b 169 834 224 893 192 873 b 133 681 145 795 133 744 z "},"⁴":{"ha":558,"x_min":0,"x_max":0,"o":"m 422 500 l 422 389 l 322 389 l 322 500 l 33 500 l 364 972 l 422 972 l 422 586 l 514 586 l 514 500 z m 328 578 l 328 797 l 178 578 z "},"⁵":{"ha":511,"x_min":0,"x_max":0,"o":"m 472 575 b 442 465 472 531 462 494 b 362 399 421 435 395 413 b 256 376 329 384 294 376 b 124 408 202 376 158 387 b 39 481 89 428 61 453 l 96 553 b 162 493 113 530 135 510 b 243 468 188 476 215 468 b 334 499 282 468 312 478 b 367 582 356 519 367 547 b 331 665 367 617 355 645 b 243 694 306 684 277 694 b 169 685 217 694 192 691 b 89 647 145 678 119 666 l 167 969 l 467 969 l 467 883 l 240 883 l 204 749 b 297 771 233 763 264 771 b 422 717 346 771 388 753 b 472 575 455 681 472 633 z "},"⁶":{"ha":501,"x_min":0,"x_max":0,"o":"m 276 968 l 403 968 l 235 763 b 262 771 243 767 252 770 b 294 772 272 772 282 772 b 381 748 325 772 354 764 b 446 681 407 732 429 709 b 471 583 463 653 471 620 b 442 472 471 541 461 504 b 365 400 423 441 398 417 b 257 375 333 383 297 375 b 149 400 217 375 181 383 b 71 472 116 417 90 441 b 42 583 51 504 42 541 b 56 658 42 610 47 635 b 92 721 66 681 78 702 z m 139 583 b 173 496 139 547 150 518 b 257 463 196 474 224 463 b 340 496 290 463 318 474 b 374 583 363 518 374 547 b 340 672 374 619 363 649 b 257 706 318 694 290 706 b 173 672 224 706 196 694 b 139 583 150 649 139 619 z "},"⁷":{"ha":506,"x_min":0,"x_max":0,"o":"m 38 879 l 38 972 l 474 972 l 193 389 l 89 389 l 328 879 z "},"⁸":{"ha":469,"x_min":0,"x_max":0,"o":"m 135 561 b 165 488 135 530 145 505 b 233 461 184 470 207 461 b 303 488 260 461 284 470 b 333 561 323 505 333 530 b 303 631 333 589 323 612 b 233 658 284 649 260 658 b 165 631 207 658 184 649 b 135 561 145 612 135 589 z m 153 822 b 176 762 153 797 161 777 b 233 739 192 747 211 739 b 291 762 256 739 275 747 b 315 822 307 777 315 797 b 292 882 315 847 308 867 b 233 904 277 897 257 904 b 176 882 210 904 191 897 b 153 822 160 867 153 847 z m 58 832 b 110 941 58 876 75 913 b 233 983 144 969 185 983 b 358 941 282 983 324 969 b 410 832 393 913 410 876 b 386 751 410 800 402 773 b 324 699 370 728 350 711 b 399 643 353 687 378 668 b 431 547 420 618 431 586 b 403 460 431 515 422 486 b 332 400 385 435 362 415 b 233 378 302 385 269 378 b 135 400 197 378 164 385 b 64 460 105 415 81 435 b 38 547 46 486 38 515 b 68 643 38 586 48 618 b 143 699 88 668 113 687 b 82 751 118 711 98 728 b 58 832 66 773 58 800 z "},"⁹":{"ha":499,"x_min":0,"x_max":0,"o":"m 242 393 l 117 393 l 283 599 b 256 591 275 595 266 592 b 224 589 247 590 236 589 b 138 613 193 589 164 597 b 72 680 111 629 89 652 b 47 778 56 708 47 741 b 76 890 47 821 57 859 b 154 961 96 921 122 944 b 263 986 187 978 223 986 b 371 961 302 986 338 978 b 448 890 403 944 429 921 b 476 778 467 859 476 821 b 462 703 476 752 472 727 b 426 640 452 680 440 659 z m 379 778 b 346 865 379 814 368 843 b 263 899 324 888 296 899 b 178 865 229 899 201 888 b 144 778 156 843 144 814 b 178 690 144 742 156 712 b 263 656 201 667 229 656 b 346 690 296 656 324 667 b 379 778 368 712 379 742 z "},"₀":{"ha":526,"x_min":0,"x_max":0,"o":"m 36 292 b 65 450 36 352 46 405 b 146 556 85 495 112 531 b 264 593 180 581 219 593 b 383 556 309 593 349 581 b 462 450 416 531 443 495 b 490 292 481 405 490 352 b 462 133 490 231 481 179 b 383 28 443 88 416 53 b 264 -10 349 3 309 -10 b 146 28 219 -10 180 3 b 65 133 112 53 85 88 b 36 292 46 179 36 231 z m 133 292 b 169 139 133 230 145 179 b 264 79 192 99 224 79 b 360 139 305 79 337 99 b 394 292 383 179 394 230 b 360 445 394 355 383 406 b 264 504 337 484 305 504 b 169 445 224 504 192 484 b 133 292 145 406 133 355 z "},"₁":{"ha":461,"x_min":0,"x_max":0,"o":"m 125 447 l 125 542 l 357 594 l 357 1 l 261 1 l 261 486 z "},"₂":{"ha":517,"x_min":0,"x_max":0,"o":"m 36 3 l 306 288 b 355 351 327 310 343 331 b 372 417 366 372 372 394 b 349 480 372 440 365 461 b 278 508 334 499 310 508 b 197 474 244 508 217 497 b 165 381 176 450 165 419 l 68 381 b 124 535 68 443 87 494 b 279 597 161 577 213 597 b 390 569 325 597 361 588 b 453 499 418 550 439 526 b 474 415 467 471 474 443 b 451 330 474 385 466 356 b 393 256 437 303 417 279 l 228 94 l 481 94 l 481 3 z "},"₃":{"ha":467,"x_min":0,"x_max":0,"o":"m 235 -11 b 128 13 194 -11 158 -3 b 58 78 97 29 74 51 b 33 167 41 106 33 135 l 132 167 b 162 99 132 138 142 116 b 236 75 182 83 206 75 b 308 99 266 75 290 83 b 336 167 327 116 336 138 b 301 239 336 198 324 222 b 206 264 277 256 245 264 l 206 286 l 206 321 l 206 339 b 289 366 241 339 269 348 b 319 431 309 384 319 406 b 299 488 319 455 313 474 b 239 510 286 503 266 510 b 176 487 214 510 193 502 b 151 428 160 472 151 452 l 58 428 b 109 547 58 476 75 516 b 240 593 143 578 187 593 b 372 546 297 593 341 577 b 419 435 404 514 419 477 b 392 358 419 406 410 381 b 317 306 373 336 348 319 b 403 252 352 294 381 277 b 436 156 425 228 436 195 b 381 35 436 106 418 65 b 235 -11 344 4 295 -11 z "},"₄":{"ha":561,"x_min":0,"x_max":0,"o":"m 328 189 l 328 408 l 176 189 z m 422 111 l 422 0 l 321 0 l 321 111 l 33 111 l 363 583 l 422 583 l 422 197 l 514 197 l 514 111 z "},"₅":{"ha":517,"x_min":0,"x_max":0,"o":"m 474 186 b 443 76 474 142 463 105 b 363 10 423 47 396 25 b 257 -12 330 -5 295 -12 b 125 19 203 -12 159 -2 b 40 92 91 40 63 64 l 97 164 b 163 104 115 141 137 121 b 244 79 190 88 217 79 b 335 110 283 79 314 89 b 368 193 357 130 368 158 b 332 276 368 228 356 256 b 244 306 308 296 279 306 b 170 296 219 306 194 302 b 90 258 147 289 120 277 l 168 581 l 468 581 l 468 494 l 242 494 l 206 360 b 299 382 234 375 265 382 b 423 328 348 382 389 364 b 474 186 457 292 474 244 z "},"₆":{"ha":507,"x_min":0,"x_max":0,"o":"m 140 194 b 174 107 140 158 152 129 b 258 74 197 85 225 74 b 342 107 292 74 319 85 b 375 194 364 129 375 158 b 342 283 375 231 364 260 b 258 317 319 305 292 317 b 174 283 225 317 197 305 b 140 194 152 260 140 231 z m 278 579 l 403 579 l 236 374 b 263 382 244 378 253 381 b 296 383 273 383 284 383 b 382 359 326 383 355 375 b 447 292 409 343 431 321 b 472 194 464 264 472 231 b 444 83 472 152 463 115 b 367 11 425 52 399 28 b 258 -14 334 -6 298 -14 b 150 11 219 -14 182 -6 b 72 83 118 28 92 52 b 43 194 53 115 43 152 b 58 269 43 221 48 246 b 93 332 67 293 79 313 z "},"₇":{"ha":508,"x_min":0,"x_max":0,"o":"m 40 490 l 40 583 l 475 583 l 194 0 l 90 0 l 329 490 z "},"₈":{"ha":472,"x_min":0,"x_max":0,"o":"m 61 443 b 113 552 61 488 78 524 b 236 594 147 580 188 594 b 361 552 285 594 327 580 b 413 443 395 524 413 488 b 389 362 413 412 405 384 b 326 310 373 339 352 322 b 402 254 356 298 381 279 b 433 158 423 229 433 197 b 406 72 433 126 424 97 b 335 11 388 46 364 26 b 236 -11 305 -4 272 -11 b 138 11 200 -11 167 -4 b 67 72 108 26 84 46 b 40 158 49 97 40 126 b 71 254 40 197 50 229 b 146 310 91 279 116 298 b 85 362 121 322 100 339 b 61 443 69 384 61 412 z m 156 433 b 179 373 156 408 163 388 b 236 350 195 358 214 350 b 294 373 258 350 278 358 b 318 433 310 388 318 408 b 295 493 318 458 310 478 b 236 515 280 508 260 515 b 178 493 213 515 194 508 b 156 433 163 478 156 458 z m 138 172 b 167 99 138 141 147 116 b 236 72 187 81 210 72 b 306 99 263 72 286 81 b 336 172 326 116 336 141 b 306 242 336 200 326 223 b 236 269 286 260 263 269 b 167 242 210 269 187 260 b 138 172 147 223 138 200 z "},"₉":{"ha":510,"x_min":0,"x_max":0,"o":"m 367 389 b 333 476 367 425 355 454 b 249 510 310 499 282 510 b 165 476 215 510 187 499 b 131 389 142 454 131 425 b 165 301 131 353 142 323 b 249 267 187 278 215 267 b 333 301 282 267 310 278 b 367 389 355 323 367 353 z m 229 4 l 103 4 l 271 210 b 242 202 262 206 252 203 b 210 200 233 201 222 200 b 124 224 179 200 151 208 b 60 291 98 241 76 263 b 35 389 43 319 35 352 b 63 501 35 432 44 470 b 140 572 82 532 108 556 b 249 597 173 589 209 597 b 357 572 288 597 325 589 b 435 501 389 556 415 532 b 464 389 454 470 464 432 b 449 315 464 363 459 338 b 414 251 440 291 428 270 z "},"€":{"ha":847,"x_min":0,"x_max":0,"o":"m 35 378 l 35 465 l 114 465 l 114 476 l 114 486 b 115 519 114 497 114 508 b 117 551 115 531 116 541 l 42 551 l 42 638 l 131 638 b 213 823 147 708 175 770 b 353 947 250 876 297 918 b 539 992 408 977 470 992 b 648 977 577 992 613 987 b 747 935 683 967 716 953 l 747 761 b 539 847 688 819 619 847 b 383 792 480 847 428 829 b 288 638 339 755 307 703 l 733 638 l 733 551 l 269 551 b 267 519 269 541 268 531 b 267 486 267 508 267 497 l 267 476 l 267 465 l 700 465 l 700 378 l 276 378 b 369 192 292 299 323 237 b 539 125 416 147 472 125 b 747 211 619 125 688 154 l 747 38 b 648 -4 716 20 683 6 b 539 -19 613 -14 577 -19 b 342 31 466 -19 400 -3 b 198 172 283 65 235 112 b 122 378 160 231 135 300 z "},"™":{"ha":968,"x_min":0,"x_max":0,"o":"m 513 775 l 479 486 l 394 486 l 461 996 l 661 667 l 861 996 l 926 486 l 842 486 l 810 775 l 661 531 z m 43 897 l 43 972 l 383 972 l 383 897 l 254 897 l 254 486 l 172 486 l 172 897 z "},"⅐":{"ha":1225,"x_min":0,"x_max":0,"o":"m 810 972 l 931 972 l 208 0 l 88 0 z m 39 828 l 39 921 l 271 974 l 271 381 l 174 381 l 174 865 z m 753 490 l 753 583 l 1188 583 l 908 0 l 803 0 l 1042 490 z "},"⅑":{"ha":1144,"x_min":0,"x_max":0,"o":"m 806 972 l 928 972 l 206 0 l 83 0 z m 39 828 l 39 921 l 271 974 l 271 381 l 174 381 l 174 865 z m 1019 389 b 986 476 1019 425 1008 454 b 903 510 964 499 936 510 b 819 476 869 510 841 499 b 785 389 796 454 785 425 b 819 301 785 353 796 323 b 903 267 841 278 869 267 b 986 301 936 267 964 278 b 1019 389 1008 323 1019 353 z m 883 4 l 757 4 l 924 210 b 897 202 915 206 906 203 b 864 200 887 201 876 200 b 778 224 833 200 805 208 b 714 291 752 241 731 263 b 689 389 697 319 689 352 b 717 501 689 432 698 470 b 794 572 736 532 762 556 b 903 597 827 589 863 597 b 1011 572 943 597 979 589 b 1088 501 1044 556 1069 532 b 1117 389 1107 470 1117 432 b 1102 315 1117 363 1112 338 b 1067 251 1092 291 1081 270 z "},"⅒":{"ha":1572,"x_min":0,"x_max":0,"o":"m 806 972 l 928 972 l 206 0 l 83 0 z m 39 828 l 39 921 l 271 974 l 271 381 l 174 381 l 174 865 z m 713 447 l 713 542 l 944 594 l 944 1 l 847 1 l 847 486 z m 1172 292 b 1208 139 1172 230 1184 179 b 1303 79 1231 99 1263 79 b 1399 139 1344 79 1375 99 b 1433 292 1422 179 1433 230 b 1399 445 1433 355 1422 406 b 1303 504 1375 484 1344 504 b 1208 445 1263 504 1231 484 b 1172 292 1184 406 1172 355 z m 1075 292 b 1104 450 1075 352 1085 405 b 1185 556 1124 495 1150 531 b 1303 593 1219 581 1258 593 b 1422 556 1348 593 1388 581 b 1501 450 1455 531 1482 495 b 1529 292 1520 405 1529 352 b 1501 133 1529 231 1520 179 b 1422 28 1482 88 1455 53 b 1303 -10 1388 3 1348 -10 b 1185 28 1258 -10 1219 3 b 1104 133 1150 53 1124 88 b 1075 292 1085 179 1075 231 z "},"⅓":{"ha":1114,"x_min":0,"x_max":0,"o":"m 806 972 l 928 972 l 206 0 l 83 0 z m 39 828 l 39 921 l 271 974 l 271 381 l 174 381 l 174 865 z m 878 -11 b 771 13 837 -11 801 -3 b 701 78 740 29 717 51 b 676 167 684 106 676 135 l 775 167 b 806 99 775 138 785 116 b 881 75 826 83 851 75 b 952 99 910 75 934 83 b 979 167 970 116 979 138 b 944 239 979 198 967 222 b 849 264 920 256 888 264 l 849 286 l 849 321 l 849 339 b 932 366 884 339 912 348 b 963 431 952 384 963 406 b 943 488 963 455 956 474 b 883 510 930 503 910 510 b 820 487 858 510 837 502 b 794 428 803 472 794 452 l 701 428 b 752 547 701 476 718 516 b 883 593 786 578 830 593 b 1015 546 940 593 984 577 b 1061 435 1046 514 1061 477 b 1033 358 1061 406 1052 381 b 960 306 1015 336 990 319 b 1045 252 995 294 1023 277 b 1078 156 1067 228 1078 195 b 1023 35 1078 106 1059 65 b 878 -11 986 4 938 -11 z "},"⅔":{"ha":1294,"x_min":0,"x_max":0,"o":"m 993 972 l 1114 972 l 392 0 l 271 0 z m 42 392 l 311 676 b 360 740 332 699 349 720 b 378 806 372 761 378 782 b 355 869 378 829 370 850 b 283 897 340 888 316 897 b 202 863 250 897 223 886 b 171 769 181 839 171 808 l 72 769 b 128 924 72 831 91 883 b 285 986 166 966 218 986 b 395 958 330 986 367 977 b 458 888 423 939 444 915 b 479 804 472 860 479 832 b 457 719 479 774 472 745 b 399 644 442 692 423 668 l 233 483 l 486 483 l 486 392 z m 1058 -11 b 951 13 1018 -11 982 -3 b 881 78 921 29 897 51 b 856 167 864 106 856 135 l 956 167 b 985 99 956 138 966 116 b 1060 75 1005 83 1030 75 b 1131 99 1089 75 1113 83 b 1158 167 1149 116 1158 138 b 1123 239 1158 198 1147 222 b 1028 264 1099 256 1068 264 l 1028 286 l 1028 321 l 1028 339 b 1111 366 1063 339 1091 348 b 1142 431 1131 384 1142 406 b 1122 488 1142 455 1135 474 b 1063 510 1109 503 1089 510 b 999 487 1038 510 1016 502 b 974 428 982 472 974 452 l 881 428 b 931 547 881 476 897 516 b 1063 593 965 578 1009 593 b 1194 546 1119 593 1163 577 b 1242 435 1226 514 1242 477 b 1214 358 1242 406 1232 381 b 1139 306 1195 336 1170 319 b 1225 252 1174 294 1203 277 b 1258 156 1247 228 1258 195 b 1203 35 1258 106 1240 65 b 1058 -11 1167 4 1119 -11 z "},"⅕":{"ha":1099,"x_min":0,"x_max":0,"o":"m 806 972 l 928 972 l 206 0 l 83 0 z m 39 828 l 39 921 l 271 974 l 271 381 l 174 381 l 174 865 z m 1061 186 b 1031 76 1061 142 1051 105 b 951 10 1010 47 984 25 b 844 -12 918 -5 882 -12 b 713 19 791 -12 747 -2 b 628 92 678 40 650 64 l 685 164 b 751 104 702 141 724 121 b 832 79 777 88 804 79 b 923 110 871 79 901 89 b 956 193 945 130 956 158 b 919 276 956 228 944 256 b 832 306 895 296 866 306 b 758 296 806 306 781 302 b 678 258 734 289 707 277 l 756 581 l 1056 581 l 1056 494 l 831 494 l 793 360 b 886 382 822 375 853 382 b 1010 328 935 382 977 364 b 1061 186 1044 292 1061 244 z "},"⅖":{"ha":1283,"x_min":0,"x_max":0,"o":"m 993 972 l 1114 972 l 392 0 l 271 0 z m 42 392 l 311 676 b 360 740 332 699 349 720 b 378 806 372 761 378 782 b 355 869 378 829 370 850 b 283 897 340 888 316 897 b 202 863 250 897 223 886 b 171 769 181 839 171 808 l 72 769 b 128 924 72 831 91 883 b 285 986 166 966 218 986 b 395 958 330 986 367 977 b 458 888 423 939 444 915 b 479 804 472 860 479 832 b 457 719 479 774 472 745 b 399 644 442 692 423 668 l 233 483 l 486 483 l 486 392 z m 1242 186 b 1211 76 1242 142 1231 105 b 1131 10 1191 47 1164 25 b 1025 -12 1098 -5 1063 -12 b 892 19 971 -12 927 -2 b 807 92 858 40 829 64 l 865 164 b 931 104 883 141 905 121 b 1013 79 958 88 985 79 b 1103 110 1051 79 1082 89 b 1136 193 1125 130 1136 158 b 1100 276 1136 228 1124 256 b 1013 306 1076 296 1047 306 b 938 296 987 306 962 302 b 858 258 915 289 888 277 l 936 581 l 1236 581 l 1236 494 l 1010 494 l 972 360 b 1018 377 987 368 1002 374 b 1067 382 1034 380 1050 382 b 1191 328 1116 382 1157 364 b 1242 186 1225 292 1242 244 z "},"⅗":{"ha":1210,"x_min":0,"x_max":0,"o":"m 919 972 l 1042 972 l 319 0 l 197 0 z m 239 378 b 132 402 198 378 163 386 b 62 467 101 418 78 440 b 38 556 46 495 38 524 l 136 556 b 167 488 136 527 146 504 b 242 464 187 472 212 464 b 313 488 271 464 295 472 b 340 556 331 504 340 527 b 305 628 340 587 328 611 b 210 653 281 644 250 653 l 210 675 l 210 710 l 210 728 b 293 755 245 728 273 737 b 324 819 313 773 324 794 b 304 877 324 844 317 863 b 244 899 291 891 271 899 b 181 876 219 899 198 891 b 156 817 164 860 156 841 l 63 817 b 113 935 63 865 79 904 b 244 982 147 966 191 982 b 376 935 301 982 345 966 b 424 824 408 903 424 866 b 396 747 424 795 414 769 b 321 694 377 725 352 707 b 407 641 356 683 385 666 b 440 544 429 616 440 584 b 385 424 440 494 422 454 b 239 378 348 393 299 378 z m 1165 186 b 1135 76 1165 142 1155 105 b 1055 10 1114 47 1088 25 b 949 -12 1022 -5 987 -12 b 816 19 895 -12 851 -2 b 731 92 781 40 753 64 l 789 164 b 855 104 806 141 828 121 b 936 79 881 88 908 79 b 1027 110 975 79 1005 89 b 1060 193 1049 130 1060 158 b 1024 276 1060 228 1048 256 b 936 306 1000 296 970 306 b 861 296 910 306 885 302 b 781 258 837 289 810 277 l 860 581 l 1160 581 l 1160 494 l 933 494 l 897 360 b 990 382 926 375 957 382 b 1115 328 1039 382 1081 364 b 1165 186 1148 292 1165 244 z "},"⅘":{"ha":1286,"x_min":0,"x_max":0,"o":"m 332 578 l 332 797 l 181 578 z m 426 500 l 426 389 l 325 389 l 325 500 l 38 500 l 367 972 l 426 972 l 426 586 l 518 586 l 518 500 z m 983 972 l 1104 972 l 382 0 l 261 0 z m 1244 186 b 1214 76 1244 142 1234 105 b 1134 10 1194 47 1167 25 b 1028 -12 1101 -5 1066 -12 b 896 19 974 -12 930 -2 b 811 92 862 40 833 64 l 868 163 b 934 103 886 139 908 120 b 1015 79 960 87 988 79 b 1106 110 1054 79 1084 89 b 1139 193 1128 130 1139 158 b 1103 276 1139 228 1127 256 b 1015 306 1079 296 1050 306 b 941 296 989 306 965 302 b 861 258 917 289 891 277 l 939 581 l 1239 581 l 1239 494 l 1014 494 l 976 360 b 1022 376 991 367 1006 372 b 1069 381 1037 379 1053 381 b 1194 327 1119 381 1160 363 b 1244 186 1228 291 1244 244 z "},"⅙":{"ha":1096,"x_min":0,"x_max":0,"o":"m 817 972 l 939 972 l 217 0 l 94 0 z m 39 828 l 39 921 l 271 974 l 271 381 l 174 381 l 174 865 z m 728 194 b 762 107 728 158 739 129 b 846 74 784 85 813 74 b 930 107 879 74 907 85 b 964 194 953 129 964 158 b 930 283 964 231 953 260 b 846 317 907 305 879 317 b 762 283 813 317 784 305 b 728 194 739 260 728 231 z m 867 579 l 992 579 l 825 374 b 852 382 833 378 842 381 b 885 383 862 383 873 383 b 971 359 915 383 944 375 b 1036 292 998 343 1019 321 b 1061 194 1053 264 1061 231 b 1032 83 1061 152 1051 115 b 954 11 1013 52 987 28 b 846 -14 922 -6 886 -14 b 738 11 806 -14 770 -6 b 660 83 705 28 679 52 b 632 194 641 115 632 152 b 647 269 632 221 637 246 b 682 332 656 293 668 313 z "},"⅚":{"ha":1231,"x_min":0,"x_max":0,"o":"m 961 972 l 1083 972 l 361 0 l 239 0 z m 475 575 b 444 465 475 531 465 494 b 365 399 424 435 397 413 b 258 376 332 384 296 376 b 126 408 205 376 161 387 b 42 481 92 428 64 453 l 100 553 b 166 493 118 530 140 510 b 247 468 192 476 219 468 b 338 499 286 468 316 478 b 369 582 359 519 369 547 b 334 665 369 617 358 645 b 247 694 310 684 281 694 b 172 685 221 694 196 691 b 92 647 148 678 121 666 l 169 969 l 469 969 l 469 883 l 244 883 l 207 749 b 300 771 236 763 267 771 b 424 717 349 771 391 753 b 475 575 458 681 475 633 z m 864 194 b 897 107 864 158 875 129 b 981 74 919 85 947 74 b 1065 107 1014 74 1042 85 b 1099 194 1087 129 1099 158 b 1065 283 1099 231 1087 260 b 981 317 1042 305 1014 317 b 897 283 947 317 919 305 b 864 194 875 260 864 231 z m 1001 579 l 1126 579 l 960 374 b 987 382 968 378 977 381 b 1019 383 997 383 1007 383 b 1106 359 1050 383 1079 375 b 1170 292 1132 343 1154 321 b 1194 194 1186 264 1194 231 b 1166 83 1194 152 1185 115 b 1089 11 1147 52 1121 28 b 981 -14 1056 -6 1020 -14 b 872 11 941 -14 905 -6 b 795 83 840 28 814 52 b 767 194 776 115 767 152 b 781 269 767 221 772 246 b 817 332 791 293 803 313 z "},"⅛":{"ha":1128,"x_min":0,"x_max":0,"o":"m 817 972 l 939 972 l 217 0 l 94 0 z m 39 828 l 39 921 l 271 974 l 271 381 l 174 381 l 174 865 z m 714 443 b 766 552 714 488 731 524 b 890 594 801 580 842 594 b 1015 552 939 594 981 580 b 1065 443 1048 524 1065 488 b 1042 362 1065 412 1057 384 b 981 310 1026 339 1006 322 b 1056 254 1010 298 1035 279 b 1086 158 1076 229 1086 197 b 1060 72 1086 126 1077 97 b 989 11 1042 46 1019 26 b 890 -11 959 -4 926 -11 b 791 11 854 -11 821 -4 b 719 72 761 26 737 46 b 693 158 702 97 693 126 b 724 254 693 197 703 229 b 800 310 745 279 770 298 b 738 362 774 322 753 339 b 714 443 722 384 714 412 z m 808 433 b 833 373 808 408 816 388 b 890 350 849 358 868 350 b 948 373 913 350 932 358 b 972 433 964 388 972 408 b 949 493 972 458 965 478 b 890 515 934 508 914 515 b 832 493 867 515 848 508 b 808 433 816 478 808 458 z m 790 172 b 821 99 790 141 800 116 b 890 72 841 81 864 72 b 960 99 917 72 940 81 b 989 172 979 116 989 141 b 960 242 989 200 979 223 b 890 269 940 260 917 269 b 821 242 864 269 841 260 b 790 172 800 223 790 200 z "},"⅜":{"ha":1235,"x_min":0,"x_max":0,"o":"m 924 972 l 1044 972 l 322 0 l 201 0 z m 239 378 b 132 402 198 378 163 386 b 62 467 101 418 78 440 b 38 556 46 495 38 524 l 136 556 b 167 488 136 527 146 504 b 242 464 187 472 212 464 b 313 488 271 464 295 472 b 340 556 331 504 340 527 b 305 628 340 587 328 611 b 210 653 281 644 250 653 l 210 675 l 210 710 l 210 728 b 293 755 245 728 273 737 b 324 819 313 773 324 794 b 304 877 324 844 317 863 b 244 899 291 891 271 899 b 181 876 219 899 198 891 b 156 817 164 860 156 841 l 63 817 b 113 935 63 865 79 904 b 244 982 147 966 191 982 b 376 935 301 982 345 966 b 424 824 408 903 424 866 b 396 747 424 795 414 769 b 321 694 377 725 352 707 b 407 641 356 683 385 666 b 440 544 429 616 440 584 b 385 424 440 494 422 454 b 239 378 348 393 299 378 z m 821 443 b 873 552 821 488 838 524 b 997 594 908 580 949 594 b 1122 552 1046 594 1088 580 b 1172 443 1155 524 1172 488 b 1149 362 1172 412 1164 384 b 1088 310 1133 339 1113 322 b 1163 254 1117 298 1142 279 b 1193 158 1183 229 1193 197 b 1167 72 1193 126 1184 97 b 1096 11 1149 46 1125 26 b 997 -11 1066 -4 1033 -11 b 898 11 961 -11 928 -4 b 826 72 868 26 844 46 b 800 158 809 97 800 126 b 831 254 800 197 810 229 b 907 310 852 279 877 298 b 844 362 881 322 860 339 b 821 443 829 384 821 412 z m 915 433 b 940 373 915 408 923 388 b 997 350 956 358 975 350 b 1054 373 1019 350 1038 358 b 1078 433 1070 388 1078 408 b 1056 493 1078 458 1070 478 b 997 515 1041 508 1021 515 b 939 493 974 515 955 508 b 915 433 923 478 915 458 z m 897 172 b 928 99 897 141 907 116 b 997 72 948 81 971 72 b 1067 99 1024 72 1047 81 b 1096 172 1086 116 1096 141 b 1067 242 1096 200 1086 223 b 997 269 1047 260 1024 269 b 928 242 971 269 948 260 b 897 172 907 223 897 200 z "},"⅝":{"ha":1274,"x_min":0,"x_max":0,"o":"m 961 972 l 1083 972 l 361 0 l 239 0 z m 472 575 b 442 465 472 531 462 494 b 362 399 421 435 395 413 b 256 376 329 384 294 376 b 124 408 202 376 158 387 b 39 481 89 428 61 453 l 96 553 b 162 493 113 530 135 510 b 243 468 188 476 215 468 b 334 499 282 468 312 478 b 367 582 356 519 367 547 b 331 665 367 617 355 645 b 243 694 306 684 277 694 b 169 685 217 694 192 691 b 89 647 145 678 119 666 l 167 969 l 467 969 l 467 883 l 240 883 l 204 749 b 297 771 233 763 264 771 b 422 717 346 771 388 753 b 472 575 455 681 472 633 z m 860 443 b 911 552 860 488 877 524 b 1035 594 945 580 987 594 b 1160 552 1084 594 1125 580 b 1211 443 1194 524 1211 488 b 1188 362 1211 412 1203 384 b 1125 310 1172 339 1151 322 b 1201 254 1155 298 1180 279 b 1232 158 1222 229 1232 197 b 1206 72 1232 126 1223 97 b 1134 11 1188 46 1164 26 b 1035 -11 1104 -4 1071 -11 b 936 11 999 -11 966 -4 b 865 72 906 26 883 46 b 839 158 848 97 839 126 b 869 254 839 197 849 229 b 944 310 890 279 915 298 b 883 362 919 322 899 339 b 860 443 868 384 860 412 z m 953 433 b 977 373 953 408 961 388 b 1035 350 993 358 1013 350 b 1092 373 1057 350 1076 358 b 1117 433 1109 388 1117 408 b 1094 493 1117 458 1109 478 b 1035 515 1078 508 1059 515 b 976 493 1012 515 992 508 b 953 433 961 478 953 458 z m 936 172 b 966 99 936 141 946 116 b 1035 72 986 81 1009 72 b 1105 99 1062 72 1085 81 b 1135 172 1125 116 1135 141 b 1105 242 1135 200 1125 223 b 1035 269 1085 260 1062 269 b 966 242 1009 269 986 260 b 936 172 946 223 936 200 z "},"⅞":{"ha":1121,"x_min":0,"x_max":0,"o":"m 806 972 l 928 972 l 206 0 l 83 0 z m 38 879 l 38 972 l 474 972 l 193 389 l 89 389 l 328 879 z m 707 443 b 758 552 707 488 724 524 b 882 594 793 580 834 594 b 1007 552 931 594 973 580 b 1058 443 1041 524 1058 488 b 1035 362 1058 412 1050 384 b 972 310 1019 339 998 322 b 1048 254 1002 298 1027 279 b 1079 158 1069 229 1079 197 b 1053 72 1079 126 1070 97 b 981 11 1035 46 1011 26 b 882 -11 951 -4 918 -11 b 783 11 846 -11 813 -4 b 713 72 754 26 730 46 b 686 158 695 97 686 126 b 717 254 686 197 696 229 b 792 310 737 279 762 298 b 731 362 767 322 746 339 b 707 443 715 384 707 412 z m 800 433 b 824 373 800 408 808 388 b 882 350 841 358 860 350 b 940 373 904 350 923 358 b 964 433 956 388 964 408 b 941 493 964 458 956 478 b 882 515 926 508 906 515 b 824 493 859 515 839 508 b 800 433 808 478 800 458 z m 783 172 b 813 99 783 141 793 116 b 882 72 833 81 856 72 b 952 99 909 72 932 81 b 982 172 972 116 982 141 b 952 242 982 200 972 223 b 882 269 932 260 909 269 b 813 242 856 269 833 260 b 783 172 793 223 783 200 z "},"−":{"ha":821,"x_min":0,"x_max":0,"o":"m 90 263 l 90 397 l 731 397 l 731 263 z "},"∙":{"ha":429,"x_min":0,"x_max":0,"o":"m 117 592 b 144 660 117 619 126 641 b 214 689 163 679 186 689 b 284 660 242 689 265 679 b 313 592 303 641 313 619 b 284 524 313 566 303 543 b 214 494 265 504 242 494 b 144 524 186 494 163 504 b 117 592 126 543 117 566 z "},"０":{"ha":833,"x_min":0,"x_max":0,"o":"m 200 486 b 226 302 200 417 209 355 b 301 177 244 249 269 207 b 417 132 334 147 372 132 b 532 177 461 132 500 147 b 607 302 564 207 589 249 b 633 486 625 355 633 417 b 607 670 633 556 625 617 b 532 795 589 723 564 765 b 417 840 500 825 461 840 b 301 795 372 840 334 825 b 226 670 269 765 244 723 b 200 486 209 617 200 556 z m 38 486 b 85 749 38 586 53 674 b 219 925 117 825 162 883 b 417 988 276 967 342 988 b 615 925 493 988 559 967 b 747 749 672 883 716 825 b 794 486 779 674 794 586 b 747 223 794 386 779 298 b 615 47 716 147 672 89 b 417 -15 559 6 493 -15 b 219 47 342 -15 276 6 b 85 223 162 89 117 147 b 38 486 53 298 38 386 z "},"１":{"ha":833,"x_min":0,"x_max":0,"o":"m 156 744 l 156 900 l 543 988 l 543 0 l 382 0 l 382 807 z "},"２":{"ha":833,"x_min":0,"x_max":0,"o":"m 29 0 l 478 474 b 560 581 513 512 540 547 b 589 689 579 614 589 650 b 572 762 589 714 583 738 b 519 819 560 785 542 805 b 431 842 495 834 466 842 b 295 784 375 842 330 822 b 243 628 260 746 243 694 l 81 628 b 122 813 81 697 94 759 b 243 942 150 867 190 910 b 433 989 296 973 359 989 b 579 962 490 989 538 980 b 680 890 620 944 653 920 b 739 792 706 859 726 827 b 758 686 752 756 758 721 b 722 544 758 635 746 588 b 625 422 697 501 665 460 l 347 153 l 771 153 l 771 0 z "},"３":{"ha":833,"x_min":0,"x_max":0,"o":"m 425 -17 b 246 24 356 -17 296 -3 b 130 131 196 50 157 86 b 89 278 103 176 89 225 l 254 278 b 305 167 254 231 271 194 b 429 125 339 139 380 125 b 549 165 478 125 518 138 b 594 278 579 192 594 230 b 535 399 594 330 575 370 b 376 442 495 427 442 442 l 376 475 l 376 535 l 376 564 b 516 609 436 564 482 579 b 567 717 550 639 567 675 b 533 812 567 756 555 787 b 433 849 510 836 477 849 b 328 810 392 849 357 836 b 286 714 300 785 286 753 l 131 714 b 169 856 131 768 143 815 b 276 952 194 896 230 928 b 433 988 322 976 374 988 b 594 951 496 988 550 975 b 697 856 639 927 673 896 b 732 725 720 817 732 773 b 687 596 732 676 717 633 b 565 508 657 559 616 530 b 706 420 624 490 671 460 b 760 261 742 380 760 327 b 718 115 760 206 746 157 b 601 18 690 74 651 41 b 425 -17 550 -5 492 -17 z "},"４":{"ha":833,"x_min":0,"x_max":0,"o":"m 653 186 l 653 0 l 483 0 l 483 186 l 22 186 l 553 972 l 653 972 l 653 328 l 799 328 l 799 186 z m 494 317 l 494 678 l 253 317 z "},"５":{"ha":833,"x_min":0,"x_max":0,"o":"m 772 317 b 721 131 772 242 755 180 b 588 21 687 81 642 45 b 411 -15 533 -3 474 -15 b 190 35 321 -15 248 2 b 47 157 133 69 85 110 l 144 275 b 253 178 173 237 209 205 b 389 138 297 151 343 138 b 542 188 455 138 506 154 b 596 326 578 221 596 267 b 567 428 596 366 586 400 b 492 492 548 456 523 477 b 389 514 461 506 427 514 b 265 498 346 514 305 509 b 131 436 224 487 180 467 l 261 972 l 761 972 l 761 828 l 386 828 l 322 604 b 398 632 346 617 372 626 b 479 640 424 638 451 640 b 626 601 533 640 582 627 b 733 488 671 574 706 537 b 772 317 759 440 772 382 z "},"６":{"ha":833,"x_min":0,"x_max":0,"o":"m 450 971 l 658 971 l 379 626 b 426 641 394 634 410 639 b 481 644 443 643 461 644 b 624 604 531 644 579 631 b 731 492 668 577 704 540 b 772 328 759 445 772 390 b 725 143 772 256 756 195 b 597 24 694 91 651 52 b 417 -17 544 -3 483 -17 b 235 24 350 -17 290 -3 b 107 143 181 52 138 91 b 60 328 75 195 60 256 b 83 452 60 372 68 414 b 142 557 99 491 119 525 z m 219 328 b 276 183 219 269 238 220 b 417 128 313 146 360 128 b 557 183 473 128 520 146 b 613 328 594 220 613 269 b 557 475 613 388 594 437 b 417 532 520 513 473 532 b 316 506 380 532 346 523 b 245 433 286 488 262 464 b 219 328 228 403 219 368 z "},"７":{"ha":833,"x_min":0,"x_max":0,"o":"m 69 818 l 69 972 l 796 972 l 328 0 l 153 0 l 550 818 z "},"８":{"ha":833,"x_min":0,"x_max":0,"o":"m 258 286 b 309 165 258 233 275 193 b 424 122 343 136 381 122 b 539 165 467 122 506 136 b 589 286 572 193 589 233 b 565 369 589 317 581 344 b 504 428 550 394 529 414 b 424 450 479 443 452 450 b 343 428 395 450 368 443 b 282 369 318 414 298 394 b 258 286 266 344 258 317 z m 288 719 b 328 622 288 680 301 647 b 424 583 355 596 387 583 b 520 622 462 583 494 596 b 560 719 547 647 560 680 b 522 820 560 760 547 794 b 424 860 497 847 464 860 b 326 820 384 860 351 847 b 288 719 300 794 288 760 z m 131 738 b 169 868 131 787 144 830 b 275 957 195 906 231 936 b 424 989 319 978 369 989 b 572 957 478 989 528 978 b 678 868 617 936 652 906 b 717 738 704 830 717 787 b 677 601 717 684 703 638 b 572 517 651 564 616 536 b 699 424 622 496 664 465 b 750 264 733 382 750 329 b 706 120 750 210 735 162 b 588 20 677 78 638 45 b 424 -17 539 -4 484 -17 b 259 20 363 -17 309 -4 b 141 120 209 45 170 78 b 97 264 112 162 97 210 b 149 424 97 329 114 382 b 275 517 183 465 225 496 b 171 601 232 536 198 564 b 131 738 144 638 131 684 z "},"９":{"ha":833,"x_min":0,"x_max":0,"o":"m 382 1 l 174 1 l 451 346 b 406 332 438 339 422 335 b 353 328 390 329 372 328 b 210 368 302 328 254 341 b 101 480 165 395 129 432 b 60 644 74 528 60 582 b 107 830 60 717 75 778 b 235 948 138 881 181 921 b 417 989 290 975 350 989 b 597 948 483 989 544 975 b 725 830 651 921 694 881 b 772 644 756 778 772 717 b 750 520 772 600 765 559 b 692 415 735 482 716 447 z m 613 644 b 557 790 613 705 594 753 b 417 844 520 826 473 844 b 276 790 360 844 313 826 b 219 644 238 753 219 705 b 245 539 219 605 228 569 b 316 467 262 508 286 484 b 417 440 346 449 380 440 b 557 498 473 440 520 459 b 613 644 594 536 613 585 z "}}}
